<?xml version="1.0" encoding="utf-8"?>
<!-- Generator: Adobe Illustrator 18.1.1, SVG Export Plug-In . SVG Version: 6.00 Build 0)  -->
<svg version="1.1" id="Layer_1" xmlns="http://www.w3.org/2000/svg" xmlns:xlink="http://www.w3.org/1999/xlink" x="0px" y="0px"
	 viewBox="0 0 153.4 175.1" enable-background="new 0 0 153.4 175.1" xml:space="preserve">
<path fill="#2D2A30" d="M13.2,138.9c-0.1-0.5-0.3-0.9-0.6-1.3c-0.3-0.4-0.6-0.7-1-0.9c-0.4-0.2-0.8-0.4-1.3-0.5
	c-0.5-0.1-1-0.1-1.5,0.1c-0.5,0.1-1,0.3-1.3,0.6c-0.4,0.3-0.7,0.6-0.9,1c-0.2,0.4-0.4,0.8-0.5,1.3c-0.1,0.5-0.1,0.9,0,1.4l0,0
	c0.1,0.5,0.3,0.9,0.6,1.3c0.3,0.4,0.6,0.7,1,0.9c0.4,0.2,0.8,0.4,1.3,0.5c0.5,0.1,1,0.1,1.5-0.1c0.5-0.1,1-0.3,1.3-0.6
	c0.4-0.3,0.7-0.6,0.9-1c0.2-0.4,0.4-0.8,0.5-1.3C13.3,139.8,13.3,139.4,13.2,138.9L13.2,138.9z M12,140.2c0,0.3-0.1,0.6-0.3,0.8
	c-0.1,0.3-0.3,0.5-0.6,0.7c-0.2,0.2-0.5,0.3-0.9,0.4c-0.3,0.1-0.6,0.1-0.9,0c-0.3-0.1-0.6-0.2-0.8-0.3c-0.2-0.2-0.5-0.4-0.6-0.6
	c-0.2-0.3-0.3-0.6-0.4-0.9l0,0c-0.1-0.3-0.1-0.6,0-0.9c0-0.3,0.1-0.6,0.3-0.9c0.1-0.3,0.3-0.5,0.6-0.7c0.2-0.2,0.5-0.3,0.9-0.4
	c0.3-0.1,0.6-0.1,0.9,0c0.3,0.1,0.6,0.2,0.8,0.3c0.2,0.2,0.5,0.4,0.6,0.6c0.2,0.3,0.3,0.6,0.4,0.9l0,0C12,139.5,12,139.8,12,140.2z
	 M21,137.9c0.2-0.2,0.3-0.3,0.4-0.5c0.1-0.2,0.2-0.4,0.2-0.6c0-0.2,0-0.5,0-0.8l0,0c-0.1-0.3-0.2-0.6-0.3-0.8
	c-0.1-0.2-0.3-0.4-0.5-0.6c-0.3-0.2-0.6-0.3-0.9-0.3c-0.3-0.1-0.7,0-1.2,0l-3,0.6l1.3,6.7l1.2-0.2l-0.4-2.3l1.5-0.3l0,0l2.1,2
	l1.4-0.3l-2.3-2.2C20.6,138.2,20.8,138.1,21,137.9z M19.3,137.7l-1.7,0.3l-0.4-2.3l1.7-0.3c0.4-0.1,0.8-0.1,1.1,0.1
	c0.3,0.1,0.5,0.4,0.5,0.8l0,0c0.1,0.3,0,0.6-0.2,0.9C20,137.4,19.7,137.6,19.3,137.7z M31.2,135.6c-0.1-0.5-0.2-0.9-0.5-1.3
	c-0.2-0.4-0.5-0.7-0.9-0.9c-0.4-0.3-0.8-0.4-1.2-0.5c-0.5-0.1-1-0.1-1.5,0l-2.5,0.4l1.1,6.7l2.5-0.4c0.5-0.1,1-0.2,1.4-0.5
	c0.4-0.2,0.8-0.5,1-0.9c0.3-0.4,0.5-0.7,0.6-1.2C31.2,136.6,31.2,136.1,31.2,135.6L31.2,135.6z M29.9,136.8
	c-0.1,0.3-0.2,0.6-0.4,0.8c-0.2,0.2-0.4,0.4-0.7,0.6c-0.3,0.2-0.6,0.3-0.9,0.3l-1.3,0.2l-0.7-4.6l1.3-0.2c0.4-0.1,0.7,0,1,0
	c0.3,0.1,0.6,0.2,0.8,0.4c0.2,0.2,0.4,0.4,0.6,0.7c0.2,0.3,0.3,0.6,0.3,0.9l0,0C30,136.2,30,136.5,29.9,136.8z M39.8,136.9l-3.9,0.5
	l-0.2-1.8l3.4-0.4l-0.1-1.1l-3.4,0.4l-0.2-1.7l3.8-0.5l-0.1-1.1l-5,0.6l0.9,6.8l5-0.6L39.8,136.9z M45.5,135l1.9,2.2l1.4-0.1
	l-2.1-2.4c0.2-0.1,0.4-0.2,0.6-0.3c0.2-0.1,0.3-0.3,0.5-0.5c0.1-0.2,0.2-0.4,0.3-0.6c0.1-0.2,0.1-0.5,0-0.8l0,0
	c0-0.3-0.1-0.6-0.2-0.8c-0.1-0.2-0.3-0.4-0.5-0.6c-0.2-0.2-0.5-0.3-0.9-0.4c-0.3-0.1-0.7-0.1-1.1-0.1l-3,0.3l0.7,6.8l1.2-0.1
	l-0.2-2.4L45.5,135L45.5,135z M43.9,134l-0.2-2.3l1.7-0.2c0.4,0,0.8,0,1.1,0.2c0.3,0.2,0.4,0.4,0.5,0.8l0,0c0,0.4-0.1,0.6-0.3,0.9
	c-0.2,0.2-0.6,0.4-1,0.4L43.9,134z M55.8,132.8c0.1,0.3,0.3,0.5,0.6,0.7c0.2,0.2,0.5,0.4,0.8,0.5c0.3,0.1,0.6,0.2,1,0.1
	c0.4,0,0.7-0.1,1-0.3c0.3-0.1,0.6-0.3,0.8-0.6c0.2-0.2,0.4-0.5,0.5-0.8c0.1-0.3,0.2-0.6,0.1-1l0,0c0-0.3-0.1-0.6-0.2-0.9
	c-0.1-0.3-0.3-0.5-0.6-0.7c-0.2-0.2-0.5-0.4-0.8-0.5c-0.3-0.1-0.7-0.2-1-0.1c-0.4,0-0.7,0.1-1,0.3c-0.3,0.1-0.6,0.3-0.8,0.6
	c-0.2,0.2-0.4,0.5-0.5,0.8c-0.1,0.3-0.2,0.6-0.1,1l0,0C55.6,132.2,55.7,132.5,55.8,132.8z M56.8,131.2c0.1-0.2,0.1-0.3,0.3-0.5
	c0.1-0.1,0.3-0.3,0.4-0.3c0.2-0.1,0.4-0.1,0.6-0.1c0.2,0,0.4,0,0.6,0.1c0.2,0.1,0.3,0.2,0.5,0.3c0.1,0.1,0.2,0.3,0.3,0.5
	c0.1,0.2,0.1,0.4,0.1,0.6l0,0c0,0.2,0,0.4-0.1,0.6c-0.1,0.2-0.1,0.3-0.3,0.5c-0.1,0.1-0.3,0.3-0.4,0.3c-0.2,0.1-0.4,0.1-0.6,0.1
	c-0.2,0-0.4,0-0.6-0.1c-0.2-0.1-0.3-0.2-0.5-0.3c-0.1-0.1-0.2-0.3-0.3-0.5c-0.1-0.2-0.1-0.4-0.1-0.6v0
	C56.7,131.6,56.7,131.4,56.8,131.2z M66.3,129l-3.6,0.1l0.2,4.7l1,0l-0.1-1.8l2.2-0.1l0-0.9l-2.2,0.1l0-1l2.5-0.1L66.3,129z
	 M78.6,128.9l-5.5,0l0,1.1l2.2,0l0,5.7l1.2,0l0-5.7l2.2,0L78.6,128.9z M87.3,135.8l0.1-6.8l-1.2,0l0,2.8l-3.3-0.1l0-2.8l-1.2,0
	l-0.1,6.8l1.2,0l0-2.9l3.3,0.1l0,2.9L87.3,135.8z M90.7,135.9l5.1,0.2l0-1.1l-3.9-0.2l0.1-1.8l3.4,0.1l0-1.1l-3.4-0.1l0.1-1.7
	l3.8,0.2l0-1.1l-5-0.2L90.7,135.9z M105.1,135.1l3.2,0.3l0.6,1.7l1.3,0.1l-2.4-7.1l-1.1-0.1l-3.6,6.6l1.2,0.1L105.1,135.1z
	 M107,131.5l0.9,2.8l-2.3-0.2L107,131.5z M118.7,131.9c-0.2-0.2-0.5-0.4-0.8-0.6c-0.3-0.2-0.7-0.3-1.1-0.3l-3-0.3l-0.8,6.8l1.2,0.1
	l0.3-2.4l1.5,0.2l0,0l1.4,2.5l1.4,0.2l-1.5-2.8c0.2,0,0.5-0.1,0.7-0.2c0.2-0.1,0.4-0.2,0.6-0.4c0.2-0.2,0.3-0.3,0.4-0.6
	c0.1-0.2,0.2-0.5,0.2-0.7l0,0c0-0.3,0-0.6-0.1-0.8C118.9,132.4,118.8,132.1,118.7,131.9z M117.8,133.4c0,0.4-0.2,0.6-0.5,0.8
	c-0.3,0.2-0.6,0.2-1.1,0.2l-1.7-0.2l0.3-2.3l1.7,0.2c0.4,0.1,0.8,0.2,1,0.4C117.8,132.7,117.9,133,117.8,133.4L117.8,133.4z
	 M127.5,133.1c-0.2-0.2-0.4-0.4-0.7-0.6c-0.3-0.2-0.7-0.3-1.1-0.3l-3-0.4l-1,6.7l1.2,0.2l0.3-2.4l1.5,0.2l0,0l1.3,2.6l1.4,0.2
	l-1.5-2.8c0.2,0,0.5-0.1,0.7-0.2c0.2-0.1,0.4-0.2,0.6-0.4c0.2-0.1,0.3-0.3,0.4-0.5c0.1-0.2,0.2-0.5,0.2-0.7l0,0c0-0.3,0-0.6,0-0.8
	C127.8,133.6,127.7,133.3,127.5,133.1z M126.6,134.6c0,0.3-0.2,0.6-0.5,0.8c-0.3,0.2-0.6,0.2-1.1,0.2l-1.7-0.2l0.3-2.3l1.7,0.2
	c0.4,0.1,0.8,0.2,1,0.4C126.6,133.9,126.7,134.2,126.6,134.6L126.6,134.6z M137.1,135c-0.3-0.4-0.6-0.7-1-0.9
	c-0.4-0.3-0.9-0.4-1.4-0.5c-0.5-0.1-1-0.1-1.5,0c-0.5,0.1-0.9,0.3-1.2,0.6c-0.4,0.3-0.7,0.6-0.9,1c-0.2,0.4-0.4,0.8-0.5,1.3l0,0
	c-0.1,0.5-0.1,0.9,0,1.4c0.1,0.4,0.3,0.9,0.5,1.2c0.3,0.4,0.6,0.7,1,0.9c0.4,0.3,0.9,0.4,1.4,0.5c0.5,0.1,1,0.1,1.5,0
	c0.5-0.1,0.9-0.3,1.2-0.6c0.4-0.3,0.7-0.6,0.9-1c0.2-0.4,0.4-0.8,0.5-1.3l0,0c0.1-0.5,0.1-0.9,0-1.4
	C137.5,135.8,137.4,135.4,137.1,135z M136.4,137.4L136.4,137.4c-0.1,0.3-0.2,0.6-0.3,0.9c-0.2,0.3-0.4,0.5-0.6,0.7
	c-0.2,0.2-0.5,0.3-0.8,0.4c-0.3,0.1-0.6,0.1-0.9,0c-0.3-0.1-0.6-0.2-0.9-0.4c-0.3-0.2-0.5-0.4-0.6-0.6c-0.2-0.2-0.3-0.5-0.3-0.8
	c-0.1-0.3-0.1-0.6,0-1l0,0c0.1-0.3,0.2-0.6,0.3-0.9c0.2-0.3,0.4-0.5,0.6-0.7c0.2-0.2,0.5-0.3,0.8-0.4c0.3-0.1,0.6-0.1,0.9,0
	c0.3,0.1,0.6,0.2,0.9,0.4c0.3,0.2,0.5,0.4,0.6,0.6c0.2,0.2,0.3,0.5,0.3,0.8C136.5,136.7,136.5,137.1,136.4,137.4z M149.8,136.7
	l-2.7,4.6l-0.5-5.3l-1-0.2l-2.7,4.6l-0.5-5.3l-1.3-0.3l0.8,7.2l1,0.2l2.7-4.4l0.6,5.1l1,0.2l3.8-6.2L149.8,136.7z M56,135.5l0,0.8
	l10.5-0.6l0-0.8L56,135.5z M14.3,80.3c0.2,0.9,4.1,12.4,4.1,12.4l5.4-1L23,69.5l-4.7,0.9l0.8,13.2L14.9,71l-4.6,0.9l0.5,13.2
	L6.9,72.5l-4.8,0.9l7.3,21l5.4-1C14.9,93.4,14.3,80.3,14.3,80.3z M46.3,89.1l-0.5-4.7l-8.7,0.9L36.7,81l6.4-0.7l-0.5-4.7l-6.4,0.7
	l-0.4-3.5l8.7-0.9l-0.5-4.7l-13.4,1.4L33,90.5L46.3,89.1z M65,87.1c0.6-0.6,0.8-1.3,0.8-2.1l-0.2-5.4c0-0.5-0.1-0.9-0.3-1.3
	c-0.2-0.4-0.5-0.7-1-1l-7.7-3.5l-0.1-2.6l4-0.2l0.1,3.2l4.7-0.2L65.1,69c0-0.8-0.4-1.5-1-2.1c-0.6-0.6-1.3-0.8-2.2-0.8l-7.4,0.3
	c-0.8,0-1.5,0.4-2.1,1c-0.6,0.6-0.8,1.3-0.8,2.2l0.2,5.3c0,0.5,0.1,0.9,0.3,1.3c0.2,0.4,0.5,0.7,0.9,1l7.7,3.6l0.1,2.6l-4,0.2
	l-0.1-3.2l-4.7,0.2l0.2,4.9c0,0.8,0.4,1.5,1,2.1c0.6,0.6,1.3,0.8,2.1,0.8l7.4-0.3C63.8,88,64.5,87.7,65,87.1z M81.1,70.5l4.4,0
	l0-4.7L72,65.8l0,4.7l4.4,0l-0.1,17.2l4.7,0L81.1,70.5z M105.7,71.4l0.3-4.7L92.5,66l-1.3,21.9l13.4,0.8l0.3-4.7l-8.7-0.5l0.3-4.3
	l6.4,0.4l0.3-4.7l-6.4-0.4l0.2-3.5L105.7,71.4z M110.9,89l4.7,0.5l0.8-7.2l1.3,0.1l1.8,7.5l5,0.6l-1.8-7.9c0.8-0.2,1.4-0.6,1.9-1.2
	c0.5-0.6,0.9-1.3,1-2.2l0.8-6.6c0.1-0.6,0-1.1-0.1-1.6c-0.2-0.5-0.4-1-0.7-1.4c-0.3-0.4-0.7-0.7-1.2-1c-0.5-0.3-1-0.4-1.5-0.5
	l-4.7-0.5l-4.7-0.5L110.9,89z M117.5,72.4l4,0.5l-0.6,5.2l-4-0.5L117.5,72.4z M33.3,110.5c0.7-0.4,1.2-1,1.5-1.7
	c0.4-0.7,0.5-1.5,0.3-2.4L34,99.8c-0.1-0.6-0.3-1-0.6-1.5c-0.3-0.4-0.7-0.8-1.1-1.1c-0.4-0.3-0.9-0.5-1.4-0.7
	c-0.5-0.1-1-0.2-1.6-0.1l-4.7,0.8L20,98.1l3.7,21.8l4.7-0.8l-1.2-7.3l1.3-0.2l3.8,6.8l5-0.9L33.3,110.5z M26.3,107.2l-0.9-5.2l4-0.7
	l0.9,5.2L26.3,107.2z M56.5,110.7l-8.8,0.8l-0.4-4.3l6.4-0.6l-0.4-4.7l-6.4,0.6l-0.3-3.6l8.8-0.8l-0.4-4.7l-13.5,1.3l2.1,22.1
	l13.5-1.3L56.5,110.7z M75.6,113.8c0.6-0.6,0.9-1.3,0.9-2.1l-0.2-9.2l-6.8,0.1l0.1,4.7l2,0l0,2.7l-4,0.1l-0.2-12.7l4.1-0.1l0.1,3.2
	l4.8-0.1l-0.1-4.9c0-0.8-0.3-1.6-0.9-2.1c-0.6-0.6-1.3-0.9-2.2-0.9l-7.5,0.1c-0.8,0-1.5,0.3-2.1,0.9c-0.6,0.6-0.9,1.3-0.9,2.2
	l0.3,16.1c0,0.8,0.3,1.5,0.9,2.1c0.6,0.6,1.3,0.9,2.1,0.9l7.5-0.1C74.3,114.7,75,114.4,75.6,113.8z M88.4,92.7l-4.7-0.1l-0.6,22.1
	l4.7,0.1L88.4,92.7z M98.3,115.4l5.4,0.4c0.6,0,1.1,0,1.6-0.2c0.5-0.2,1-0.4,1.3-0.8c0.4-0.3,0.7-0.7,1-1.2c0.3-0.5,0.4-1,0.4-1.6
	l1.1-14c0-0.6,0-1.1-0.2-1.6c-0.2-0.5-0.4-0.9-0.8-1.3c-0.3-0.4-0.7-0.7-1.2-1c-0.5-0.3-1-0.4-1.5-0.4l-5.4-0.4
	c-0.6,0-1.1,0-1.6,0.2c-0.5,0.2-1,0.4-1.3,0.8c-0.4,0.3-0.7,0.7-1,1.2c-0.3,0.5-0.4,1-0.4,1.5l-1.1,14c-0.1,1.1,0.2,2.1,0.9,3
	C96.2,114.8,97.1,115.3,98.3,115.4z M100.3,98.1l4,0.3l-1,12.6l-4-0.3L100.3,98.1z M127.3,96.5l-1.8,10.9l-2.4-11.6l-5.5-0.9
	l-3.5,21.9l4.7,0.8l1.8-11.1l2.4,11.7l5.5,0.9l3.5-21.9L127.3,96.5z M149.1,72.6l-4.7-0.9l-2,10.8l-2.1-11.6l-5.5-1l-4,21.6l4.6,0.9
	l2-10.9l2.1,11.7l5.5,1L149.1,72.6z M58.5,158.5c-0.6,0-19.1,0.5-19.1,1.1c0,0.6,18.5,1.1,19.1,1.1c0.6,0,1.1-0.5,1.1-1.1
	C59.6,159,59.1,158.5,58.5,158.5z M99,158.5c-0.6,0-1.1,0.5-1.1,1.1c0,0.6,0.5,1.1,1.1,1.1c0.6,0,19.1-0.5,19.1-1.1
	C118.1,159,99.6,158.5,99,158.5z M85.4,163.3l3.6,3.5c0.5-0.4,0.7-0.9,0.8-1.4c0-0.4,0.1-0.7,0-1.1c-0.1-0.6-0.7-1.2-1.3-1.4
	c-0.5-0.2-1.1-0.1-1.5,0.3c-0.4,0.2-0.7-0.3-1-0.5c0.1-0.1,0.3-0.3,0.3-0.4c0-0.2,0-0.3-0.2-0.4c-0.4-0.1-0.6,0.2-0.9,0.4
	c0.1-0.1,0.1-0.3,0-0.5c-0.1-0.2-0.3-0.3-0.5-0.3c-0.3,0.1-0.6,0-0.8-0.2c0.1-0.2,0.2-0.4,0.5-0.5c0.6-0.2,1.3-0.1,1.9-0.4
	c0.1-0.2,0.3-0.4,0.4-0.5c-0.2-0.1,0.2-0.2,0-0.4c-0.1-0.4,0.4-0.4,0.4-0.7c0-0.1-0.1-0.2,0-0.3c0-0.2,0.1-0.4,0.3-0.5
	c0.2-0.2,0-0.4,0.1-0.7c0.5-0.4-0.3-0.8-0.5-1.1c-0.4-0.1-0.8-0.4-1.2-0.3c-0.1-0.2-0.4,0.1-0.5-0.2c0-0.2-0.1-0.3-0.3-0.5
	c-0.2,0-0.4-0.2-0.6-0.2c-0.3-0.3-0.7-0.5-1.1-0.7c0-0.4-0.4,0-0.5-0.4c-0.3-0.2-0.4-0.6-0.8-0.6c-0.3-0.2-0.6,0.1-0.9-0.2
	c-0.4,0-0.8-0.2-1.1-0.4c-0.4-0.1-0.9,0.1-1.1-0.4c-0.5-0.2-0.6-0.6-1-1c-0.1,0-0.2,0-0.3-0.1c-0.3,0-0.5-0.1-0.8,0
	c-0.3,0.4-0.9,0-1.2,0c-0.2-0.1-0.4-0.4-0.6-0.5c-0.2-0.2-0.4-0.1-0.6-0.2c0-0.1-0.1-0.1-0.1-0.1c-0.2-0.1-0.5-0.1-0.8,0
	c-0.2-0.1-0.4-0.3-0.6-0.4c-0.1-0.2-0.4-0.1-0.4-0.3c-0.2-0.2-0.5-0.4-0.8-0.4c-0.4-0.2-0.7,0.2-1.2,0.1c-0.1-0.1-0.3-0.2-0.4-0.3
	c-0.1,0-0.3-0.1-0.4-0.2c-0.4,0.2-0.7-0.2-1,0c-0.1,0.1-0.2,0.1-0.3,0c-0.1,0-0.1,0.1-0.1,0.2c0.1,0.4,0,0.9,0.1,1.3
	c0.2,0.2-0.1,0.6,0.1,0.8c0.3,0.2,0.1,0.6,0.2,0.8c0.3,0.2,0.3,0.5,0.5,0.8c0,0.2,0.2,0.3,0.1,0.4c0.3,0.1,0.1,0.4,0.1,0.6
	c0.1,0.2,0.2,0.3,0.2,0.5c0.2,0,0.1,0.3,0.2,0.4c0.2,0.1,0.2,0.4,0.3,0.5c-0.1,0.3,0.2,0.6,0.1,0.9c0.2,0.2,0.2,0.6,0.2,0.8
	c0,0.4,0.5,0.4,0.5,0.8c0.2,0.3,0.2,0.5,0.2,0.9c0.1,0.2,0,0.5,0.2,0.7c0.1,0.1-0.1,0.2,0.1,0.3c0,0.2,0.1,0.3,0.2,0.4
	c0.2,0.4,0.5,0.6,0.8,0.9c0.4,0.3,0.3,0.8,0.3,1.2c-0.2,0.6,0.5,0.8,0.6,1.3c0.1,0.1,0.2,0.2,0.2,0.3c0.3,0.1,0.2,0.5,0.5,0.6
	c0,0.1,0.1,0.2,0,0.3c0,0.1,0.1,0.2,0.2,0.3c0,0.2,0.3,0.4,0.4,0.6c0,0.1-0.1,0.3,0.1,0.3c0,0.4,0.6,0.6,0.6,1
	c-0.1,0.2,0.1,0.3,0.2,0.5c0,0.2,0.2,0.3,0.2,0.4c0,0.2,0.2,0.3,0.3,0.3c0.1,0.4,0.5,0.3,0.7,0.6c0.2,0.1,0.3,0,0.4-0.1
	c0.3,0,0.5-0.3,0.7-0.4c0.4-0.3,0.8-0.3,1.2-0.5c0.4-0.4,0.5-1,0.7-1.4c0-0.2-0.1-0.4-0.2-0.7c0-0.2-0.1-0.4,0-0.6
	c0.1-0.3,0.5-0.1,0.8-0.1c0.1,0,0.1,0.1,0.2,0.1c0.2,0,0,0.2,0.1,0.4c0.1,0.2,0.1,0.3,0.3,0.5c0.1,0.1,0.4,0.1,0.5,0
	c-0.2,0.2-0.6,0.4-0.5,0.8c0,0.1,0.1,0.2,0.2,0.3c0.3,0.1,0.5-0.1,0.7-0.3c0.2,0.3,0.7,0.5,0.5,0.9c-0.3,0.4-0.5,1.1-0.3,1.6
	c0.2,0.5,0.7,1.1,1.3,1.3c0.9,0.2,1.9-0.1,2.5-0.8c0,0,0,0,0,0l-3.5-3.6L85.4,163.3z M87.8,164.2c0.1-0.1,0.2-0.1,0.3-0.1
	c0.2,0.1,0.4,0.2,0.6,0.4c0.1,0.1,0.1,0.3,0,0.4c-0.1,0.2-0.3,0.2-0.5,0.2c-0.2-0.1-0.4-0.3-0.5-0.5
	C87.7,164.5,87.7,164.4,87.8,164.2z M84.9,158.1c0-0.2,0-0.3,0.1-0.4c0.2-0.2,0.4-0.1,0.6-0.1c0.1,0.2,0.4,0.2,0.4,0.5l0.2,0.4
	c-0.3,0.2-0.1,0.7-0.5,0.9c-0.3,0-0.5,0.5-0.8,0.4c-0.1-0.1-0.3-0.2-0.3-0.4l-0.1,0C84.5,158.8,84.7,158.5,84.9,158.1z M70.6,151.2
	c0.1,0,0,0.2,0,0.3c-0.1,0.1-0.2,0.3-0.4,0.4c-0.2-0.1-0.4-0.2-0.6-0.3c0-0.2-0.1-0.3-0.1-0.4c0.3-0.1,0.4-0.5,0.7-0.5l0.3,0
	c0,0.2,0.2,0.2,0.1,0.4C70.6,151.1,70.7,151.1,70.6,151.2z M83.7,168.7c0.2,0.1,0.4,0.3,0.5,0.4c0,0.1,0.1,0.3,0,0.4
	c-0.1,0.1-0.3,0.2-0.5,0.1c-0.2-0.1-0.4-0.3-0.5-0.6C83.1,168.8,83.5,168.6,83.7,168.7z M83.7,161.9c-0.2,0.2-0.5,0.3-0.5,0.6
	l-0.2,0.1c-0.1-0.1,0-0.3-0.2-0.3c-0.1-0.2-0.1-0.5-0.3-0.6c-0.1-0.1-0.1-0.4-0.1-0.5c0.1-0.1,0.3-0.2,0.4,0
	c0.3-0.2,0.5,0.2,0.9,0.1C83.8,161.5,83.8,161.7,83.7,161.9z M83,157.3c0.2,0,0.3,0.3,0.3,0.4c0.1,0.1,0.1,0.3,0.2,0.4
	c0,0.1-0.1,0.1,0,0.3c0.2,0.1,0,0.3,0.1,0.5c-0.1,0.2-0.2,0.4-0.4,0.5c-0.1,0.2-0.4,0.3-0.5,0.5c-0.2,0-0.3,0.2-0.5,0.1
	c-0.1-0.1-0.2-0.2-0.2-0.4c0-0.4,0.4-0.5,0.5-0.9c0.1-0.1,0.2-0.2,0.2-0.4c-0.2-0.2,0.3-0.4-0.1-0.5c-0.1-0.2-0.4-0.2-0.4-0.5
	c0.1-0.1,0.2-0.5,0.5-0.4C82.7,157.1,83,157.1,83,157.3z M81.6,163.1c0.1-0.1,0.2-0.1,0.1-0.2c0.1-0.1,0.2-0.2,0.3-0.1
	c0,0.1,0.1,0.1,0.2,0.1c0.1,0.1,0.2,0.2,0.2,0.3c-0.2,0.2-0.3,0.5-0.6,0.6c-0.1,0-0.2,0-0.2-0.1C81.6,163.4,81.7,163.2,81.6,163.1z
	 M81.3,155L81.3,155c0.2-0.3,0.6-0.1,0.9-0.2c0.2,0.2,0.5-0.1,0.6,0.2c0,0.2,0.2,0.3,0,0.5c-0.1,0-0.2,0.2-0.3,0.3
	c-0.4-0.1-0.9,0.6-1.2,0.1C81.2,155.5,81.2,155.2,81.3,155z M80.5,162c0-0.2,0.2-0.3,0.2-0.4c0.3,0,0.3-0.5,0.7-0.4l0.3-0.1
	c0.1,0.2,0.1,0.3,0.1,0.5c-0.1,0.2-0.4,0.4-0.3,0.7c-0.2,0.2-0.5,0.1-0.8,0.1C80.7,162.1,80.3,162.2,80.5,162z M77.7,153.3
	c0.6,0,1,0.4,1.6,0.5c0.2-0.1,0.2,0.2,0.4,0c0.1,0.1,0,0.2,0.1,0.4c0,0.1-0.1,0.2-0.2,0.3c-0.4,0.2-1.1,0.5-1.5,0.1
	c-0.3,0-0.4-0.5-0.7-0.5c0-0.1-0.1-0.3-0.1-0.4L77.7,153.3z M77,159.7c-0.1,0.3,0.3,0.4,0.2,0.7c0.3,0.1,0.2,0.4,0.4,0.6
	c0,0.2-0.1,0.3-0.2,0.4c-0.1,0-0.3,0.1-0.5,0.1c-0.1-0.2-0.4-0.1-0.5-0.3c-0.1-0.2-0.4-0.4-0.4-0.6c0.1-0.3-0.2-0.6,0.1-0.9l0.4-0.3
	C76.7,159.4,77.1,159.3,77,159.7z M73.8,151.9c0.1,0.1,0.3,0,0.4,0c0.1-0.1,0.3,0.1,0.4,0c0.1,0.1,0.2,0.1,0.3,0.2l0,0
	c0.2-0.1,0.2,0.1,0.3,0.2c0.1,0.1-0.1,0.2,0,0.3l-0.3,0.1l0-0.1c-0.1,0-0.2,0.1-0.3,0c0-0.2-0.2,0-0.3-0.1c-0.1,0.1-0.2,0-0.3,0
	c-0.1-0.2-0.4-0.3-0.3-0.5C73.8,152.1,73.7,151.9,73.8,151.9z M72.7,153.4c0.2-0.2,0.4,0,0.6-0.2c0.2,0,0.3,0.2,0.5,0.2
	c0.1,0.1,0.2,0.1,0.2,0.2c-0.1,0.2,0.1,0.3,0.1,0.4c-0.2,0.3-0.6,0.4-0.7,0.7c-0.1,0-0.1,0.1-0.2,0c-0.2-0.1-0.2-0.3-0.4-0.5
	c0.1-0.2-0.2-0.4-0.1-0.7l-0.1,0C72.6,153.5,72.6,153.4,72.7,153.4z M72.6,157c-0.2-0.1-0.4-0.1-0.6-0.1c-0.1-0.2-0.4-0.1-0.5-0.4
	c-0.1,0-0.1-0.1-0.2-0.2c0-0.2,0.1-0.3-0.1-0.5c-0.2-0.4,0.3-0.6,0.6-0.4c0.2,0.1,0.3,0.4,0.3,0.6c0.2,0.3,0.6,0.2,0.9,0.4
	c0,0.1-0.1,0.3-0.1,0.4L72.6,157z M74,161.8c-0.1,0.1-0.2,0.2-0.4,0.1c-0.2-0.1-0.3-0.3-0.5-0.5l-0.1-0.1c0.1-0.1,0-0.3,0.1-0.4
	c0.2-0.1,0.2-0.4,0.4-0.3c0.1-0.1,0.2,0,0.3,0c0.1,0.2,0.3,0.4,0.1,0.7C74.4,161.4,73.8,161.6,74,161.8z M75.1,159.2
	c-0.2,0.2-0.5,0.1-0.7-0.1c-0.2-0.1-0.5,0-0.6-0.3c-0.1-0.2,0-0.4,0.1-0.6H74c0-0.1,0-0.3,0-0.5c0.2-0.2,0.3,0.1,0.5-0.1
	c0.1,0.2,0.4,0.2,0.4,0.5c0.2,0.1,0.3,0.4,0.5,0.5C75.3,158.8,75.5,159.1,75.1,159.2z M75.3,155.5c-0.1,0-0.2,0-0.3-0.1
	c0.1-0.2-0.1-0.2-0.1-0.4c-0.3-0.1,0.2-0.3-0.1-0.5c0-0.2,0.3-0.3,0.4-0.4c0.1,0.1,0.3,0,0.5,0c0.2,0.2,0.4,0.3,0.6,0.4
	c0.2,0,0.1,0.3,0.3,0.2c0.1,0.1,0,0.3,0,0.4c-0.1,0.2,0,0.4-0.3,0.5c-0.2,0-0.3-0.1-0.5,0C75.7,155.5,75.5,155.6,75.3,155.5z
	 M77.2,166.7c-0.2-0.1-0.4,0.1-0.6,0c-0.2-0.3-0.5-0.4-0.4-0.8c-0.2-0.1-0.1-0.4-0.3-0.4c0.1-0.1-0.1-0.3-0.1-0.4
	c-0.2-0.1,0-0.2-0.1-0.3c0-0.2,0-0.4,0.2-0.5c0.1-0.1,0.3-0.1,0.4,0c0.2,0.3,0.3,0.6,0.3,0.9c0.3,0,0,0.4,0.3,0.3
	c0,0.2,0.1,0.2,0.2,0.2c0.2,0.1,0.4,0.2,0.4,0.5C77.4,166.3,77.5,166.6,77.2,166.7z M78.4,163.7c-0.1,0.2,0.1,0.5-0.2,0.6
	c-0.2-0.1-0.6,0-0.6-0.3c0.1-0.2-0.2-0.3,0-0.5c-0.1-0.2,0.2-0.2,0.1-0.3c0.2,0,0.4-0.2,0.5,0c0.1,0,0.1,0.1,0.2,0.1
	c0,0.1-0.1,0.1,0,0.2C78.5,163.6,78.5,163.6,78.4,163.7z M79.3,158c0-0.1-0.1-0.2-0.2-0.2c0-0.2,0-0.4-0.2-0.6
	c-0.2,0-0.1-0.3-0.4-0.3c-0.1-0.2,0.1-0.4-0.1-0.6c0-0.2,0.2-0.2,0.2-0.4c0,0,0.1-0.1,0.1-0.1c0-0.1,0.2-0.1,0.3-0.2
	c0.2,0,0.1,0.3,0.3,0.3c0.1,0.1,0.1,0.2,0,0.2c0.1,0.2,0.2,0.3,0.2,0.5c0.3,0.1,0,0.4,0.3,0.5c0,0,0,0.1,0,0.1
	c0.1,0.2,0.1,0.4-0.1,0.5c0,0.1,0,0.2-0.1,0.3C79.5,158.1,79.3,158.3,79.3,158z M79.5,161c0-0.1,0-0.1,0-0.3
	c0.1-0.1,0.2-0.2,0.4-0.2c0.2,0.1,0.3,0.1,0.3,0.3c-0.1,0.1-0.3,0.4-0.4,0.4C79.7,161.3,79.6,161.1,79.5,161z M79.9,162.9
	c-0.1-0.1-0.1-0.2-0.1-0.3c0.1-0.2,0.4-0.1,0.6-0.1c0.1,0.1,0.3,0.3,0.2,0.4c0.1,0.3-0.2,0.4-0.2,0.6c-0.2,0.1-0.3,0-0.4-0.1
	C79.9,163.4,79.7,163.1,79.9,162.9z M80.6,164.9c-0.2-0.2-0.2-0.6-0.4-0.8c0-0.2,0.2-0.3,0.4-0.4l0.6,0.1c0.1,0.1,0.2,0.1,0.3,0.2
	c-0.1,0.1,0,0.4-0.2,0.5C81.1,164.6,80.9,165,80.6,164.9z M81.7,165.5c-0.2,0.1-0.3-0.1-0.4-0.2c0-0.1,0.1-0.2,0.1-0.3l2.7-2.8
	c0.1,0,0.2-0.1,0.3,0c0.1,0.1,0.2,0.3,0.1,0.4L81.7,165.5z M83.2,166.4l5.9,6l2.3-2.3l-5.9-6L83.2,166.4z M89.3,47.3
	C89.3,47.6,89.3,46.8,89.3,47.3L89.3,47.3z M45.1,54.8c1.6-0.4,3.2-0.5,4.9-0.8c3-0.5,6.1-0.9,9.2-1.1c5.8-0.4,11.5-0.9,17.4-1
	c5.9-0.1,11.7,0.5,17.6,0.7c4.7,0.2,13.9,1.4,13.9,1.4c1,0.3,2,0.5,3,0.7c0.4,0.1,2.3,0.4,2.5-0.2c0.1-0.5-1-0.9-1.3-1
	c-0.4-0.1-2.8-0.6-2.7-1.2c0-0.2,0-1.1-0.1-1.2c-0.1-0.1-0.2,1.3-0.7,1.3c-0.7,0-1.9,0.2-2.3-0.6c-0.4-0.9,0.1-2.1,0.3-3
	c0.1-0.5-0.1-0.4-0.2,0c-0.1,0.4-0.5,1.8-0.7,1.9c-0.1,0-0.5-1.7-0.7-1.5c-0.1,0.2,0.1,0.7,0.2,1c0.1,0.4,0.1,1,0.1,1.4
	c-0.1,0.4-0.2,0.3-0.5,0.3c-2-0.4-4-0.7-6-1.1c0,0-0.1,0-0.1-0.1c0-0.1,0-0.3-0.1-0.4c-0.1-0.7-0.4-1.2-0.9-1.7
	c-0.2-0.2-0.5-0.4-0.8-0.7c-0.2-0.1-0.4-0.3-0.5-0.4c-0.3-0.7-0.5-1.5-0.7-2.3c-0.1-0.5-0.2-1-0.3-1.5c-0.2-0.7-0.3-2.9-0.4-3.3
	c-0.1-0.7-0.5-2.2-0.8-4c-0.3-1.8-0.4-2.5-0.2-3.7c0.2-1.2,1.3-2,2.6-4.2c1.3-2.3,1.6-3.2,1.7-4c0.1-0.8-0.4-2.8,0.7-5.5
	c1.1-2.8,2.3-4.3,2.5-4.4c0.7-0.6,2-0.6,2.3-0.6c0.3,0,1.1,0.7,2.3,1c1.2,0.3,1.4,0.1,2.7,0.4c1.3,0.3,1.4,0.6,1.7,0.5
	c0.4-0.1,0.7-0.4,1.1-1.4c0.4-1-0.5-1.8-1.2-2.4c-0.6-0.6-3.8-3.9-3.9-4.1c-0.1-0.1-0.1-0.3-0.1-0.4c0-0.1-0.4-0.3-1.7-1
	c-1.3-0.8-1.1-1.3-0.9-2.2c0.2-0.9,0.8-1.5,0.8-1.7c-0.1-0.2-1.1,0.4-1.3,0.3c-0.2-0.1-0.1-1.2-0.3-1.1c-0.2,0.1-0.8,1.5-1.5,1.7
	C100.9,4,99.8,4.5,99.6,5c-0.2,0.5-0.4,1.2-0.5,1.1c-0.1,0-0.1-0.7-0.3-0.8c-0.2-0.1-0.8,0.7-1.5,2.2c-0.7,1.6-0.7,2.3-1.2,3.4
	c-0.5,1.1-0.7,1.5-0.8,1.4c-0.1-0.1,0.2-0.8,0.2-1.6c0-0.8-0.2-1.8-0.2-2.2c0-0.3,0.3-0.8,0.2-0.9c-0.1-0.1-0.5,0.2-1.1,0.8
	c-0.5,0.5-1.6,1.8-1.8,3.5c-0.2,1.6,0.4,3.1,0.2,3.2c-0.1,0.1-0.2-0.4-0.4-0.7c-0.2-0.3-0.5-0.5-0.6-0.4c-0.1,0.1,0.2,1.5-1,3.9
	c-1.3,2.5-2.9,3-2.9,2.9c-0.1-0.1,1.3-2.1,1.7-4c0.3-1.9-0.2-2.1-0.4-3.4c-0.3-1.2,0.5-2.2,0.3-2.3c-0.2-0.1-0.7,0.3-1.5,1
	c-0.9,0.7-2,1.7-2.6,3.7c-0.6,2,0.1,3.8,0,3.9c-0.2,0.1-1.2-1.2-1.4-2.2c-0.2-1,0.4-2.3,0.2-2.4c-0.2-0.1-0.7,0.3-1.1,1.3
	c-0.5,1-1.1,1.6-1.2,1.5c-0.1-0.1,0.2-0.6,0.3-1.2c0.1-0.6,0.1-1.1-0.1-1.2c-0.2-0.1-0.4,0.2-0.8,0.5c-0.4,0.3-0.9,0.4-0.9,0.4
	c-0.3,0-0.5,0-1,0c-1.7,0-12.2-2.2-13.2-2.4c-1-0.2-1.5-0.1-2.3,0.6c-0.8,0.7-1.3,1.8-1.5,1.8c0,0-0.8-0.2-1.4-0.1
	c-0.6,0-3,1.1-5.2,4.7c-2.2,3.6-3.1,8.3-3.1,13.6c0,2.5,0.4,4.3,0.6,5.9c0.2,1.8,0,3.3,0.2,3.3c0.4,0.1,0.6-2.3,1.4-5.3
	c0.8-3,1.4-4.6,1.6-4.7c0.2,0,0.4,0.8,0.3,1.7c-0.1,0.7-0.4,1.9-0.2,1.9c0.3,0.1,1.5-2.9,2-8.7c0.6-5.8,0.2-5.7,0.7-7.4
	c0.5-1.6,1.2-1.8,1.4-1.7c0.1,0.1-0.7,2.2-0.9,3.6c-0.3,1.4-0.1,2.1,0.8,3.8c1,1.7,1.9,2.6,1.9,4.5c0,0.7-0.3,1.8-0.8,2.8
	c-0.9,1.5-2.3,2.9-2.4,3.3c-0.1,0.6,0.4,2.5,0.2,5.4c-0.2,2.9-1,4.1-0.7,4.7c0.3,0.6,0.6,0.6,0.8,0.8c0.2,0.2,0.5,0.4,0.5,0.6
	c0,0.1-0.1,0.1-0.3,0.4c-0.2,0.3-0.3,0.5-0.3,0.5l0,0c-0.3,0-0.5,0-0.8,0.1c-0.4,0-0.8,0.1-1.3,0.1c-0.5,0-1,0-1.4,0
	c-0.3,0-0.7-0.1-1.1,0.1c-0.9,0.4-1.8,0.7-2.7,0.7c-0.5,0-1.1,0-1.6,0.1c-0.2,0-1,0.4-0.9,0c0.1-0.4,0.2-1.2,0.2-1.2
	c-0.1,0-0.5,0.7-0.6,0.7c-0.1,0-0.4-1.5-0.2-2.8c0-0.2,0.3-1,0.2-1c-0.6,0.1-0.7,2.8-0.8,2.9c-0.1,0-0.7-1-0.9-0.9
	c-0.2,0.1,0.3,1,0.4,1.3c0.2,0.6,0.5,1.9-0.4,2.1c-0.6,0.1-4.8,1.2-4.4,2.3C42.7,55.5,44.7,54.9,45.1,54.8z M89.5,42.2
	c0.2-0.8,0.6-1.6,0.8-2.4c0.3-0.8,0.4-1.7,0.6-2.5c0-0.3,0.3-2.2,0.6-2.1c0.2,0.1,0.3,0.9,0.4,1.1c0.1,0.4,0.1,0.8,0.2,1.2
	c0.2,1.6,0.7,3.2,1.3,4.6c0.3,0.7,0.6,1.5,0.8,2.3c0.1,0.4,0.1,0.8,0,1.2c0,0.3-0.2,0.8-0.1,1.1c0.2,0.6,1,0.7,1.2,1.3
	c0.1,0.4,0.2,0.8,0.2,1.2c0,0.2,0.2,0.7-0.2,0.6c-0.7-0.3-1.5-0.1-2.1-0.2c-0.7-0.1-1.4,0.4-2.2,0.4c-0.2,0-0.6,0-0.8-0.1
	c-0.2-0.1-0.2-0.5-0.3-0.7c-0.1-0.4-0.3-0.7-0.5-1c-0.2-0.3-0.2-0.6-0.2-0.9C89.3,45.6,89.1,43.8,89.5,42.2z M70.5,39.1
	c0-0.4,0.1-0.7,0.2-1.1c0.1-0.6,0.2-1.2,0.2-1.8c0-0.2,0.1-0.5,0.2-0.7c0.1-0.3,0.3-0.6,0.4-1c0.3-0.8,0.6-1.3,0.7-2.1
	c0.1-0.3,0.2-0.7,0-1c-0.1-0.2,0-0.3,0.3-0.2c0.3,0,0.5-0.1,0.7-0.3c0.2-0.2,0.4-0.5,0.5-0.7c0-0.1,0.2-0.1,0.2-0.1
	c0.7,0.1,1.3,0.2,2,0.4c2,0.4,5.9,0.8,8.2,0.9c0.4,0,1.1-0.1,1.5,0c0.1,0,0.2,0.1,0.2,0.2c0.2,0.2,0.3,0.4,0.6,0.4
	c0.3,0,0.4,0.1,0.3,0.4c-0.1,0.4-0.3,0.8-0.2,1.2c0,0.2,0.1,0.5,0.1,0.7c0,0.1,0.1,0.1,0.1,0.2c0.1,0.1,0.2,0.2,0.3,0.2
	c0.3,0.1,0.5,0.3,0.5,0.7c0,0.2,0.1,0.3,0.3,0.3c0.1,0,0.2,0.1,0.3,0.2c0.5,0.5,0.6,1.2,0.5,1.9c0,0.1-0.1,0.2-0.2,0.3
	c0,0.3,0,0.6,0,0.8c0,0.2,0,0.5,0,0.7c-0.2,0.7-0.2,1.4-0.2,2c0,0.6,0,1.1-0.1,1.7c0,0.2-0.1,0.4-0.1,0.6c0,0.1-0.2,0.3-0.2,0.4
	c-0.3,0.4-0.8,0.8-0.8,1.4c0,0.3-0.1,0.6-0.2,0.9c-0.1,0.3-0.1,0.6,0.1,0.8c0.1,0.1,0.1,0.2,0,0.3c-0.2,0.2-0.3,0.3-0.3,0.6
	c0,0.5-0.4,0.7-0.9,0.7c-0.3,0-0.6,0.2-0.6,0.5c0,0.2,0,0.5-0.1,0.7c0,0.2-0.2,0.2-0.3,0.1c-0.2-0.1-0.4-0.3-0.6-0.4
	c-0.2-0.1-0.5-0.1-0.7-0.1c-0.1,0-0.3,0-0.4,0c-0.2,0-0.3,0-0.4,0.2c-0.1,0.3-0.2,0.3-0.4,0.2c-0.7-0.1-1.4-0.2-2.1-0.3
	c-0.3,0-0.5-0.2-0.8-0.3c-0.6-0.3-1.3-0.6-1.9-0.9c-0.1-0.1-0.3-0.2-0.4-0.3c-0.1,0-0.3,0-0.4,0c-0.2,0-0.3,0.1-0.5,0.1
	c-0.2,0-0.4,0-0.6,0c-0.3,0-0.5-0.1-0.6-0.3c-0.2-0.3-0.5-0.6-0.7-0.9c-0.2-0.2-0.3-0.5-0.4-0.7c-0.3-0.6-0.7-1.2-1.3-1.6
	c-0.1-0.1-0.1-0.2-0.2-0.3c-0.1-0.4-0.1-0.8-0.5-1.1c-0.1-0.1-0.1-0.3-0.1-0.5c-0.1-0.5-0.3-1-0.5-1.5c-0.2-0.4-0.4-0.7-0.6-1.1
	c-0.1-0.2,0-0.4,0-0.6C70.5,39.7,70.5,39.4,70.5,39.1z M61.1,41.7c0.7-1.9,2.1-3.7,3.5-5.1c0.6-0.6,1.4-1.2,2.1-1.7
	c0.3-0.2,1.5-1.1,1.9-0.7c0.5,0.5,0,1.9-0.1,2.5c-0.2,0.8-0.5,1.5-0.8,2.3c-0.1,0.3-0.4,0.8-0.3,1.2c0.1,0.2,0.4,0.5,0.6,0.7
	c0.5,0.6,0.9,1.2,1.4,1.8c1,1.5,1.6,3.1,2.3,4.7c0.3,0.7,0.4,1.6,0.5,2.3c0,0.2-1.5,0.3-1.7,0.3c-0.4,0.1-0.9,0.2-1.3,0.3
	c-0.4,0.1-0.4,0.1-0.7-0.1c-0.2-0.2-0.5,0.2-0.6,0c-0.3-0.3-0.5-0.2-0.8,0c-0.8,0.4-1.5,0.8-2.4,0.8c-0.4,0-0.8-0.1-1.2-0.1
	c-0.3,0-0.7,0.3-1.1,0.2c-0.3-0.1-0.6-0.6-0.9-0.8c-0.2-0.2-0.5-0.3-0.6-0.6c-0.2-0.3-0.1-0.6-0.2-1c0-0.3-0.1-0.7-0.2-1
	c0,0,0,0,0,0c0,0,0,0,0,0c0,0,0,0,0,0c0,0,0,0,0,0c0,0,0,0,0,0c0-0.1,0-0.4,0,0C60.2,45.6,60.4,43.5,61.1,41.7z"/>
</svg>
