<?xml version="1.0" encoding="utf-8"?>
<!-- Generator: Adobe Illustrator 18.1.1, SVG Export Plug-In . SVG Version: 6.00 Build 0)  -->
<svg version="1.1" id="Layer_1" xmlns="http://www.w3.org/2000/svg" xmlns:xlink="http://www.w3.org/1999/xlink" x="0px" y="0px"
	 viewBox="0 0 156.7 156.7" enable-background="new 0 0 156.7 156.7" xml:space="preserve">
<path fill="#2D2A30" d="M43.9,26.1c0.7,1.2,2.3,1.6,3.5,0.8c0.8-0.5,1.1-1.1,1.3-1.8l-1-0.2c-0.1,0.5-0.3,0.9-0.8,1.2
	c-0.7,0.4-1.6,0.1-2-0.6l0,0c-0.4-0.7-0.3-1.6,0.4-2.1c0.4-0.3,0.9-0.3,1.4-0.2l0.2-1c-0.6-0.1-1.3-0.1-2.1,0.4
	C43.4,23.4,43.1,24.9,43.9,26.1L43.9,26.1z M38.2,29c0.6,0.8,1.3,0.6,2.2,0.2c0.8-0.3,1-0.3,1.2-0.1l0,0c0.2,0.2,0.1,0.5-0.3,0.8
	c-0.4,0.3-1,0.4-1.5,0.4l0,1c0.8,0.1,1.6-0.2,2.2-0.7c0.8-0.6,1.1-1.5,0.5-2.3l0,0c-0.5-0.7-1.2-0.6-2.2-0.2c-0.8,0.3-1,0.4-1.2,0.1
	l0,0c-0.1-0.2-0.1-0.5,0.2-0.7c0.3-0.3,0.8-0.4,1.3-0.4l-0.1-1c-0.6,0-1.3,0.2-1.8,0.6C37.9,27.4,37.7,28.3,38.2,29L38.2,29z
	 M26.2,45.8L26.2,45.8c-0.6-0.3-1.1-0.2-1.5,0.2c0-0.4-0.1-0.8-0.6-1.1l0,0c-0.3-0.2-0.6-0.2-0.9-0.1c-0.4,0.1-0.7,0.4-1,0.9l-1.1,2
	l4.3,2.5l1.2-2C27,47.1,27,46.2,26.2,45.8z M23.8,46.8l-0.5,0.9l-0.9-0.5l0.5-0.9c0.2-0.4,0.5-0.5,0.8-0.4l0,0
	C24,46.1,24,46.4,23.8,46.8z M25.6,47.6L25,48.7l-0.9-0.5l0.6-1.1c0.3-0.5,0.6-0.6,0.9-0.4l0,0C25.9,46.8,25.9,47.1,25.6,47.6z
	 M34,37.8l0.7-0.8l-1.4-1.3l-0.9-3.4l-0.8,0.9l0.6,2.2l-2.3-0.5l-0.9,0.9l3.5,0.7L34,37.8z M115.9,127.5L115.9,127.5
	c-0.3-0.4-0.6-0.6-1-0.7c-0.5-0.1-1,0.1-1.5,0.4l-1.8,1.3l2.9,4l0.9-0.6l-0.9-1.3l0.7-0.5l0,0l1.8,0.7l1-0.7l-2-0.7
	C116.3,128.9,116.4,128.2,115.9,127.5z M114.8,129.3l-0.9,0.6l-0.8-1.2l0.9-0.6c0.4-0.3,0.8-0.3,1.1,0.1l0,0
	C115.3,128.6,115.2,129,114.8,129.3z M122.4,123c-0.9-1-2.5-1.2-3.7-0.1c-1.1,1-1.2,2.6-0.2,3.7l0,0c0.9,1,2.5,1.2,3.7,0.1
	C123.3,125.7,123.3,124.1,122.4,123L122.4,123z M121.5,126c-0.7,0.6-1.6,0.5-2.2-0.1l0,0c-0.6-0.6-0.6-1.6,0.1-2.1
	c0.7-0.6,1.6-0.5,2.2,0.2l0,0C122.1,124.5,122.1,125.4,121.5,126z M26.6,43.1L26.6,43.1c1.1,0.9,2.7,0.7,3.6-0.6
	c0.9-1.2,0.7-2.8-0.5-3.7l0,0c-1.1-0.8-2.7-0.6-3.6,0.6C25.2,40.7,25.5,42.3,26.6,43.1z M26.9,40.1c0.5-0.7,1.5-0.8,2.2-0.3l0,0
	c0.7,0.5,0.9,1.4,0.3,2.1c-0.5,0.7-1.5,0.8-2.2,0.3l0,0C26.6,41.7,26.4,40.8,26.9,40.1z M98.7,20.6l2,0.7l0,1.2l1.1,0.4l-0.3-5.4
	l-0.9-0.3l-3.7,3.9l1,0.4L98.7,20.6z M100.5,18.6l0.1,1.7l-1.2-0.5L100.5,18.6z M113.6,29.6l0.5-0.8l-2.2-1.5l0.6-0.9l1.9,1.3
	L115,27l-1.9-1.3l0.6-0.8l2.2,1.5l0.5-0.8l-3.1-2.1l-2.8,4.1L113.6,29.6z M82.5,18.5c1.5,0.1,2.7-1,2.8-2.4l0,0
	c0.1-1.4-0.9-2.6-2.4-2.7c-1.5-0.1-2.7,1-2.8,2.4l0,0C80,17.2,81,18.4,82.5,18.5z M81.2,15.8c0.1-0.8,0.7-1.5,1.6-1.4
	c0.9,0.1,1.4,0.8,1.4,1.7l0,0c-0.1,0.8-0.7,1.5-1.6,1.4C81.8,17.4,81.2,16.7,81.2,15.8L81.2,15.8z M71.7,16.6c0.8,0.1,1,0.3,1.1,0.5
	l0,0c0,0.3-0.2,0.5-0.7,0.5c-0.6,0.1-1.1-0.1-1.5-0.4L70,18.1c0.6,0.5,1.4,0.7,2.2,0.6c1.1-0.1,1.8-0.7,1.7-1.7l0,0
	c-0.1-0.9-0.7-1.2-1.7-1.3c-0.9-0.1-1.1-0.2-1.1-0.5l0,0c0-0.2,0.2-0.5,0.6-0.5c0.4,0,0.9,0.1,1.3,0.4l0.5-0.9
	c-0.5-0.4-1.2-0.5-1.9-0.4c-1,0.1-1.7,0.8-1.6,1.7l0,0C70,16.3,70.7,16.5,71.7,16.6z M49.8,22.6c0.6,1.3,2.1,1.9,3.5,1.2
	c1.4-0.6,1.9-2.1,1.3-3.4l0,0c-0.6-1.3-2.1-1.9-3.5-1.2C49.7,19.8,49.2,21.3,49.8,22.6L49.8,22.6z M51.5,20.1c0.8-0.4,1.7,0,2,0.8
	l0,0c0.4,0.8,0.1,1.7-0.7,2c-0.8,0.4-1.7,0-2-0.8l0,0C50.5,21.4,50.7,20.5,51.5,20.1z M78.4,9.2c-38.1,0-69.2,31-69.2,69.2
	s31,69.2,69.2,69.2s69.2-31,69.2-69.2S116.5,9.2,78.4,9.2z M78.4,146.4c-37.5,0-68-30.5-68-68s30.5-68,68-68s68,30.5,68,68
	S115.9,146.4,78.4,146.4z M106.2,21.5l0.3,2.5l0,0l2.2-1.2l-1.5,2.9l1,0.5l2.3-4.4l-1-0.5l-2.1,1.3l-0.2-2.5l-1-0.5l-2.3,4.4l1,0.5
	L106.2,21.5z M116.4,31.9l1-1.2l0.6,0.5l0,0l-0.2,1.9l1,0.8l0.2-2.1c0.6,0.2,1.3,0.1,1.8-0.5l0,0c0.3-0.4,0.4-0.7,0.4-1.1
	c0-0.5-0.3-0.9-0.8-1.3l-1.7-1.5l-3.2,3.8L116.4,31.9z M119,28.8l0.8,0.7c0.4,0.3,0.5,0.7,0.2,1.1l0,0c-0.3,0.3-0.7,0.3-1.1,0
	l-0.8-0.7L119,28.8z M64.8,15.7l0.8,3.9l1.1-0.2l-0.8-3.9l1.5-0.3l-0.2-1l-4,0.8l0.2,1L64.8,15.7z M59.9,21.3
	c1.3-0.4,1.8-1.4,1.4-2.8l-0.9-2.7l-1,0.3l0.9,2.7c0.2,0.7,0,1.3-0.7,1.5c-0.6,0.2-1.1-0.1-1.4-0.8l-0.9-2.7l-1,0.3l0.9,2.7
	C57.6,21.2,58.6,21.7,59.9,21.3z M126.1,115.1l1.9,2.9l-3.3-1.3l-0.6,0.7l1.9,3l-3.2-1.4L122,120l4.9,1.9l0.6-0.7l-1.8-2.9l3.2,1.2
	l0.6-0.7l-2.7-4.5L126.1,115.1z M80.6,138.5l-4.1,0.1l0,1l1.5,0l0.1,4l1.1,0l-0.1-4l1.5,0L80.6,138.5z M124.7,40.3
	c0.6,0.7,1.2,0.9,2,1l0.1-1c-0.5-0.1-0.9-0.2-1.3-0.6c-0.5-0.6-0.4-1.6,0.3-2.1l0,0c0.7-0.5,1.6-0.5,2.1,0.1
	c0.3,0.4,0.4,0.8,0.4,1.3l1.1,0c0.1-0.6-0.1-1.3-0.7-2c-1-1.2-2.5-1.2-3.6-0.3l0,0C124,37.6,123.8,39.1,124.7,40.3z M66.2,142.4
	l1.1,0.2l0.3-1.9l2.3,0.4l0.2-1l-2.3-0.4l0.2-1l2.6,0.4l0.2-1l-3.7-0.6L66.2,142.4z M121.4,36.4l3.5-3.5l-0.8-0.8l-3.5,3.5
	L121.4,36.4z M62,136.2c-1.5-0.4-2.8,0.4-3.2,1.8l0,0c-0.4,1.4,0.4,2.7,1.8,3.2c1.5,0.4,2.8-0.4,3.2-1.8l0,0
	C64.2,138,63.5,136.6,62,136.2z M62.8,139.1L62.8,139.1c-0.2,0.8-1,1.3-1.8,1.1c-0.8-0.2-1.3-1.1-1-1.9l0,0c0.2-0.8,1-1.3,1.8-1.1
	C62.6,137.4,63,138.3,62.8,139.1z M91.6,16.7l-2.3-0.4l0.2-1l2.6,0.5l0.2-1l-3.7-0.7L87.7,19l1.1,0.2l0.4-1.9l2.3,0.4L91.6,16.7z
	 M91.7,141.2l-0.2-1l2.3-0.5l-0.2-0.9l-2.3,0.5l-0.2-1l2.6-0.6l-0.2-0.9l-3.6,0.8l1.1,4.8l3.7-0.8l-0.2-1L91.7,141.2z M86,138.1
	l0.2,1.9l-2,0.2l-0.2-1.9l-1.1,0.1l0.5,4.9l1.1-0.1l-0.2-2l2-0.2l0.2,2l1.1-0.1l-0.5-4.9L86,138.1z M127.9,44.3L129,44l1.1,1.8
	l-0.7,1l0.6,1l3-4.5l-0.6-0.8l-5.4,1L127.9,44.3z M131.8,43.5l-1,1.4l-0.7-1.1L131.8,43.5z M101,134.1l-0.1,5.4l1-0.4l0-1.2l1.9-0.8
	l0.8,0.9l1.1-0.4l-3.9-3.8L101,134.1z M103.2,136.4l-1.2,0.5l0-1.7L103.2,136.4z M36.2,123.6c0.3-0.3,0.5-0.7,0.5-1.1
	c0-0.5-0.2-0.9-0.7-1.4l-1.6-1.6l-3.5,3.5l0.8,0.8l1.1-1.1l0.6,0.6l0,0l-0.4,1.9l0.9,0.9l0.4-2.1C34.9,124.2,35.6,124.2,36.2,123.6
	L36.2,123.6z M35.4,122.9L35.4,122.9c-0.3,0.3-0.7,0.3-1.1-0.1l-0.8-0.8l1-1l0.8,0.8C35.6,122.1,35.7,122.5,35.4,122.9z M42.2,132.6
	l3.2,2l0.5-0.8l-2.3-1.4l0.6-0.9l2,1.2l0.5-0.8l-2-1.2l0.5-0.8l2.2,1.4l0.5-0.8l-3.2-2L42.2,132.6z M78.4,4.9
	c-40.5,0-73.5,33-73.5,73.5s33,73.5,73.5,73.5c40.5,0,73.5-33,73.5-73.5S118.9,4.9,78.4,4.9z M78.4,149.5
	c-39.2,0-71.1-31.9-71.1-71.1c0-39.2,31.9-71.1,71.1-71.1s71.1,31.9,71.1,71.1C149.5,117.6,117.6,149.5,78.4,149.5z M31.2,115.6
	c-0.9-1.2-2.5-1.3-3.6-0.5l0,0c-1.1,0.9-1.3,2.4-0.4,3.6c0.9,1.2,2.5,1.3,3.6,0.5l0,0C31.9,118.3,32.1,116.8,31.2,115.6z
	 M30.1,118.3L30.1,118.3c-0.7,0.5-1.6,0.5-2.1-0.2c-0.5-0.7-0.4-1.6,0.3-2.1l0,0c0.7-0.5,1.6-0.5,2.1,0.2
	C30.9,116.9,30.7,117.8,30.1,118.3z M110.3,131.4L110.3,131.4c-0.2-0.4-0.6-0.7-0.9-0.8c-0.4-0.1-1,0-1.5,0.3l-2,1.1l2.4,4.3l1-0.5
	l-0.8-1.4l0.7-0.4l0,0l1.7,0.9l1.1-0.6l-1.9-1C110.6,132.7,110.7,132.1,110.3,131.4z M109,133l-1,0.5l-0.7-1.2l0.9-0.5
	c0.5-0.3,0.9-0.2,1.1,0.2l0,0C109.6,132.3,109.4,132.7,109,133z M40.7,125.3l-1.5-1.2l-3.1,3.9l1.5,1.2c1.2,1,2.7,0.8,3.6-0.3l0,0
	C42.1,127.8,41.9,126.3,40.7,125.3z M40.3,128.2L40.3,128.2c-0.6,0.7-1.4,0.8-2.1,0.2l-0.7-0.5l1.9-2.3l0.7,0.5
	C40.8,126.6,40.9,127.5,40.3,128.2z M52.2,132.6l-2-1L48,136l1,0.5l0.7-1.4l0.8,0.4l0,0l0.3,1.9l1.1,0.6l-0.3-2.1
	c0.7,0.1,1.3-0.2,1.6-0.9l0,0c0.2-0.4,0.2-0.8,0.1-1.2C53.1,133.2,52.8,132.9,52.2,132.6z M52.2,134.4L52.2,134.4
	c-0.2,0.4-0.6,0.5-1.1,0.3l-1-0.5l0.6-1.3l1,0.5C52.2,133.7,52.4,134,52.2,134.4z M47.1,92c0.3-0.5,0.5-1,0.5-1.6v-4.6
	c0-0.4-0.1-0.8-0.2-1.1c-0.2-0.3-0.4-0.6-0.6-0.9c-0.3-0.3-0.6-0.5-0.9-0.6c-0.3-0.1-0.7-0.2-1.1-0.2h-6.6v15.3h3.3v-5.1h0.9
	l1.8,5.1h3.5L45.8,93C46.3,92.8,46.7,92.4,47.1,92z M44.2,89.9h-2.8v-3.7h2.8V89.9z M62.9,95h-6.1v-3h4.5v-3.3h-4.5v-2.5h6.1v-3.3
	h-9.4v15.3h9.4V95z M77.9,96.2v-6.4h-4.7v3.3h1.4V95h-2.8v-8.8h2.8v2.3h3.3V85c0-0.6-0.2-1.1-0.6-1.5c-0.4-0.4-0.9-0.6-1.5-0.6h-5.2
	c-0.6,0-1.1,0.2-1.5,0.6c-0.4,0.4-0.6,0.9-0.6,1.5v11.1c0,0.6,0.2,1.1,0.6,1.5c0.4,0.4,0.9,0.6,1.5,0.6h5.2c0.6,0,1.1-0.2,1.5-0.6
	C77.7,97.2,77.9,96.8,77.9,96.2z M83.9,98.3h3.3V82.9h-3.3V98.3z M102.3,96.6c0.1-0.3,0.2-0.7,0.2-1.1v-9.7c0-0.4-0.1-0.8-0.2-1.1
	c-0.2-0.3-0.4-0.6-0.6-0.9c-0.3-0.3-0.6-0.5-0.9-0.6c-0.3-0.1-0.7-0.2-1.1-0.2h-3.8c-0.4,0-0.8,0.1-1.1,0.2
	c-0.3,0.2-0.6,0.4-0.9,0.6c-0.2,0.3-0.4,0.6-0.6,0.9c-0.2,0.3-0.2,0.7-0.2,1.1v9.7c0,0.8,0.3,1.5,0.8,2c0.5,0.5,1.2,0.8,2,0.8h3.8
	c0.4,0,0.8-0.1,1.1-0.2c0.3-0.1,0.6-0.3,0.9-0.6C101.9,97.2,102.1,96.9,102.3,96.6z M99.2,95h-2.8v-8.8h2.8V95z M111.7,90.5l3,7.8
	h3.9V82.9h-3.3v7.7l-2.9-7.7h-3.9v15.3h3.3L111.7,90.5z M31.8,79.4c0,0,1.2-9.1,1.2-9.1c0.1,0.7,1.2,9.1,1.2,9.1h3.9L40.5,64h-3.4
	L36,73.2L34.7,64h-3.3L30,73.2L29,64h-3.4l2.3,15.4H31.8z M55.3,67.3V64h-9.4v15.4h9.4v-3.3h-6.1v-3h4.5v-3.3h-4.5v-2.5H55.3z
	 M60.9,69.9c0,0.3,0.1,0.6,0.2,0.9c0.1,0.3,0.3,0.5,0.6,0.7l5.3,2.7v1.9h-2.8v-2.3h-3.3v3.4c0,0.6,0.2,1.1,0.6,1.5
	c0.4,0.4,0.9,0.6,1.5,0.6h5.2c0.6,0,1.1-0.2,1.5-0.6c0.4-0.4,0.6-0.9,0.6-1.5v-3.8c0-0.3-0.1-0.7-0.2-0.9c-0.1-0.3-0.3-0.5-0.6-0.7
	l-5.3-2.7v-1.9H67v2.3h3.3v-3.4c0-0.6-0.2-1.1-0.6-1.5c-0.4-0.4-0.9-0.6-1.5-0.6H63c-0.6,0-1.1,0.2-1.5,0.6
	c-0.4,0.4-0.6,0.9-0.6,1.5V69.9z M78.8,79.4h3.3V67.3h3.1V64h-9.4v3.3h3V79.4z M100,67.3V64h-9.4v15.4h9.4v-3.3h-6.1v-3h4.5v-3.3
	h-4.5v-2.5H100z M114.5,73.1c0.3-0.5,0.5-1,0.5-1.6v-4.6c0-0.4-0.1-0.8-0.2-1.1c-0.2-0.3-0.4-0.6-0.6-0.9c-0.3-0.3-0.6-0.5-0.9-0.6
	c-0.3-0.1-0.7-0.2-1.1-0.2h-6.6v15.4h3.3v-5.1h0.9l1.8,5.1h3.5l-1.9-5.3C113.8,73.9,114.2,73.6,114.5,73.1z M111.7,71h-2.8v-3.7h2.8
	V71z M127.8,71.7l-2.9-7.7H121v15.4h3.3l0-7.8l3,7.8h3.9V64h-3.3V71.7z M62,114.4h-2.5V113h1.8v-1.4h-1.8v-1.4H62V109h-3.9v6.7H62
	V114.4z M67.4,115.5c0.2-0.2,0.3-0.4,0.3-0.6v-1.8c0-0.1,0-0.3-0.1-0.4c0-0.1-0.1-0.2-0.3-0.3l-2.2-1.1v-1h1.2v0.9h1.4v-1.4
	c0-0.2-0.1-0.4-0.3-0.6c-0.2-0.2-0.4-0.3-0.6-0.3h-2.1c-0.2,0-0.4,0.1-0.6,0.3c-0.2,0.2-0.3,0.4-0.3,0.6v1.7c0,0.1,0,0.3,0.1,0.4
	c0,0.1,0.1,0.2,0.3,0.3l2.2,1.1v1h-1.2v-0.9h-1.4v1.4c0,0.2,0.1,0.4,0.3,0.6c0.2,0.2,0.4,0.3,0.6,0.3h2.1
	C67,115.7,67.2,115.7,67.4,115.5z M69.3,110.3h1.3v5.4h1.4v-5.4h1.3V109h-3.9V110.3z M78.6,115.7h1.4V109h-1.4V115.7z M85.4,115.5
	c0.2-0.2,0.3-0.4,0.3-0.6v-5c0-0.2-0.1-0.4-0.3-0.6c-0.2-0.2-0.4-0.3-0.6-0.3h-2.1c-0.2,0-0.4,0.1-0.6,0.3s-0.3,0.4-0.3,0.6v2.3
	c0,0.2,0.1,0.4,0.3,0.6c0.2,0.2,0.4,0.3,0.6,0.3h1.6v1.3h-1.2v-0.9h-1.4v1.4c0,0.2,0.1,0.4,0.3,0.6c0.2,0.2,0.4,0.3,0.6,0.3h2.1
	C85,115.7,85.2,115.7,85.4,115.5z M84.3,111.7h-1.2v-1.4h1.2V111.7z M87.5,115.7h1.4V109h-1.4V115.7z M90.7,112.5h2.5v1.9h-1.2v-0.9
	h-1.4v1.4c0,0.2,0.1,0.4,0.3,0.6c0.2,0.2,0.4,0.3,0.6,0.3h2.1c0.2,0,0.4-0.1,0.6-0.3c0.2-0.2,0.3-0.4,0.3-0.6V112
	c0-0.2-0.1-0.4-0.3-0.6c-0.2-0.2-0.4-0.3-0.6-0.3h-1.6v-0.8h2.5V109h-3.9V112.5z"/>
</svg>
