<?xml version="1.0" encoding="utf-8"?>
<!-- Generator: Adobe Illustrator 18.1.1, SVG Export Plug-In . SVG Version: 6.00 Build 0)  -->
<svg version="1.1" id="Layer_1" xmlns="http://www.w3.org/2000/svg" xmlns:xlink="http://www.w3.org/1999/xlink" x="0px" y="0px"
	 viewBox="0 0 154.6 154.6" enable-background="new 0 0 154.6 154.6" xml:space="preserve">
<path fill="#2D2A30" d="M72.5,111c0.3-0.1,0.2-0.4,0.3-0.6c0-0.1,0.2-0.4,0-0.5c-0.2,0.1-0.2-0.2-0.3-0.3c-0.3-0.1-0.5-0.2-0.7-0.4
	c-0.2,0.1-0.4,0.2-0.5,0.1c-0.2,0.1-0.5,0.2-0.5,0.5c0.3,0.2-0.3,0.4,0.1,0.5c-0.1,0.2,0.2,0.3,0.1,0.5c0,0.1,0.2,0.1,0.3,0.1
	c0.2,0.1,0.5,0,0.7,0.1C72.1,110.8,72.3,111,72.5,111z M70.7,113.9c0-0.3-0.3-0.4-0.4-0.5c-0.2,0.2-0.4-0.1-0.6,0.1
	c-0.1,0.2-0.1,0.4,0,0.5h-0.1c-0.1,0.3-0.2,0.5-0.1,0.8c0.1,0.3,0.4,0.2,0.7,0.3c0.3,0.2,0.6,0.3,0.8,0.1c0.4-0.1,0.2-0.4,0.3-0.7
	C71.1,114.3,71,114,70.7,113.9z M69.6,117.6c0.2-0.3,0-0.5-0.2-0.8c-0.1,0-0.2-0.1-0.4,0c-0.2-0.1-0.3,0.3-0.5,0.4
	c0,0.2,0.1,0.4-0.1,0.5l0.1,0.1c0.2,0.2,0.3,0.4,0.5,0.6c0.2,0.1,0.3-0.1,0.4-0.1C69.5,118,70.1,117.7,69.6,117.6z M73.4,122.6
	c-0.1-0.1-0.3-0.1-0.3-0.2c-0.3,0.1-0.1-0.3-0.4-0.4c0-0.4-0.1-0.7-0.3-1c-0.2-0.1-0.4-0.1-0.5,0c-0.2,0.1-0.2,0.4-0.2,0.6
	c0.1,0.1-0.1,0.3,0.1,0.4c0.1,0.2,0.2,0.4,0.1,0.5c0.3,0,0.2,0.3,0.4,0.4c-0.1,0.4,0.2,0.6,0.5,0.9c0.3,0.1,0.5-0.1,0.7,0
	c0.3-0.1,0.2-0.5,0.3-0.7C73.8,122.9,73.6,122.8,73.4,122.6z M74.8,119.9c0-0.1-0.1-0.2-0.2-0.2c-0.1-0.3-0.4,0-0.6,0
	c0,0.2-0.3,0.2-0.2,0.3c-0.2,0.2,0.1,0.4,0.1,0.6c0,0.4,0.4,0.3,0.7,0.4c0.3-0.1,0.1-0.5,0.2-0.7c0.1-0.1,0.1-0.2,0-0.2
	C74.7,120.1,74.8,120,74.8,119.9z M76.4,113.7c0.2-0.2,0.2-0.4,0.1-0.6c0-0.1,0.1-0.1,0-0.1c-0.3-0.1,0-0.5-0.3-0.6
	c0.1-0.2-0.1-0.4-0.2-0.5c0.1-0.1,0.1-0.2,0-0.3c-0.2,0-0.1-0.3-0.3-0.3c-0.1,0.1-0.3,0.1-0.3,0.2c-0.1,0-0.1,0-0.1,0.1
	c0,0.2-0.3,0.2-0.3,0.4c0.2,0.2,0,0.4,0.1,0.7c0.3-0.1,0.2,0.3,0.4,0.3c0.2,0.1,0.3,0.4,0.3,0.6c0.1,0.1,0.2,0.1,0.2,0.3
	c0,0.3,0.2,0.1,0.4,0.2C76.4,114,76.4,113.8,76.4,113.7z M67.6,111.4c0-0.2-0.2-0.5-0.4-0.7c-0.3-0.2-1,0-0.7,0.5
	c0.2,0.2,0.1,0.4,0.1,0.6c0,0.1,0,0.3,0.2,0.3c0.1,0.3,0.4,0.2,0.6,0.4c0.2,0,0.4,0.1,0.7,0.1l0.4-0.3c0-0.1,0.1-0.3,0.2-0.4
	C68.3,111.5,67.9,111.7,67.6,111.4z M76.3,109.3c-0.2-0.1,0-0.3-0.1-0.4c-0.2,0.2-0.2-0.1-0.4,0c-0.6-0.2-1.1-0.6-1.8-0.6l-0.4,0.4
	c0,0.2,0.1,0.3,0.1,0.5c0.4,0.1,0.5,0.6,0.8,0.6c0.5,0.4,1.2,0.1,1.7-0.1C76.3,109.6,76.4,109.4,76.3,109.3z M77.5,118.8
	c0.3,0,0.6,0.1,0.9-0.1c-0.1-0.3,0.3-0.5,0.4-0.8c0.1-0.2,0-0.3-0.1-0.5l-0.4,0.1c-0.4-0.1-0.4,0.4-0.8,0.4
	c-0.1,0.1-0.3,0.3-0.3,0.4C77,118.7,77.5,118.6,77.5,118.8z M79.7,112.5c-0.3-0.1-0.4,0.3-0.6,0.4c0,0.3,0.4,0.3,0.4,0.6
	c0.4,0.1-0.1,0.4,0.1,0.6c0,0.2-0.1,0.3-0.3,0.4c-0.1,0.4-0.5,0.6-0.6,1c0,0.2,0.1,0.3,0.2,0.4c0.2,0.1,0.4-0.1,0.6-0.1
	c0.2-0.2,0.5-0.3,0.6-0.6c0.3,0,0.4-0.4,0.5-0.5c-0.1-0.2,0.1-0.4-0.1-0.5c0-0.1,0-0.2,0.1-0.3c-0.1-0.1-0.1-0.4-0.2-0.5
	c-0.1-0.2-0.2-0.5-0.4-0.5C80.1,112.7,79.8,112.7,79.7,112.5z M78.8,120.4c0.3-0.2,0.5-0.5,0.7-0.7c0-0.1-0.1-0.3-0.2-0.4
	c-0.1,0-0.2,0-0.2-0.1c-0.1-0.1-0.3,0-0.3,0.1c0.1,0.1,0,0.2-0.1,0.3c0.1,0.2-0.1,0.4-0.1,0.6C78.5,120.4,78.7,120.4,78.8,120.4z
	 M79.5,111.1c0.2-0.1,0.2-0.3,0.4-0.3c0.2-0.2,0-0.3,0-0.5c-0.1-0.4-0.5-0.1-0.7-0.3c-0.3,0.1-0.8-0.1-1,0.3l0,0
	c-0.2,0.3-0.1,0.6,0,1C78.5,111.8,79,111.1,79.5,111.1z M79.9,117.5c-0.1-0.3-0.3,0-0.5,0c-0.1,0.1,0,0.4,0.1,0.6
	c0.2,0.1,0.3,0.4,0.4,0.7c0.2,0,0.2,0.2,0.2,0.3l0.2-0.1c0-0.4,0.3-0.4,0.5-0.7c0.1-0.2,0.1-0.5,0-0.7
	C80.6,117.7,80.3,117.3,79.9,117.5z M68.2,108.6c-0.2,0.3,0.3,0.5,0.1,0.8c0.2,0.2,0.2,0.5,0.4,0.6c0.1,0.1,0.2,0,0.2,0
	c0.1-0.4,0.6-0.5,0.8-0.9c0.1-0.2-0.2-0.3-0.1-0.5c0-0.1-0.1-0.2-0.2-0.2c-0.3,0.1-0.3-0.2-0.6-0.2c-0.2,0.3-0.5,0.1-0.7,0.3
	C68.1,108.5,68.1,108.6,68.2,108.6L68.2,108.6z M80.9,127.3c0.2,0.1,0.4,0.1,0.6-0.1c0.1-0.1,0-0.3,0-0.5c-0.1-0.2-0.3-0.4-0.5-0.5
	c-0.3-0.1-0.7,0.1-0.6,0.4C80.4,126.9,80.6,127.2,80.9,127.3z M70,107.5c0.1,0.1,0.3-0.1,0.3,0.1c0.1,0.1,0.2-0.1,0.3,0l0,0.1
	l0.4-0.2c0-0.1,0.2-0.2,0-0.3c-0.1-0.2-0.1-0.4-0.3-0.3l0-0.1c-0.1-0.1-0.3-0.1-0.4-0.2c-0.1,0.1-0.3,0-0.4,0.1
	c-0.1,0.1-0.3,0.1-0.4,0c-0.2,0,0,0.2-0.2,0.2c-0.1,0.3,0.2,0.4,0.4,0.6C69.8,107.5,69.9,107.6,70,107.5z M72.2,115.6
	c-0.3,0.3,0,0.7-0.2,1c0.1,0.3,0.4,0.5,0.5,0.7c0.2,0.3,0.5,0.2,0.6,0.4c0.2,0.1,0.4,0,0.5-0.1c0.2-0.1,0.3-0.3,0.3-0.5
	c-0.2-0.2-0.2-0.5-0.5-0.7c0.1-0.3-0.3-0.5-0.2-0.8c0.1-0.4-0.4-0.3-0.6-0.5L72.2,115.6z M77,117.2c-0.1-0.2-0.2-0.3-0.4-0.4
	c-0.2,0-0.3,0.1-0.4,0.2c0,0.1-0.1,0.2-0.1,0.3c0.1,0.2,0.2,0.3,0.4,0.4C76.7,117.6,76.9,117.3,77,117.2z M77.1,120.3
	c0-0.3,0.3-0.4,0.2-0.7c0.2-0.2-0.1-0.4-0.2-0.5c-0.2,0-0.5-0.1-0.7,0.1c-0.1,0.1,0,0.2,0.1,0.3c-0.2,0.2,0,0.5,0.1,0.7
	C76.8,120.3,76.9,120.4,77.1,120.3z M64,78.5c-0.5-0.8-1-1.5-1.6-2.2c-0.2-0.2-0.6-0.5-0.7-0.8c-0.2-0.4,0.2-1,0.3-1.4
	c0.4-0.9,0.8-1.8,1-2.7c0.1-0.7,0.7-2.4,0.1-2.9c-0.4-0.5-1.8,0.5-2.2,0.8c-0.9,0.6-1.8,1.3-2.5,2.1c-1.7,1.7-3.3,3.8-4.2,6.1
	c-0.8,2.3-1,4.7-0.7,7.1c0,0,0,0,0,0c0,0,0,0,0,0c0,0,0,0,0,0c0,0.4,0.1,0.8,0.2,1.2c0.1,0.4,0,0.8,0.2,1.1c0.2,0.3,0.5,0.5,0.7,0.7
	c0.3,0.2,0.7,0.8,1,0.9c0.4,0.1,0.9-0.2,1.3-0.2c0.5,0,0.9,0.1,1.4,0.1c1.1,0,1.9-0.5,2.8-1c0.4-0.2,0.7-0.3,1,0
	c0.2,0.2,0.4-0.2,0.7,0c0.4,0.3,0.4,0.3,0.9,0.2c0.5-0.2,1-0.3,1.5-0.4c0.3,0,2.1-0.1,2.1-0.4c0-0.9-0.2-1.9-0.6-2.8
	C66,82.2,65.1,80.3,64,78.5z M53.5,84.6C53.5,84.6,53.5,84.6,53.5,84.6C53.4,84.2,53.5,84.4,53.5,84.6z M95.1,85.1
	c-0.3-0.7-1.3-0.9-1.5-1.6c-0.1-0.4,0.1-0.9,0.2-1.3c0-0.5,0-0.9-0.1-1.4c-0.2-1-0.6-1.8-0.9-2.7c-0.7-1.8-1.3-3.6-1.6-5.5
	c-0.1-0.5-0.1-1-0.2-1.4c0-0.2-0.2-1.2-0.4-1.3c-0.4-0.2-0.7,2.2-0.7,2.5c-0.2,1-0.4,2-0.7,3c-0.3,1-0.7,1.9-1,2.9
	c-0.5,1.9-0.3,4-0.2,6c0-0.5,0,0.4,0,0c0,0.4,0,0.7,0.2,1c0.3,0.3,0.4,0.8,0.6,1.2c0.1,0.2,0.1,0.7,0.3,0.8c0.2,0.2,0.7,0.1,0.9,0.1
	c0.9,0,1.7-0.5,2.6-0.4c0.8,0.1,1.8-0.1,2.6,0.3c0.4,0.2,0.2-0.5,0.2-0.7C95.3,86,95.3,85.5,95.1,85.1z M77.3,3.8
	C36.7,3.8,3.8,36.7,3.8,77.3c0,40.6,32.9,73.5,73.5,73.5s73.5-32.9,73.5-73.5C150.8,36.7,117.9,3.8,77.3,3.8z M51.6,116.9
	c-0.7,0-22.2-0.6-22.2-1.3c0-0.7,21.5-1.3,22.2-1.3c0.7,0,1.3,0.6,1.3,1.3C52.9,116.3,52.4,116.9,51.6,116.9z M83.5,127.7
	c-0.8,0.9-1.9,1.1-2.9,0.9c-0.7-0.2-1.3-0.9-1.5-1.5c-0.2-0.6,0-1.4,0.4-1.9c0.1-0.5-0.4-0.7-0.6-1.1c-0.3,0.2-0.5,0.5-0.8,0.3
	c-0.1-0.1-0.2-0.2-0.3-0.3c-0.1-0.4,0.4-0.6,0.6-0.9c-0.1,0-0.4,0.1-0.6,0c-0.2-0.1-0.3-0.3-0.3-0.5c0-0.2,0.1-0.4-0.1-0.4
	c-0.1,0.1-0.2-0.1-0.2-0.1c-0.3,0-0.8-0.2-0.9,0.2c-0.1,0.2,0,0.4,0,0.6c0.1,0.3,0.2,0.5,0.2,0.8c-0.2,0.5-0.3,1.2-0.8,1.6
	c-0.5,0.2-1,0.3-1.4,0.6c-0.3,0.1-0.5,0.5-0.8,0.5c-0.2,0.1-0.3,0.2-0.5,0.1c-0.2-0.3-0.7-0.3-0.8-0.7c-0.2-0.1-0.3-0.2-0.4-0.4
	c0-0.2-0.2-0.3-0.2-0.5c-0.1-0.2-0.3-0.3-0.2-0.5c0-0.5-0.7-0.7-0.7-1.2c-0.2-0.1,0-0.3-0.1-0.4c-0.1-0.2-0.4-0.4-0.4-0.7
	c-0.1-0.1-0.3-0.3-0.3-0.4c0.1-0.1,0-0.3,0-0.4c-0.4,0-0.3-0.5-0.6-0.7c0-0.2-0.2-0.2-0.2-0.3c-0.1-0.6-0.8-0.9-0.6-1.5
	c-0.1-0.5,0.1-1.1-0.4-1.4c-0.4-0.3-0.7-0.7-0.9-1.1c-0.2-0.1-0.2-0.3-0.2-0.4c-0.2-0.1,0.1-0.2-0.1-0.4c-0.3-0.1-0.1-0.6-0.2-0.8
	c0-0.4,0.1-0.7-0.2-1c0-0.4-0.6-0.4-0.6-0.9c0-0.3,0.1-0.7-0.2-1c0.2-0.4-0.1-0.7-0.1-1.1c-0.2-0.1-0.2-0.4-0.4-0.5
	c-0.1-0.1,0-0.5-0.3-0.5c-0.1-0.2-0.1-0.4-0.3-0.6c-0.1-0.2,0.2-0.6-0.1-0.7c0-0.2-0.1-0.3-0.2-0.5c-0.2-0.3-0.2-0.7-0.5-0.9
	c-0.2-0.3,0.1-0.7-0.2-1c-0.2-0.3,0.1-0.7-0.2-1c0-0.5,0.1-1-0.1-1.5c0-0.1,0.1-0.2,0.2-0.2c0.1,0,0.2,0.1,0.3,0
	c0.4-0.3,0.7,0.2,1.2,0c0.2,0,0.3,0.2,0.5,0.2c0.2,0.1,0.4,0.2,0.5,0.3c0.5,0.1,0.9-0.3,1.3-0.1c0.3,0.1,0.6,0.3,0.9,0.5
	c0.1,0.2,0.4,0.1,0.5,0.3c0.2,0.2,0.4,0.3,0.7,0.5c0.3,0,0.7-0.1,0.9,0c0.1,0,0.2,0,0.2,0.1c0.3,0.1,0.5,0,0.7,0.2
	c0.3,0.1,0.4,0.4,0.7,0.5c0.4,0.1,1.1,0.5,1.5,0.1c0.3-0.1,0.6,0,0.9,0c0.1,0.1,0.2,0.1,0.4,0.1c0.5,0.4,0.7,0.9,1.2,1.1
	c0.3,0.5,0.9,0.3,1.3,0.4c0.4,0.1,0.8,0.4,1.3,0.4c0.3,0.3,0.7,0,1,0.2c0.5,0,0.6,0.5,0.9,0.7c0.1,0.4,0.6,0,0.6,0.4
	c0.4,0.3,0.9,0.5,1.2,0.8c0.2,0,0.4,0.3,0.7,0.3c0.2,0.2,0.3,0.3,0.3,0.5c0.2,0.2,0.5,0,0.6,0.2c0.5-0.1,1,0.2,1.4,0.3
	c0.2,0.4,1.1,0.8,0.5,1.3c-0.2,0.3,0,0.5-0.2,0.8c-0.2,0.1-0.3,0.4-0.3,0.6c-0.2,0.1,0,0.3,0,0.4c-0.1,0.3-0.6,0.4-0.5,0.8
	c0.2,0.2-0.3,0.3,0,0.5c-0.1,0.2-0.3,0.5-0.5,0.6c-0.7,0.3-1.5,0.3-2.2,0.4c-0.3,0.1-0.4,0.3-0.5,0.6c0.2,0.3,0.6,0.3,0.9,0.2
	c0.2,0.1,0.4,0.2,0.5,0.4c0.1,0.2,0.1,0.4,0,0.5c0.3-0.2,0.6-0.6,1-0.5c0.2,0.1,0.2,0.3,0.2,0.4c0,0.2-0.1,0.4-0.3,0.5
	c0.3,0.3,0.7,0.9,1.2,0.6c0.5-0.4,1.2-0.5,1.8-0.3c0.6,0.3,1.4,0.9,1.5,1.6c0.1,0.4,0,0.8,0,1.2c-0.2,0.6-0.4,1.2-1,1.6l-4.1-4.1
	l-3.5,3.6L83.5,127.7C83.5,127.6,83.5,127.7,83.5,127.7z M87.2,130.4l-6.9-6.9l2.6-2.7l6.9,6.9L87.2,130.4z M72.6,89.8
	c-6.9,0.1-13.8,0.7-20.7,1.1c-3.7,0.3-7.3,0.7-10.9,1.4c-1.9,0.3-3.9,0.5-5.8,0.9c-0.4,0.1-2.9,0.8-3.1,0.1
	c-0.4-1.3,4.6-2.6,5.3-2.7c1.2-0.2,0.7-1.7,0.5-2.5c-0.1-0.4-0.6-1.4-0.4-1.5c0.2-0.1,0.9,1.1,1,1.1c0.1,0,0.3-3.3,1-3.4
	c0.1,0-0.2,1-0.2,1.2c-0.2,1.5,0.1,3.4,0.2,3.4c0.1,0,0.5-0.9,0.7-0.8c0.1,0-0.1,1-0.2,1.4c-0.1,0.5,0.9,0.1,1.1,0
	c0.6-0.1,1.3-0.1,1.9-0.1c1.2-0.1,2.2-0.5,3.3-0.9c0.4-0.2,0.8-0.1,1.3-0.1c0.5-0.1,1.1,0,1.7-0.1c0.5,0,1-0.1,1.5-0.1
	c0.3,0,0.6,0,0.9-0.1l0.1,0c0,0,0.1-0.2,0.3-0.6c0.2-0.4,0.4-0.4,0.4-0.5c0-0.2-0.3-0.5-0.5-0.7c-0.2-0.2-0.6-0.3-1-1
	c-0.4-0.7,0.6-2.1,0.9-5.6c0.3-3.5-0.3-5.8-0.2-6.5c0.1-0.4,1.8-2.1,2.9-3.9c0.7-1.2,1-2.5,1-3.4c0.1-2.2-1.1-3.3-2.3-5.3
	c-1.2-2.1-1.3-2.8-1-4.6c0.3-1.7,1.3-4.1,1.1-4.3c-0.1-0.1-1,0.1-1.6,2c-0.6,1.9-0.2,1.9-0.9,8.8c-0.7,6.9-2,10.5-2.4,10.4
	c-0.2-0.1,0.2-1.4,0.3-2.3c0.1-1.1-0.1-2.1-0.4-2.1c-0.2,0.1-0.9,2-1.9,5.6c-1,3.6-1.2,6.4-1.6,6.3c-0.2,0,0-1.8-0.2-4
	c-0.2-1.9-0.7-4.1-0.7-7c0.1-6.3,1-11.9,3.7-16.3c2.7-4.3,5.5-5.6,6.2-5.7c0.7,0,1.6,0.1,1.6,0.1c0.3,0,0.9-1.3,1.8-2.2
	c1-0.8,1.6-1,2.8-0.7c1.2,0.2,13.7,2.8,15.7,2.8c0.7,0,0.9,0,1.2,0c0,0,0.6-0.1,1.1-0.5c0.5-0.4,0.8-0.7,1-0.6
	c0.2,0.1,0.3,0.7,0.1,1.4c-0.1,0.7-0.5,1.3-0.4,1.4c0.1,0.1,0.9-0.7,1.5-1.8c0.6-1.2,1.2-1.6,1.4-1.5c0.2,0.1-0.5,1.6-0.2,2.8
	c0.3,1.2,1.5,2.8,1.7,2.6c0.2-0.1-0.7-2.2,0-4.6c0.7-2.4,2-3.5,3.1-4.4c1.1-0.9,1.6-1.3,1.8-1.2c0.2,0.1-0.7,1.3-0.4,2.7
	c0.3,1.5,0.9,1.8,0.5,4c-0.4,2.2-2.1,4.6-2,4.8c0.1,0.1,2-0.5,3.5-3.4c1.5-2.9,1.1-4.6,1.2-4.7c0.1-0.1,0.5,0.1,0.7,0.4
	c0.3,0.3,0.3,0.9,0.5,0.8c0.3-0.1-0.5-1.9-0.3-3.9c0.3-2,1.5-3.5,2.2-4.2c0.7-0.7,1.1-1,1.3-0.9c0.1,0.1-0.2,0.7-0.3,1.1
	c0,0.4,0.3,1.6,0.3,2.6c0,0.9-0.4,1.8-0.2,1.9c0.1,0.1,0.4-0.4,1-1.7c0.5-1.3,0.6-2.2,1.4-4.1c0.8-1.9,1.6-2.8,1.8-2.6
	c0.2,0.1,0.2,0.9,0.3,1c0.2,0.1,0.3-0.8,0.6-1.4c0.3-0.6,1.6-1.2,2.5-1.4c0.8-0.3,1.5-1.9,1.8-2c0.3-0.1,0.1,1.2,0.3,1.3
	c0.2,0.1,1.4-0.6,1.5-0.4c0.1,0.2-0.7,0.9-0.9,2c-0.2,1.1-0.5,1.7,1.1,2.6c1.6,0.9,2,1.1,2.1,1.2c0,0.2,0,0.4,0.1,0.5
	c0.1,0.2,3.9,4.1,4.6,4.8c0.8,0.7,1.9,1.7,1.4,2.9c-0.5,1.2-0.9,1.5-1.3,1.6c-0.5,0.1-0.6-0.3-2.1-0.7c-1.5-0.3-1.7-0.1-3.2-0.5
	c-1.4-0.3-2.4-1.2-2.8-1.2c-0.4,0-1.9,0.1-2.8,0.8c-0.3,0.2-1.7,2-3,5.3c-1.3,3.3-0.7,5.6-0.8,6.6c-0.1,1-0.5,2.1-2,4.8
	c-1.5,2.7-2.9,3.6-3.1,5c-0.2,1.4-0.1,2.3,0.3,4.4c0.3,2.1,0.9,3.9,0.9,4.7c0.1,0.4,0.2,3.1,0.4,3.9c0.2,0.6,0.2,1.2,0.4,1.8
	c0.2,0.9,0.5,1.8,0.8,2.7c0.1,0.2,0.4,0.4,0.6,0.5c0.3,0.3,0.6,0.5,0.9,0.8c0.6,0.5,1,1.2,1.1,2c0,0.2,0,0.3,0.1,0.5
	c0,0,0.1,0.1,0.1,0.1c2.4,0.5,4.7,0.8,7.1,1.3c0.3,0.1,0.5,0.2,0.6-0.3c0.1-0.5,0.1-1.2-0.1-1.7c-0.1-0.4-0.4-1-0.2-1.2
	c0.2-0.2,0.7,1.9,0.8,1.8c0.2-0.1,0.6-1.8,0.8-2.2c0.2-0.5,0.4-0.6,0.3,0c-0.2,1-0.8,2.5-0.3,3.5c0.4,0.9,1.9,0.7,2.7,0.7
	c0.7,0,0.7-1.6,0.8-1.5c0.2,0.1,0.2,1.3,0.1,1.5c-0.1,0.7,2.8,1.3,3.3,1.4c0.4,0.1,1.8,0.6,1.6,1.2c-0.2,0.7-2.5,0.3-3,0.3
	c-1.2-0.2-2.4-0.4-3.6-0.8c0-0.1-11-1.5-16.6-1.7C86.6,90.4,79.7,89.7,72.6,89.8z M98.7,116.9c-0.7,0-1.3-0.6-1.3-1.3
	c0-0.7,0.6-1.3,1.3-1.3c0.7,0,22.2,0.6,22.2,1.3C120.9,116.3,99.5,116.9,98.7,116.9z M86.3,70.5c-0.2,0-0.3-0.2-0.3-0.4
	c0-0.4-0.3-0.7-0.6-0.8c-0.1-0.1-0.3-0.2-0.4-0.3c-0.1-0.1-0.1-0.1-0.1-0.2c0-0.3-0.1-0.6-0.1-0.9c-0.1-0.5,0.1-1,0.2-1.4
	c0.1-0.4,0-0.6-0.4-0.5c-0.4,0-0.5-0.2-0.7-0.4c-0.1-0.1-0.2-0.2-0.3-0.2c-0.5-0.1-1.3,0-1.8,0c-2.7-0.1-7.4-0.6-9.8-1.1
	c-0.8-0.2-1.6-0.3-2.4-0.4c-0.1,0-0.2,0-0.3,0.1c-0.2,0.3-0.4,0.6-0.6,0.8c-0.2,0.2-0.5,0.3-0.8,0.4c-0.3,0-0.4,0-0.3,0.3
	c0.2,0.4,0,0.8,0,1.2c-0.2,1-0.4,1.6-0.8,2.5c-0.2,0.4-0.4,0.8-0.5,1.1c-0.1,0.3-0.3,0.5-0.3,0.8c0,0.7-0.1,1.4-0.2,2.1
	c-0.1,0.4-0.2,0.9-0.2,1.3c0,0.3,0,0.7,0,1c0,0.2-0.1,0.5,0,0.7c0.2,0.4,0.5,0.8,0.7,1.3c0.3,0.6,0.5,1.2,0.6,1.8
	c0,0.2,0,0.5,0.2,0.6c0.4,0.4,0.5,0.9,0.6,1.3c0,0.1,0.1,0.3,0.2,0.4c0.7,0.5,1.1,1.2,1.5,2c0.1,0.3,0.3,0.6,0.5,0.8
	c0.3,0.4,0.6,0.7,0.9,1.1c0.2,0.3,0.4,0.4,0.8,0.4c0.2,0,0.5,0,0.7-0.1c0.2,0,0.4-0.1,0.6-0.1c0.2,0,0.4,0,0.5,0
	c0.2,0.1,0.3,0.2,0.5,0.3c0.8,0.4,1.5,0.7,2.3,1c0.3,0.1,0.6,0.3,0.9,0.3c0.8,0.1,1.6,0.2,2.5,0.3c0.3,0,0.5,0,0.5-0.3
	c0.1-0.2,0.2-0.3,0.5-0.3c0.2,0,0.3,0,0.5,0c0.3,0,0.6,0.1,0.9,0.2c0.2,0.1,0.5,0.3,0.7,0.4c0.2,0.1,0.3,0.1,0.4-0.1
	c0.1-0.3,0.1-0.6,0.1-0.9c0-0.4,0.4-0.7,0.7-0.6c0.6,0.1,1-0.2,1.1-0.8c0-0.3,0.1-0.5,0.4-0.7c0.1-0.1,0.2-0.2,0-0.3
	c-0.3-0.3-0.2-0.6-0.1-1c0.1-0.3,0.2-0.7,0.2-1c0-0.8,0.5-1.2,0.9-1.7c0.1-0.1,0.2-0.3,0.3-0.4c0.1-0.2,0.1-0.5,0.1-0.8
	c0-0.7,0-1.3,0.1-2c0-0.8,0-1.6,0.3-2.4c0.1-0.3,0-0.6,0.1-0.8c0-0.3,0-0.7,0-1c0-0.1,0.2-0.2,0.2-0.4c0.1-0.8,0-1.6-0.6-2.2
	C86.6,70.6,86.5,70.5,86.3,70.5z M82.3,115.8c0.4,0.2,0.6-0.4,1-0.4c0.4-0.2,0.2-0.8,0.5-1.1l-0.2-0.5c-0.1-0.3-0.3-0.3-0.5-0.5
	c-0.3,0-0.5,0-0.7,0.2c-0.1,0.1-0.1,0.3-0.1,0.5c-0.2,0.4-0.5,0.8-0.4,1.4l0.1,0C81.9,115.5,82.2,115.6,82.3,115.8z M86.2,122
	c0.2,0.1,0.4,0,0.5-0.2c0.1-0.2,0-0.4-0.1-0.5c-0.1-0.2-0.4-0.4-0.6-0.5c-0.1,0-0.3,0-0.4,0.2c-0.1,0.1-0.1,0.3,0,0.4
	C85.8,121.7,86,121.9,86.2,122z M65.8,105.6c0.1-0.2-0.2-0.2-0.1-0.4l-0.3,0c-0.4,0-0.5,0.4-0.9,0.6c0,0.2,0.1,0.3,0.2,0.5
	c0.2,0.1,0.4,0.2,0.7,0.3c0.2-0.1,0.4-0.3,0.4-0.4c-0.1-0.1,0.1-0.3,0-0.3C65.9,105.8,65.8,105.7,65.8,105.6z M81.8,118.7
	c-0.1-0.1-0.3,0-0.4,0l-3.2,3.2c0,0.1-0.1,0.2-0.1,0.3c0.1,0.2,0.3,0.3,0.4,0.2l3.3-3.3C82.1,119,82,118.8,81.8,118.7z M78.4,120.7
	c0-0.2-0.2-0.2-0.3-0.3l-0.7-0.1c-0.2,0.1-0.4,0.2-0.4,0.4c0.2,0.3,0.2,0.7,0.4,1c0.3,0.2,0.5-0.3,0.8-0.4
	C78.4,121.2,78.2,120.9,78.4,120.7z"/>
</svg>
