<?xml version="1.0" encoding="utf-8"?>
<!-- Generator: Adobe Illustrator 18.1.1, SVG Export Plug-In . SVG Version: 6.00 Build 0)  -->
<svg version="1.1" id="Layer_1" xmlns="http://www.w3.org/2000/svg" xmlns:xlink="http://www.w3.org/1999/xlink" x="0px" y="0px"
	 viewBox="0 0 150.6 150.6" enable-background="new 0 0 150.6 150.6" xml:space="preserve">
<path fill="#2D2A30" d="M72.6,109.3c-0.1,0-0.1-0.1-0.2,0c-0.1,0-0.2,0.2-0.3,0.2c0,0.1,0.1,0.2,0,0.3l0.1,0
	c0.1,0.1,0.2,0.2,0.3,0.3c0.1,0,0.2,0,0.2-0.1c-0.1-0.2,0.3-0.3,0-0.4C72.8,109.6,72.7,109.4,72.6,109.3z M77.8,111.4
	c0.2-0.1,0.3-0.3,0.4-0.4c0-0.1-0.1-0.2-0.1-0.2c0,0-0.1,0-0.1-0.1c-0.1,0-0.1,0-0.2,0.1c0,0.1,0,0.1-0.1,0.2c0.1,0.1,0,0.2,0,0.4
	C77.7,111.3,77.8,111.3,77.8,111.4z M78.4,106.9c-0.2-0.1-0.2,0.1-0.3,0.2c0,0.2,0.2,0.2,0.3,0.3c0.2,0.1-0.1,0.2,0.1,0.3
	c0,0.1-0.1,0.2-0.1,0.2c0,0.2-0.3,0.3-0.3,0.6c0,0.1,0,0.2,0.1,0.2c0.1,0.1,0.2-0.1,0.3-0.1c0.1-0.1,0.3-0.2,0.3-0.3
	c0.2,0,0.2-0.2,0.3-0.3c0-0.1,0.1-0.2-0.1-0.3c0-0.1,0-0.1,0-0.2c0-0.1-0.1-0.2-0.1-0.3c0-0.1-0.1-0.3-0.2-0.3
	C78.6,107,78.5,107,78.4,106.9z M78.5,109.7c0-0.1-0.2,0-0.3,0c0,0.1,0,0.2,0.1,0.3c0.1,0.1,0.2,0.2,0.2,0.4c0.1,0,0.1,0.1,0.1,0.2
	l0.1-0.1c0-0.2,0.2-0.3,0.3-0.4c0.1-0.1,0.1-0.3,0-0.4C78.9,109.8,78.7,109.6,78.5,109.7z M79.1,115.2c0.1,0,0.2,0,0.3-0.1
	c0.1-0.1,0-0.2,0-0.3c0-0.1-0.2-0.2-0.3-0.3c-0.2-0.1-0.4,0.1-0.4,0.2C78.8,115,78.9,115.2,79.1,115.2z M71.9,104.7
	c-0.1,0.2,0.2,0.3,0.1,0.4c0.1,0.1,0.1,0.3,0.3,0.3c0,0,0.1,0,0.1,0c0.1-0.2,0.3-0.3,0.4-0.5c0-0.1-0.1-0.2,0-0.3
	c0-0.1-0.1-0.1-0.1-0.1c-0.2,0-0.2-0.1-0.3-0.1c-0.1,0.2-0.3,0-0.4,0.2C71.8,104.6,71.8,104.6,71.9,104.7L71.9,104.7z M70.5,103
	c0.1-0.1-0.1-0.1-0.1-0.3l-0.2,0c-0.2,0-0.3,0.2-0.5,0.3c0,0.1,0.1,0.2,0.1,0.3c0.1,0.1,0.3,0.1,0.4,0.2c0.1-0.1,0.2-0.1,0.3-0.2
	c0-0.1,0-0.2,0-0.2C70.5,103,70.5,103,70.5,103z M71.5,106.2c0-0.1-0.1-0.3-0.2-0.4c-0.2-0.1-0.6,0-0.4,0.3c0.1,0.1,0.1,0.2,0,0.3
	c0,0.1,0,0.1,0.1,0.1c0.1,0.1,0.2,0.1,0.3,0.2c0.1,0,0.2,0.1,0.4,0.1l0.2-0.1c0-0.1,0.1-0.2,0.1-0.2C72,106.3,71.7,106.4,71.5,106.2
	z M77.1,110.5c0.2,0,0.4,0.1,0.5-0.1c0-0.2,0.2-0.3,0.2-0.4c0-0.1,0-0.2-0.1-0.3l-0.2,0.1c-0.2-0.1-0.2,0.3-0.4,0.2
	c0,0.1-0.2,0.1-0.1,0.3C76.8,110.4,77.1,110.3,77.1,110.5z M74.1,108.6c-0.2,0.2,0,0.4-0.1,0.6c0,0.2,0.2,0.3,0.3,0.4
	c0.1,0.2,0.3,0.1,0.3,0.2c0.1,0,0.2,0,0.3,0c0.1-0.1,0.2-0.2,0.2-0.3c-0.1-0.1-0.1-0.3-0.3-0.4c0-0.2-0.2-0.3-0.1-0.4
	c0.1-0.2-0.2-0.2-0.3-0.3L74.1,108.6z M72.9,104c0,0.1,0.2-0.1,0.2,0.1c0.1,0.1,0.1,0,0.2,0l0,0l0.2-0.1c0-0.1,0.1-0.1,0-0.2
	c0-0.1-0.1-0.2-0.2-0.1l0,0c-0.1-0.1-0.2-0.1-0.2-0.1c-0.1,0.1-0.2,0-0.2,0c-0.1,0-0.2,0-0.2,0c-0.1,0,0,0.1-0.1,0.1
	c0,0.2,0.1,0.2,0.2,0.3C72.8,104,72.8,104.1,72.9,104z M78.3,106.1c0.1,0,0.1-0.1,0.2-0.2c0.1-0.1,0-0.2,0-0.3c0-0.2-0.3,0-0.4-0.2
	c-0.2,0-0.5-0.1-0.6,0.1l0,0c-0.1,0.2-0.1,0.4,0,0.5C77.7,106.5,78,106.1,78.3,106.1z M54.7,91.4c0.2-0.2,0.2-0.3,0.2-0.6l0,0
	c0-0.2-0.1-0.4-0.3-0.5c-0.2-0.1-0.4-0.1-0.7-0.1l-1.1,0.1l0.2,1.5l1.2-0.1C54.3,91.7,54.5,91.6,54.7,91.4z M79.9,108.7
	c0.2,0.1,0.3-0.2,0.5-0.2c0.3-0.1,0.1-0.4,0.3-0.6l-0.1-0.3c0-0.2-0.2-0.2-0.3-0.3c-0.1,0-0.3,0-0.4,0.1c0,0.1-0.1,0.2-0.1,0.3
	c-0.1,0.2-0.3,0.5-0.2,0.8l0,0C79.6,108.6,79.8,108.6,79.9,108.7z M61.4,90.7c0.1,0.1,0.1,0.2,0.2,0.3c0.1,0.1,0.2,0.1,0.3,0.2
	c0.1,0,0.2,0.1,0.4,0.1c0.1,0,0.3,0,0.4-0.1c0.1-0.1,0.2-0.1,0.3-0.2c0.1-0.1,0.1-0.2,0.2-0.3c0-0.1,0.1-0.2,0-0.4l0,0
	c0-0.1,0-0.3-0.1-0.4c-0.1-0.1-0.1-0.2-0.2-0.3c-0.1-0.1-0.2-0.1-0.3-0.2c-0.1,0-0.2-0.1-0.4-0.1c-0.1,0-0.3,0-0.4,0.1
	c-0.1,0.1-0.2,0.1-0.3,0.2c-0.1,0.1-0.1,0.2-0.2,0.3c0,0.1-0.1,0.2,0,0.4l0,0C61.3,90.5,61.4,90.6,61.4,90.7z M104,51.6l-2.6-0.3
	l-0.4,3.4l2.6,0.3L104,51.6z M89.4,76.5l2.7,0.2l0.6-8.3L90,68.1L89.4,76.5z M93.5,91.8l1.5,0.1l-0.6-1.9L93.5,91.8z M31.9,95.2
	c0-0.2-0.1-0.4-0.2-0.6c-0.1-0.2-0.3-0.3-0.4-0.4C31,94.1,30.9,94,30.7,94c-0.2,0-0.4,0-0.6,0c-0.2,0.1-0.4,0.1-0.6,0.3
	c-0.2,0.1-0.3,0.3-0.4,0.4c-0.1,0.2-0.2,0.4-0.2,0.6c0,0.2,0,0.4,0,0.6l0,0c0,0.2,0.1,0.4,0.2,0.6c0.1,0.2,0.3,0.3,0.4,0.4
	c0.2,0.1,0.3,0.2,0.5,0.2c0.2,0,0.4,0,0.6,0c0.2,0,0.4-0.1,0.6-0.3c0.2-0.1,0.3-0.3,0.4-0.4c0.1-0.2,0.2-0.4,0.2-0.6
	C31.9,95.6,31.9,95.4,31.9,95.2L31.9,95.2z M82.1,112.3c0.1,0,0.2,0,0.3-0.1c0-0.1,0-0.2,0-0.3c-0.1-0.1-0.2-0.2-0.4-0.3
	c-0.1,0-0.2,0-0.2,0.1c0,0.1-0.1,0.2,0,0.2C81.8,112.1,81.9,112.2,82.1,112.3z M40.8,70.7l0.6,3.4l2.6-0.4l-0.6-3.4L40.8,70.7z
	 M37.5,93.3c0-0.2-0.2-0.4-0.3-0.5c-0.2-0.1-0.4-0.1-0.7-0.1l-1.1,0.2l0.3,1.5l1.1-0.2c0.3-0.1,0.5-0.2,0.6-0.3
	C37.5,93.7,37.5,93.5,37.5,93.3L37.5,93.3z M43.5,92.4c-0.1-0.2-0.2-0.3-0.4-0.4c-0.2-0.1-0.3-0.2-0.5-0.2c-0.2,0-0.4-0.1-0.7,0
	l-0.9,0.1l0.5,3l0.9-0.1c0.2,0,0.4-0.1,0.6-0.2c0.2-0.1,0.3-0.2,0.4-0.4c0.1-0.2,0.2-0.3,0.2-0.5c0-0.2,0-0.4,0-0.6l0,0
	C43.7,92.8,43.6,92.6,43.5,92.4z M106.5,91.3l-1.1-0.2l-0.2,1.5l1.1,0.2c0.3,0,0.5,0,0.7-0.1c0.2-0.1,0.3-0.3,0.3-0.5l0,0
	c0-0.2,0-0.4-0.2-0.6C107,91.4,106.8,91.3,106.5,91.3z M79.6,110.4c-0.1,0-0.2,0-0.2,0l-1.8,1.8c0,0.1-0.1,0.1-0.1,0.2
	c0,0.1,0.1,0.2,0.3,0.1l1.9-1.9C79.7,110.6,79.7,110.5,79.6,110.4z M77,110.9c0.1-0.1-0.1-0.2-0.1-0.3c-0.1,0-0.3-0.1-0.4,0.1
	c0,0.1,0,0.1,0,0.2c-0.1,0.1,0,0.3,0,0.4c0.1,0,0.2,0.1,0.3,0.1C76.9,111.1,77.1,111.1,77,110.9z M77.6,111.5c0-0.1-0.1-0.1-0.2-0.1
	l-0.4-0.1c-0.1,0-0.2,0.1-0.2,0.2c0.1,0.2,0.1,0.4,0.2,0.5c0.2,0.1,0.3-0.2,0.4-0.2C77.6,111.8,77.6,111.6,77.6,111.5z M100.7,90.5
	l-1.1-0.1l-0.2,1.5l1.1,0.1c0.3,0,0.5,0,0.7-0.1c0.2-0.1,0.3-0.3,0.3-0.5l0,0c0-0.2,0-0.4-0.2-0.6C101.2,90.7,101,90.6,100.7,90.5z
	 M113.6,92.8c-0.1-0.2-0.2-0.3-0.4-0.4c-0.2-0.1-0.4-0.2-0.6-0.2c-0.2,0-0.4,0-0.6,0c-0.2,0.1-0.4,0.1-0.5,0.3
	c-0.2,0.1-0.3,0.3-0.4,0.4c-0.1,0.2-0.2,0.4-0.2,0.6l0,0c0,0.2,0,0.4,0,0.6c0,0.2,0.1,0.4,0.2,0.6c0.1,0.2,0.2,0.3,0.4,0.4
	c0.2,0.1,0.4,0.2,0.6,0.2c0.2,0,0.4,0,0.6,0c0.2-0.1,0.4-0.1,0.5-0.3c0.2-0.1,0.3-0.3,0.4-0.4c0.1-0.2,0.2-0.4,0.2-0.6l0,0
	c0-0.2,0-0.4,0-0.6C113.7,93.2,113.7,93,113.6,92.8z M75.3,1.8C34.7,1.8,1.8,34.7,1.8,75.3s32.9,73.5,73.5,73.5s73.5-32.9,73.5-73.5
	S115.9,1.8,75.3,1.8z M98.7,47.8l3.1,0.4l3.1,0.4c0.4,0,0.7,0.1,1,0.3c0.3,0.2,0.6,0.4,0.8,0.7c0.2,0.3,0.4,0.6,0.5,0.9
	c0.1,0.3,0.1,0.7,0.1,1l-0.5,4.3c-0.1,0.6-0.3,1-0.6,1.4c-0.4,0.4-0.8,0.7-1.3,0.8l1.2,5.2l-3.3-0.4l-1.2-5l-0.8-0.1l-0.5,4.8
	L97,62.2L98.7,47.8z M95.2,66.2c0.2,0.3,0.4,0.6,0.5,0.9c0.1,0.3,0.2,0.7,0.1,1l-0.7,9.2c0,0.4-0.1,0.7-0.3,1
	c-0.2,0.3-0.4,0.6-0.6,0.8c-0.3,0.2-0.6,0.4-0.9,0.5c-0.3,0.1-0.7,0.2-1,0.1l-3.6-0.3c-0.8-0.1-1.4-0.4-1.8-0.9
	c-0.5-0.6-0.7-1.2-0.6-2l0.7-9.2c0-0.4,0.1-0.7,0.3-1c0.2-0.3,0.4-0.6,0.6-0.8c0.3-0.2,0.5-0.4,0.9-0.5c0.3-0.1,0.7-0.2,1.1-0.1
	l3.6,0.3c0.4,0,0.7,0.1,1,0.3C94.7,65.7,95,65.9,95.2,66.2z M96.5,93.9l-0.8-0.1l-0.4-1.1l-2.1-0.2l-0.5,1l-0.8-0.1l2.3-4.3l0.7,0.1
	L96.5,93.9z M84.9,47l8.8,0.5l-0.2,3.1l-5.7-0.3l-0.1,2.3l4.2,0.2l-0.2,3.1l-4.2-0.2l-0.2,2.8l5.7,0.3l-0.2,3.1l-8.8-0.5L84.9,47z
	 M78.5,91l0,1.9l-0.8,0l0.1-4.5l0.8,0l0,1.9l2.2,0l0-1.9l0.8,0L81.4,93l-0.8,0l0-1.9L78.5,91z M78.7,79.1l0.4-14.6l3.1,0.1
	l-0.4,14.6L78.7,79.1z M71.4,46.9l8.8,0l0,3.1l-2.9,0l-0.1,11.3l-3.1,0L74.3,50l-2.9,0L71.4,46.9z M74.3,92.9l-0.8,0l0-3.8l-1.4,0
	l0-0.7l3.6,0l0,0.7l-1.4,0L74.3,92.9z M66,89.8l1.5-0.1l0,0.6l-1.5,0.1l0,1.2l-0.7,0l-0.1-3.1l2.4-0.1l0,0.6L66,89.2L66,89.8z
	 M67.4,79.2c-0.5,0-1-0.2-1.4-0.6c-0.4-0.4-0.6-0.8-0.6-1.4l-0.2-10.6c0-0.6,0.2-1,0.6-1.4c0.4-0.4,0.8-0.6,1.4-0.6l4.9-0.1
	c0.6,0,1,0.2,1.4,0.6c0.4,0.4,0.6,0.9,0.6,1.4l0.1,3.2l-3.1,0.1l0-2.1l-2.7,0l0.1,8.3l2.7,0l0-1.8l-1.3,0l-0.1-3.1l4.5-0.1l0.1,6
	c0,0.5-0.2,1-0.6,1.4c-0.4,0.4-0.9,0.6-1.4,0.6L67.4,79.2z M58.6,48c0.4-0.4,0.8-0.6,1.4-0.6l4.9-0.2c0.5,0,1,0.2,1.4,0.5
	c0.4,0.4,0.6,0.8,0.6,1.4l0.1,3.2l-3.1,0.1l-0.1-2.1l-2.6,0.1l0.1,1.7l5.1,2.3c0.3,0.2,0.5,0.4,0.6,0.7c0.1,0.3,0.2,0.6,0.2,0.9
	l0.2,3.5c0,0.5-0.2,1-0.5,1.4c-0.4,0.4-0.8,0.6-1.4,0.6l-4.9,0.2c-0.5,0-1-0.2-1.4-0.5c-0.4-0.4-0.6-0.8-0.6-1.4l-0.1-3.2l3.1-0.1
	l0.1,2.1l2.6-0.1l-0.1-1.7L59,54.4c-0.3-0.2-0.5-0.4-0.6-0.7c-0.1-0.3-0.2-0.6-0.2-0.9l-0.2-3.5C58,48.9,58.2,48.4,58.6,48z
	 M53.1,94.1l-0.8,0.1l-0.4-4.5l2-0.2c0.3,0,0.5,0,0.8,0c0.2,0.1,0.4,0.1,0.6,0.3c0.1,0.1,0.2,0.2,0.3,0.4c0.1,0.2,0.1,0.3,0.1,0.5v0
	c0,0.2,0,0.4,0,0.5c0,0.2-0.1,0.3-0.2,0.4c-0.1,0.1-0.2,0.2-0.3,0.3c-0.1,0.1-0.3,0.2-0.4,0.2l1.4,1.6l-0.9,0.1l-1.3-1.4h0l-1,0.1
	L53.1,94.1z M52.6,80.4l-1.4-14.5l8.9-0.8l0.3,3.1l-5.8,0.5l0.2,2.3l4.2-0.4l0.3,3.1l-4.2,0.4l0.3,2.9l5.8-0.5l0.3,3.1L52.6,80.4z
	 M60.6,90.4c0-0.2,0-0.4,0.1-0.6c0.1-0.2,0.2-0.4,0.3-0.5c0.1-0.2,0.3-0.3,0.5-0.4c0.2-0.1,0.4-0.2,0.7-0.2c0.2,0,0.5,0,0.7,0.1
	c0.2,0.1,0.4,0.2,0.5,0.3c0.2,0.1,0.3,0.3,0.4,0.5c0.1,0.2,0.1,0.4,0.2,0.6l0,0c0,0.2,0,0.4-0.1,0.6c-0.1,0.2-0.2,0.4-0.3,0.5
	c-0.1,0.2-0.3,0.3-0.5,0.4c-0.2,0.1-0.4,0.2-0.7,0.2c-0.2,0-0.5,0-0.7-0.1c-0.2-0.1-0.4-0.2-0.5-0.3c-0.2-0.1-0.3-0.3-0.4-0.5
	C60.7,90.8,60.6,90.6,60.6,90.4L60.6,90.4z M53,47.9l0.3,3.1l-5.7,0.6l0.2,2.3l4.2-0.4l0.3,3.1l-4.2,0.4l0.3,2.8l5.7-0.6l0.3,3.1
	l-8.8,0.9l-1.5-14.4L53,47.9z M32.7,95.9c0,0.3-0.2,0.6-0.3,0.8c-0.2,0.3-0.4,0.5-0.6,0.7c-0.2,0.2-0.5,0.3-0.9,0.4
	c-0.3,0.1-0.7,0.1-1,0c-0.3-0.1-0.6-0.2-0.8-0.3c-0.2-0.2-0.5-0.4-0.6-0.6c-0.2-0.2-0.3-0.5-0.4-0.8l0,0c-0.1-0.3-0.1-0.6,0-0.9
	c0-0.3,0.2-0.6,0.3-0.8c0.2-0.3,0.4-0.5,0.6-0.7c0.3-0.2,0.5-0.3,0.9-0.4c0.3-0.1,0.7-0.1,1,0c0.3,0.1,0.6,0.2,0.8,0.3
	c0.2,0.2,0.5,0.4,0.6,0.6c0.2,0.2,0.3,0.5,0.4,0.8l0,0C32.8,95.3,32.8,95.6,32.7,95.9z M30.3,65.7l-4.8-13.8l3.1-0.6l2.5,8.3
	l-0.3-8.7l3-0.6l2.8,8.2l-0.6-8.7l3.1-0.6l0.5,14.6l-3.6,0.7c0,0-2.5-7.6-2.7-8.2c0,0,0.4,8.6,0.4,8.6L30.3,65.7z M38,96.2l-1.4-1.3
	l0,0l-1,0.2l0.3,1.5l-0.8,0.1l-0.8-4.4l2-0.4c0.3-0.1,0.5-0.1,0.8,0c0.2,0,0.4,0.1,0.6,0.2c0.1,0.1,0.3,0.2,0.4,0.4
	c0.1,0.1,0.2,0.3,0.2,0.5l0,0c0,0.2,0,0.3,0,0.5c0,0.2-0.1,0.3-0.1,0.4c-0.1,0.1-0.2,0.2-0.3,0.3c-0.1,0.1-0.2,0.2-0.4,0.3l1.5,1.4
	L38,96.2z M44.5,93.8c-0.1,0.3-0.2,0.5-0.4,0.8c-0.2,0.2-0.4,0.4-0.7,0.6c-0.3,0.2-0.6,0.3-0.9,0.3l-1.7,0.3l-0.7-4.4l1.7-0.3
	c0.3-0.1,0.7,0,1,0c0.3,0.1,0.6,0.2,0.8,0.3c0.2,0.2,0.4,0.4,0.6,0.6c0.2,0.2,0.3,0.5,0.3,0.8l0,0C44.6,93.2,44.6,93.5,44.5,93.8z
	 M42.7,77.1l-0.8,0.1l0.8,4.8l-3.1,0.5l-2.4-14.4l3.1-0.5l3.1-0.5c0.4-0.1,0.7,0,1.1,0c0.3,0.1,0.6,0.2,0.9,0.4
	c0.3,0.2,0.5,0.4,0.7,0.7c0.2,0.3,0.3,0.6,0.4,1l0.7,4.3c0.1,0.6,0,1.1-0.2,1.6c-0.2,0.5-0.6,0.9-1,1.1l2.6,4.7l-3.3,0.6L42.7,77.1z
	 M46.4,90.4l3.3-0.4l0.1,0.7L47.3,91l0.1,1.1l2.2-0.3l0.1,0.7l-2.2,0.3l0.2,1.2l2.5-0.3l0.1,0.7L47,94.8L46.4,90.4z M62.5,109.4
	c-0.4,0-12.6-0.3-12.6-0.7c0-0.4,12.2-0.7,12.6-0.7c0.4,0,0.7,0.3,0.7,0.7C63.2,109,62.9,109.4,62.5,109.4z M60.9,93.3l0-0.5
	l6.9-0.4l0,0.5L60.9,93.3z M80.5,115.5c-0.4,0.5-1.1,0.6-1.7,0.5c-0.4-0.1-0.7-0.5-0.8-0.9c-0.1-0.3,0-0.8,0.2-1.1
	c0.1-0.3-0.2-0.4-0.4-0.6c-0.1,0.1-0.3,0.3-0.5,0.2c-0.1,0-0.1-0.1-0.1-0.2c0-0.2,0.2-0.4,0.3-0.5c-0.1,0-0.2,0-0.3,0
	c-0.1-0.1-0.2-0.2-0.2-0.3c0-0.1,0.1-0.2,0-0.2c0,0-0.1,0-0.1-0.1c-0.2,0-0.4-0.1-0.5,0.1c0,0.1,0,0.2,0,0.4
	c0.1,0.1,0.1,0.3,0.1,0.4c-0.1,0.3-0.2,0.7-0.5,0.9c-0.3,0.1-0.6,0.2-0.8,0.3c-0.2,0.1-0.3,0.3-0.5,0.3c-0.1,0.1-0.2,0.1-0.3,0.1
	c-0.1-0.2-0.4-0.2-0.5-0.4c-0.1,0-0.2-0.1-0.2-0.2c0-0.1-0.1-0.2-0.1-0.3c-0.1-0.1-0.1-0.2-0.1-0.3c0-0.3-0.4-0.4-0.4-0.7
	c-0.1,0,0-0.2-0.1-0.2c-0.1-0.1-0.3-0.2-0.2-0.4c-0.1-0.1-0.2-0.1-0.1-0.2c0.1-0.1,0-0.1,0-0.2c-0.2,0-0.2-0.3-0.3-0.4
	c0-0.1-0.1-0.1-0.1-0.2c0-0.3-0.5-0.5-0.4-0.9c0-0.3,0.1-0.6-0.2-0.8c-0.2-0.2-0.4-0.4-0.5-0.6c-0.1-0.1-0.1-0.1-0.1-0.2
	c-0.1-0.1,0-0.1,0-0.2c-0.2-0.1-0.1-0.3-0.1-0.4c0-0.2,0-0.4-0.1-0.6c0-0.2-0.3-0.3-0.3-0.5c0-0.2,0-0.4-0.1-0.6
	c0.1-0.2-0.1-0.4,0-0.6c-0.1-0.1-0.1-0.2-0.2-0.3c-0.1-0.1,0-0.3-0.1-0.3c0-0.1-0.1-0.2-0.1-0.3c0-0.1,0.1-0.3-0.1-0.4
	c0-0.1-0.1-0.2-0.1-0.3c-0.1-0.2-0.1-0.4-0.3-0.5c-0.1-0.2,0.1-0.4-0.1-0.6c-0.1-0.2,0.1-0.4-0.1-0.5c0-0.3,0-0.6-0.1-0.9
	c0,0,0-0.1,0.1-0.1c0.1,0,0.1,0,0.2,0c0.2-0.2,0.4,0.1,0.7,0c0.1,0,0.2,0.1,0.3,0.1c0.1,0,0.2,0.1,0.3,0.2c0.3,0.1,0.5-0.2,0.8-0.1
	c0.2,0,0.4,0.2,0.5,0.3c0,0.1,0.2,0.1,0.3,0.2c0.1,0.1,0.2,0.2,0.4,0.3c0.2,0,0.4-0.1,0.5,0c0,0,0.1,0,0.1,0c0.1,0,0.3,0,0.4,0.1
	c0.2,0.1,0.3,0.2,0.4,0.3c0.3,0.1,0.6,0.3,0.8,0c0.2,0,0.3,0,0.5,0c0.1,0.1,0.1,0.1,0.2,0.1c0.3,0.2,0.4,0.5,0.7,0.6
	c0.1,0.3,0.5,0.1,0.7,0.2c0.3,0.1,0.5,0.2,0.7,0.2c0.2,0.2,0.4,0,0.6,0.1c0.3,0,0.3,0.3,0.5,0.4c0,0.2,0.3,0,0.3,0.3
	c0.2,0.2,0.5,0.3,0.7,0.5c0.1,0,0.2,0.2,0.4,0.1c0.1,0.1,0.2,0.2,0.2,0.3c0.1,0.1,0.3,0,0.3,0.1c0.3,0,0.5,0.1,0.8,0.2
	c0.1,0.2,0.6,0.5,0.3,0.7c-0.1,0.1,0,0.3-0.1,0.4c-0.1,0.1-0.2,0.2-0.2,0.4c-0.1,0.1,0,0.1,0,0.2c-0.1,0.2-0.4,0.2-0.3,0.5
	c0.1,0.1-0.2,0.2,0,0.3c-0.1,0.1-0.2,0.3-0.3,0.4c-0.4,0.2-0.8,0.1-1.2,0.3c-0.2,0.1-0.2,0.2-0.3,0.3c0.1,0.2,0.3,0.2,0.5,0.1
	c0.1,0,0.2,0.1,0.3,0.2c0,0.1,0,0.2,0,0.3c0.2-0.1,0.3-0.4,0.6-0.3c0.1,0,0.1,0.1,0.1,0.2c0,0.1-0.1,0.2-0.2,0.3
	c0.2,0.2,0.4,0.5,0.7,0.4c0.3-0.2,0.7-0.3,1-0.2c0.4,0.1,0.8,0.5,0.8,0.9c0,0.2,0,0.5,0,0.7c-0.1,0.3-0.3,0.7-0.6,0.9l-2.3-2.3l-2,2
	L80.5,115.5C80.5,115.4,80.5,115.5,80.5,115.5z M82.7,117l-3.9-3.9l1.5-1.5l3.9,3.9L82.7,117z M87.2,89.4l-2.5-0.1l0,1.2l2.2,0.1
	l0,0.7l-2.2-0.1l-0.1,1.2l2.6,0.1l0,0.7L83.7,93l0.2-4.5l3.3,0.1L87.2,89.4z M89.2,109.4c-0.4,0-0.7-0.3-0.7-0.7
	c0-0.4,0.3-0.7,0.7-0.7c0.4,0,12.6,0.3,12.6,0.7C101.8,109,89.6,109.4,89.2,109.4z M102.4,91.4c0,0.2-0.1,0.3-0.1,0.5
	c-0.1,0.1-0.2,0.3-0.3,0.4c-0.1,0.1-0.2,0.2-0.4,0.2c-0.1,0.1-0.3,0.1-0.4,0.1l1,1.8l-0.9-0.1l-0.9-1.7l0,0l-1-0.1l-0.2,1.6
	l-0.8-0.1l0.5-4.5l2,0.2c0.3,0,0.5,0.1,0.7,0.2c0.2,0.1,0.4,0.2,0.5,0.4c0.1,0.1,0.2,0.3,0.2,0.5C102.4,91,102.4,91.2,102.4,91.4
	L102.4,91.4z M108.2,92.2c0,0.2-0.1,0.3-0.1,0.5c-0.1,0.1-0.2,0.3-0.3,0.4c-0.1,0.1-0.2,0.2-0.4,0.2c-0.1,0.1-0.3,0.1-0.5,0.1l1,1.9
	l-0.9-0.1l-0.9-1.7l0,0l-1-0.1l-0.2,1.5l-0.8-0.1l0.6-4.4l2,0.3c0.3,0,0.5,0.1,0.7,0.2c0.2,0.1,0.4,0.2,0.5,0.4
	c0.1,0.1,0.2,0.3,0.2,0.5C108.2,91.8,108.2,92,108.2,92.2L108.2,92.2z M104.9,81.4l-1.6-7.7l-1.2,7.3L99,80.5l2.3-14.4l3.7,0.6
	l1.6,7.6l1.2-7.2l3.1,0.5L108.6,82L104.9,81.4z M114.6,94.2L114.6,94.2c-0.1,0.3-0.2,0.6-0.3,0.9c-0.2,0.3-0.4,0.5-0.6,0.6
	c-0.2,0.2-0.5,0.3-0.8,0.4c-0.3,0.1-0.6,0.1-1,0c-0.3-0.1-0.6-0.2-0.9-0.3c-0.3-0.2-0.5-0.4-0.6-0.6c-0.2-0.2-0.3-0.5-0.3-0.8
	c-0.1-0.3-0.1-0.6,0-0.9l0,0c0.1-0.3,0.2-0.6,0.3-0.8c0.2-0.3,0.4-0.5,0.6-0.6c0.2-0.2,0.5-0.3,0.8-0.4c0.3-0.1,0.6-0.1,1,0
	c0.3,0.1,0.6,0.2,0.9,0.3c0.3,0.2,0.5,0.4,0.6,0.6c0.2,0.2,0.3,0.5,0.3,0.8C114.7,93.5,114.7,93.8,114.6,94.2z M114.5,57.2l-1.3,7.2
	l-3-0.6l2.6-14.2l3.6,0.7l1.4,7.6l1.3-7.1l3.1,0.6l-2.6,14.2l-3.6-0.7L114.5,57.2z M120.9,97.8l-0.7-0.1l-0.4-3.4l-1.8,2.9l-0.7-0.1
	l-0.5-4.7l0.8,0.2L118,96l1.8-3l0.6,0.1l0.4,3.5l1.8-3l0.8,0.2L120.9,97.8z M73.3,107.7c0-0.2-0.2-0.2-0.2-0.3
	c-0.1,0.1-0.2-0.1-0.3,0.1c0,0.1,0,0.2,0,0.3h-0.1c0,0.1-0.1,0.3,0,0.4c0.1,0.2,0.2,0.1,0.4,0.2c0.1,0.1,0.3,0.2,0.5,0.1
	c0.2-0.1,0.1-0.2,0.2-0.4C73.5,107.9,73.4,107.7,73.3,107.7z M74.3,106c0.1-0.1,0.1-0.2,0.2-0.3c0-0.1,0.1-0.2,0-0.3
	c-0.1,0-0.1-0.1-0.2-0.2c-0.2,0-0.3-0.1-0.4-0.2c-0.1,0-0.2,0.1-0.3,0c-0.1,0-0.3,0.1-0.3,0.3c0.1,0.1-0.2,0.2,0,0.3
	c0,0.1,0.1,0.1,0.1,0.3c0,0.1,0.1,0.1,0.2,0.1c0.1,0.1,0.3,0,0.4,0.1C74.1,105.9,74.2,106,74.3,106z M75.6,111.1
	c0,0-0.1-0.1-0.1-0.1c-0.1-0.2-0.2,0-0.3,0c0,0.1-0.1,0.1-0.1,0.2c-0.1,0.1,0.1,0.2,0,0.3c0,0.2,0.3,0.2,0.4,0.2
	c0.2-0.1,0.1-0.3,0.1-0.4c0,0,0-0.1,0-0.1C75.6,111.2,75.6,111.1,75.6,111.1z M74.8,112.6c-0.1,0-0.2,0-0.2-0.1
	c-0.2,0.1-0.1-0.2-0.2-0.2c0-0.2,0-0.4-0.2-0.6c-0.1,0-0.2,0-0.3,0c-0.1,0.1-0.1,0.2-0.1,0.3c0.1,0.1,0,0.2,0.1,0.2
	c0,0.1,0.1,0.2,0.1,0.3c0.2,0,0.1,0.2,0.2,0.2c0,0.2,0.1,0.4,0.3,0.5c0.1,0,0.3-0.1,0.4,0c0.2-0.1,0.1-0.3,0.2-0.4
	C75.1,112.8,74.9,112.7,74.8,112.6z M76.5,105.1c-0.1-0.1,0-0.2-0.1-0.2c-0.1,0.1-0.1-0.1-0.2,0c-0.3-0.1-0.6-0.3-1-0.4l-0.3,0.2
	c0,0.1,0,0.2,0.1,0.3c0.2,0.1,0.3,0.3,0.5,0.4c0.3,0.3,0.7,0.1,1,0C76.4,105.2,76.5,105.1,76.5,105.1z M76.5,107.5
	c0.1-0.1,0.1-0.2,0.1-0.4c0,0,0-0.1,0-0.1c-0.2-0.1,0-0.3-0.2-0.3c0-0.1-0.1-0.2-0.1-0.3c0-0.1,0.1-0.1,0-0.2
	c-0.1,0-0.1-0.2-0.2-0.2c-0.1,0-0.2,0.1-0.2,0.1c0,0-0.1,0-0.1,0c0,0.1-0.2,0.1-0.2,0.2c0.1,0.1,0,0.2,0,0.4c0.1,0,0.1,0.2,0.2,0.2
	c0.1,0.1,0.2,0.2,0.1,0.4c0,0,0.1,0.1,0.1,0.1c0,0.2,0.1,0.1,0.2,0.1C76.5,107.7,76.5,107.6,76.5,107.5z M76.9,109.5
	c0-0.1-0.1-0.2-0.2-0.2c-0.1,0-0.2,0.1-0.2,0.1c0,0.1-0.1,0.1,0,0.2c0.1,0.1,0.1,0.2,0.2,0.2C76.7,109.8,76.8,109.6,76.9,109.5z"/>
</svg>
