<?xml version="1.0" encoding="utf-8"?>
<!-- Generator: Adobe Illustrator 18.1.1, SVG Export Plug-In . SVG Version: 6.00 Build 0)  -->
<svg version="1.1" id="Layer_1" xmlns="http://www.w3.org/2000/svg" xmlns:xlink="http://www.w3.org/1999/xlink" x="0px" y="0px"
	 viewBox="0 0 249.9 132.3" enable-background="new 0 0 249.9 132.3" xml:space="preserve">
<path fill="#2D2A30" d="M177.9,81.7l-1.7-1.7l0,0.3l0,0l1.7,1.7L177.9,81.7z M169.8,84.2l0,0.2l0.3,0L169.8,84.2z M171.4,84.6
	l-1.5-1.5l0,0.3l1.1,1.1L171.4,84.6z M178.1,79.8l0-0.3l-1.7-1.7l0,0.3L178.1,79.8L178.1,79.8z M178.1,80.6l-1.7-1.7l0,0.3l1.7,1.7
	L178.1,80.6z M177.6,86.4l1.7,1.7l0-0.3l-1.7-1.7L177.6,86.4z M178.1,73.9l1.7,1.7l0.4,0l-1.7-1.7L178.1,73.9z M177.2,89.6l1.7,1.7
	l0-0.3l-1.7-1.7L177.2,89.6z M173.5,74.9L173.5,74.9l-1.7-1.7l-0.4,0l1.7,1.7L173.5,74.9z M177.3,88.5l1.7,1.7l0-0.3l-1.7-1.7
	L177.3,88.5z M178.3,78.7l-1.7-1.7l0,0.1l1.7,1.7L178.3,78.7z M177.5,87.5l0.2,0.2l1.5,1.5l0-0.3l-1.7-1.7L177.5,87.5z M172.6,76.5
	L172.6,76.5l-1.7-1.8l0,0.3l1.5,1.5L172.6,76.5z M176,75.1L176,75.1L176,75.1l0.2,0l-1.7-1.7l-0.4,0l1.7,1.7L176,75.1z M179.3,71.5
	l0.1,0.1l0,0l1.6,1.6l0-0.3l-1.7-1.7L179.3,71.5z M177.1,74l1.4,1.4l0.4,0l-1.6-1.6l-0.1-0.1l-0.4,0L177.1,74L177.1,74z M177.5,75.3
	l-0.9-0.9l0,0l-0.9-0.9l-0.4,0h0l1.7,1.7L177.5,75.3z M179.2,72.6l1.7,1.7l0-0.3l-1.7-1.7L179.2,72.6z M174.6,89.3l1.7,1.7l0.4,0
	l-1.7-1.7L174.6,89.3z M171.4,76.3l-0.6-0.6l0,0.3l0.3,0.3L171.4,76.3z M175.9,89.5l1.7,1.7l0.4,0l-1.7-1.7L175.9,89.5z M174.8,75
	l-1.7-1.7l-0.4,0l1.7,1.7L174.8,75z M172.8,75.3l-1.7-1.7l0,0.3l1.7,1.7L172.8,75.3z M179.1,73.6l1.7,1.7l0-0.3l-1.7-1.7L179.1,73.6
	z M169.5,88.8L169.5,88.8L169.5,88.8l-0.3,0l1.7,1.7l0.4,0L169.5,88.8L169.5,88.8z M160.8,89.4l-1.7-1.7l-0.4,0l1.7,1.7L160.8,89.4z
	 M159.1,89.3l0.4,0l-1.7-1.7l-0.4,0L159.1,89.3L159.1,89.3z M162,77.6l-1.3-1.3l-0.4-0.4l0,0.3v0l0.3,0.3l1.5,1.5L162,77.6z
	 M158.2,89.3l-1.7-1.7h0l-0.4,0l0.2,0.2l0,0l1.5,1.5L158.2,89.3z M161.9,78.7l-1.7-1.7l0,0.3l1.7,1.7L161.9,78.7z M173.2,89.2
	l1.5,1.5l0.3,0.3l0.4,0l-1.7-1.7L173.2,89.2z M161.5,80.6l-1.7-1.7c0,0.1-0.1,0.1-0.1,0.2l1.7,1.7C161.4,80.8,161.4,80.7,161.5,80.6
	z M161.1,88.6l-1.7-1.7l0.1,0.5l1.7,1.7L161.1,88.6z M157.9,81.9l0.1,0.5l1.7,1.7l-0.1-0.5L157.9,81.9z M162.3,72.3
	c0-0.1-0.1-0.3-0.1-0.4l-1.7-1.7c0,0.1,0.1,0.3,0.1,0.4L162.3,72.3z M155.8,88.2l0.9,0.9l0.2,0l-1-1l0,0l-0.7-0.7l-0.2,0L155.8,88.2
	L155.8,88.2z M157.6,80.6L157.6,80.6l1.8,1.8l0,0c0.1,0,0.2,0,0.2-0.1l-1.7-1.7C157.8,80.6,157.7,80.6,157.6,80.6z M161,81.3
	l-1.7-1.7c-0.1,0.1-0.1,0.1-0.2,0.2l1.7,1.7C160.9,81.4,160.9,81.4,161,81.3z M159,85.6L159,85.6l1.7,1.7l-0.1-0.5l-1.7-1.7l0,0
	L159,85.6z M159.3,84.7L159.3,84.7l1,1l0,0l-0.1-0.5l-1.7-1.7l0.1,0.5L159.3,84.7z M161.8,79.8L160,78c0,0.1,0,0.2-0.1,0.3l1.7,1.7
	C161.7,79.9,161.8,79.9,161.8,79.8z M168.2,88.6l-0.4,0l0.9,0.9l0,0l0.8,0.8l0.4,0L168.2,88.6L168.2,88.6z M162.1,76.5l-0.8-0.8
	l-0.9-0.9l0,0.3l0.8,0.8l0,0l1,1L162.1,76.5z M170.6,88.9l1.7,1.7l0.4,0l-1.7-1.7L170.6,88.9z M171.9,89l1.7,1.7h0l0.4,0l-1.7-1.7
	L171.9,89z M92.8,89.1l-1-1h0L91,87.4l-0.3,0l0.9,0.9l0,0l0,0l0.8,0.8L92.8,89.1z M162.2,74.3l-1.7-1.7l0,0.3l1.7,1.7L162.2,74.3z
	 M162.3,73.2l-1.7-1.7l0,0.3l1.7,1.7L162.3,73.2z M162.1,75.4l-0.3-0.3l-1.4-1.4l0,0.3l1.3,1.3l0.5,0.5L162.1,75.4z M166.5,88.4
	l1.7,1.7l0.4,0l-1.7-1.7L166.5,88.4z M166.5,88.4L166.5,88.4L166.5,88.4L166.5,88.4z M165.6,88.3l-0.4,0l1.7,1.7l0.4,0h0L165.6,88.3
	L165.6,88.3z M93.9,89l-1.5-1.5l-0.2-0.2l-0.3,0l0.4,0.4l0,0l1.3,1.3L93.9,89z M158.4,80.3l1.7,1.7c0.1,0,0.1-0.1,0.2-0.1l-1.7-1.7
	C158.5,80.2,158.5,80.2,158.4,80.3z M196.7,79.4l1.7,1.7l0-0.3l-1.7-1.7L196.7,79.4z M189.9,91.6l1.7,1.7l0.4,0.1l-1.7-1.7
	L189.9,91.6z M196.9,78.4l1.7,1.7l0-0.3l-1.7-1.7L196.9,78.4z M197,77.4l1.7,1.7l0-0.3l-1.7-1.7L197,77.4z M190.9,78l-1.7-1.7l0,0.3
	l1.7,1.7L190.9,78z M192.8,76.4l-0.3-0.3l-0.4-0.1l0.7,0.7L192.8,76.4z M189.6,75.8L189.6,75.8l1.4,1.4l0,0l0.4,0.1l-1.6-1.6l0,0
	l-0.1-0.1h0l-0.4-0.1l0,0L189.6,75.8L189.6,75.8z M197.2,76.3l1.7,1.7l0-0.3l-1.7-1.7L197.2,76.3z M191.7,91.9l-0.4-0.1l1.7,1.7
	l0.1,0l0,0l0,0l0.3,0l-0.2-0.2L191.7,91.9z M190.7,79l-1.7-1.7l0,0.3l1.7,1.7L190.7,79z M192.6,91.9l1.7,1.7c0.1,0,0.2,0,0.3-0.1
	l-1.7-1.7C192.8,91.9,192.7,91.9,192.6,91.9z M193.5,91.6l1.7,1.7c0.1,0,0.1-0.1,0.2-0.1l-1.7-1.7C193.6,91.6,193.6,91.6,193.5,91.6
	z M194.7,90.5l1.7,1.7c0-0.1,0.1-0.2,0.1-0.2l-1.7-1.7C194.8,90.3,194.8,90.4,194.7,90.5z M192.6,77.5l0-0.1l-1.6-1.6h0l-0.4-0.1
	l1.7,1.7L192.6,77.5z M190.5,80L190.5,80l-1.7-1.7l0,0.3l1.7,1.7L190.5,80z M196.3,90.5l-1.2-1.2l0,0.3l1.7,1.7l0-0.3L196.3,90.5
	L196.3,90.5z M194.4,91C194.4,91,194.3,91,194.4,91c-0.1,0.1-0.1,0.1-0.1,0.1c0,0,0,0-0.1,0.1l0,0l0.7,0.7l0,0h0l1,1
	c0.1-0.1,0.1-0.1,0.2-0.2l-1-1L194.4,91z M72,86.5L72,86.5L72,86.5l1.7,1.8l0-0.4l-1.5-1.5h0l0,0L72,86.1L72,86.5L72,86.5z M74,75.1
	l-1.7-1.7l-0.3,0l1.7,1.7L74,75.1z M73.9,89.6l0-0.4l-1.7-1.7l0,0.4L73.9,89.6z M91,88.9l0.3,0.3l0.3,0l-1.7-1.7l-0.3,0L91,88.9
	L91,88.9z M104.8,87.2l0-0.3l-1.7-1.7l0,0.3L104.8,87.2z M196.3,83.4l-0.2-0.2l0,0.3l0.1,0.1l1.7,1.7l0-0.3h0L196.3,83.4L196.3,83.4
	z M196.8,89.9l-1.6-1.6l0,0.3l1.7,1.7l0,0l0-0.3L196.8,89.9L196.8,89.9z M196.9,82.8l-0.6-0.6l0,0.3l0.5,0.5l0,0l1.2,1.2l0-0.3
	L196.9,82.8L196.9,82.8z M195.3,87.5l1.7,1.7l0-0.3l-1.7-1.7L195.3,87.5z M195.7,85.5l1.7,1.7l0-0.3v0l-1.7-1.7L195.7,85.5z
	 M195.5,86.5l1.7,1.7l0-0.3l-1.7-1.7L195.5,86.5z M197.9,74.6L197.9,74.6l1.2,1.2c-0.1-0.2-0.1-0.4-0.3-0.6l-1.7-1.7
	c0.1,0.2,0.2,0.4,0.3,0.6L197.9,74.6z M70.3,89.6l1.7,1.7l0.3,0l-1.7-1.7L70.3,89.6z M84.5,75.3l0.3,0l-0.5-0.5l0,0.4L84.5,75.3z
	 M84.6,73.9L84.6,73.9l-0.3-0.3l0,0.4l0.1,0.1l0,0l0,0l1.2,1.2l0.3,0L84.6,73.9L84.6,73.9z M74.1,73.2l1.7,1.7l0.3,0l-1.7-1.7
	L74.1,73.2z M71.4,89.4l1.7,1.7l0.3,0l-1.7-1.7L71.4,89.4z M73.1,73.3l1.7,1.7l0.3,0l-1.7-1.7L73.1,73.3z M72.3,88.8l0,0.4l1.7,1.7
	l0-0.4L72.3,88.8z M73.6,86.9l0-0.4l-0.8-0.8l0,0l0,0l-0.9-0.9l0,0.4L73.6,86.9z M89.5,89.4l-1.7-1.7l-0.3,0l1.7,1.7L89.5,89.4z
	 M88.4,89.5l-1.7-1.7l-0.3,0l1.7,1.7L88.4,89.5z M90.6,89.3l-1.7-1.7h0l-0.3,0l1.7,1.7L90.6,89.3z M84.5,88.3l1.4,1.4h0l0.3,0
	l-1.5-1.5l-0.2-0.2l-0.3,0h0L84.5,88.3L84.5,88.3z M83.9,88.9l0.9,0.9l0.3,0l-1-1l0,0L83.3,88L83,88L83.9,88.9L83.9,88.9z M87,89.6
	l0.3,0l-1.7-1.7l-0.3,0L87,89.6L87,89.6z M177.8,82.9l0-0.2l-1.1-1.1l0,0l-0.6-0.6l0,0.2h0l0,0l-0.1,0l1.7,1.7L177.8,82.9z
	 M171.9,82.8l-1.7-1.7l0,0.3l1.7,1.7L171.9,82.8z M176.7,82.8l-1.7-1.7l-0.4,0l1.7,1.7L176.7,82.8z M175.4,82.7l-1.7-1.7l-0.4,0
	l1.7,1.7L175.4,82.7z M183.7,90.1c0.6,0.6,1.2,1.2,1.7,1.7c0.2,0.2,0.5,0.4,0.8,0.6l-1.7-1.7C184.2,90.5,183.9,90.3,183.7,90.1z
	 M185.6,90.9l1.7,1.7l0.4,0.1l-1.7-1.7L185.6,90.9z M187,91.1l1.7,1.7l0.4,0.1l-1.7-1.7L187,91.1z M171.9,80.7l1.7,1.7l0.4,0
	l-1.7-1.7L171.9,80.7z M68.6,89.9l-0.1-0.1l-0.3,0l0.3,0.3l1.5,1.5l0.3,0L68.6,89.9L68.6,89.9z M179.5,70.5l0.6,0.6l0,0l1.1,1.1
	l0-0.3l-1.7-1.7L179.5,70.5z M69.2,89.7l1.7,1.7l0.3,0l-1.7-1.7L69.2,89.7z M188.5,91.3l1.7,1.7l0.4,0.1l-1.7-1.7L188.5,91.3z
	 M171.8,83.8l-1.7-1.7l0,0.3l1.7,1.7L171.8,83.8z M170.6,80.6l1.7,1.7l0.4,0l-1.7-1.7L170.6,80.6L170.6,80.6L170.6,80.6L170.6,80.6
	L170.6,80.6L170.6,80.6z M85.6,83.5l0.3,0L85,82.6l0,0.4L85.6,83.5z M123.8,71.5l0.2,0.5l1.6,1.6v-0.3l0-0.1v0L123.8,71.5z
	 M130,73.2l1.7,1.7v-0.3l-1.7-1.7V73.2z M91.9,68l0,0.4l1.7,1.7l0-0.4L91.9,68z M92,69.3l0,0.4l1.7,1.7l0-0.4L92,69.3z M112.2,71.8
	l-1.7-1.7c0,0,0,0,0,0l0,0.3l1.7,1.7L112.2,71.8C112.2,71.8,112.2,71.8,112.2,71.8z M125.6,75.6l-0.3-0.3l0.2,0.4l0,0l0,0l0,0.1
	l0.1,0.1L125.6,75.6L125.6,75.6L125.6,75.6L125.6,75.6z M121.8,66.2l0,0.1l1.7,1.7l0-0.1L121.8,66.2z M124.3,70.8l-0.5-0.5l0,0
	l-0.7-0.7l0.2,0.5h0l0.3,0.3l0,0l1.4,1.4l-0.2-0.5L124.3,70.8z M111.7,70.1l-1-1l0,0l-0.8-0.8c0.1,0.1,0.1,0.2,0.2,0.3
	c0.1,0.1,0.1,0.2,0.2,0.4l0.3,0.3l0,0l0,0l1.4,1.4c0-0.1-0.1-0.2-0.2-0.4C111.8,70.3,111.8,70.2,111.7,70.1z M107.2,86.9L107.2,86.9
	l-0.4-0.4l-0.2,0l0.4,0.4l0,0l0,0l1.3,1.3l0.2,0L107.2,86.9L107.2,86.9z M108.8,86.5l1.7,1.7l0.3,0l-1.7-1.7L108.8,86.5z
	 M107.7,86.6l1.7,1.7l0.3,0l-1.7-1.7L107.7,86.6z M110,86.5l1.7,1.7l0.3,0l-1.7-1.7L110,86.5z M111.2,86.2l0.1,0.3l-0.2,0l1.7,1.7
	l0.2,0l-0.1-0.3L111.2,86.2z M125.6,74.5l-1-1l0,0l0.2,0.5l0.8,0.8L125.6,74.5z M130,68.5l1.4,1.4l0,0l0.3,0.3v-0.3l-0.2-0.2h0
	l-1.6-1.6V68.5z M91.3,73.4l-1.7-1.7l-0.3,0l1.7,1.7L91.3,73.4z M90.6,75.1L90.6,75.1l-0.3-0.3l0,0.3l0.1,0.1l1.6,1.6l0-0.3
	L90.6,75.1z M131.7,68.7L130,67v0.3l1.7,1.7V68.7z M153.6,82.6l-0.1-0.4l-1.6-1.6l0,0.3L153.6,82.6L153.6,82.6z M130,70.9l1.7,1.7
	v-0.3l-1.4-1.4l0,0l-0.4-0.4V70.9z M130,69.7l0.8,0.8l0.9,0.9v-0.3l-1.7-1.7V69.7z M121,76.1L121,76.1L121,76.1L121,76.1z M121,78.2
	l0,0.3l0.9,0.9l0.6,0.6l-0.2-0.5l-0.2-0.2l0,0L121,78.2L121,78.2z M90.4,76l0,0.4l1.7,1.7l0-0.4L90.4,76z M121,77.3l0.7,0.7
	l-0.2-0.5L121,77L121,77.3z M92.1,70.6l0,0.4l1.3,1.3l0,0l0.5,0.5l0-0.4l-0.3-0.3l0,0L92.1,70.6z M90.5,77.3l0,0.4l1.7,1.7l0-0.4
	L90.5,77.3z M90.3,71.6l1.7,1.7l0.2,0l0.1,0l0,0l-1.7-1.7L90.3,71.6z M91.4,71.5l1.3,1.3l0,0l0,0l0.4,0.4l0.3,0L93,72.7l0,0
	l-1.2-1.2L91.4,71.5z M124.3,69.8l-0.2-0.4l-1.7-1.7l0.2,0.5v0L124.3,69.8L124.3,69.8L124.3,69.8l0,0.1L124.3,69.8L124.3,69.8z
	 M102.8,75.7l0.3,0l-0.5-0.5l0,0.3L102.8,75.7z M103.5,83.5L103.5,83.5L103.5,83.5l1.2,1.2l0-0.3l-1-1l0,0l-0.7-0.7l0,0.3l0,0
	L103.5,83.5z M103.9,75.7l0.3,0l0,0l0,0l0,0l-1.6-1.6l0,0.3L103.9,75.7z M103.9,70.9l1.7,1.7l0.3,0l-1.7-1.7L103.9,70.9z
	 M110.5,71.3l0,0.3l1.7,1.7l0-0.3L110.5,71.3z M104.3,74.5l-1.7-1.7l0,0.3l1.7,1.7L104.3,74.5z M102.5,71.9l1.7,1.7l0-0.3l-1.7-1.7
	L102.5,71.9z M103.1,70.9l-0.3,0l1.7,1.7l0.3,0L103.1,70.9L103.1,70.9z M101.9,86.8l1.7,1.7l0.3,0l-1.7-1.7L101.9,86.8z M100.8,86.8
	l1.7,1.7l0.3,0l-1.7-1.7L100.8,86.8z M104.8,88.5l0-0.3l-1.7-1.7l0,0.3L104.8,88.5z M104.6,82.3l0-0.3l-1.7-1.7l0,0.3L104.6,82.3z
	 M103.8,80l-0.3,0l0.8,0.8l-0.2-0.6L103.8,80z M100.1,86.9l-0.1-0.1l-0.3,0l0.3,0.3l0,0l1.5,1.5l0.3,0L100.1,86.9L100.1,86.9z
	 M98.8,86.9l0.7,0.7l0,0l0,0l1.1,1.1l0,0L98.8,86.9L98.8,86.9z M104.6,83.5l0-0.3l-1.7-1.7l0,0.3L104.6,83.5z M108.8,79.4
	C108.8,79.4,108.8,79.4,108.8,79.4l1.7,1.7h0c0.1,0,0.1-0.1,0.2-0.1l-1.7-1.7C109,79.3,108.9,79.4,108.8,79.4z M110.8,83.4
	L110.8,83.4L110.8,83.4l-1.2-1.2v0l0.2,0.6l0.8,0.8l0,0l0,0l0.9,1v0l-0.2-0.6v0L110.8,83.4z M112.4,77.9l-1.7-1.7l0,0l-0.1-0.1
	c0,0,0,0.1,0,0.1c0,0,0,0,0,0v0c0,0.1,0,0.1,0,0.2l1.7,1.7C112.4,78.1,112.4,78,112.4,77.9z M105.4,70.8l-0.3,0l1.2,1.2l0-0.3
	L105.4,70.8z M110.6,72.5l0,0.3l1.7,1.7l0-0.3L110.6,72.5z M111.9,76.2l-0.5-0.5l0,0l0,0l-0.7-0.7l0,0.3l0.5,0.5l1.2,1.2l0-0.3
	L111.9,76.2z M112,75.1L112,75.1L112,75.1l-1.4-1.4l0,0.3l1.7,1.7l0-0.3L112,75.1z M112.4,86.5l-0.2-0.6l-1.7-1.7l0.2,0.6
	L112.4,86.5z M83.5,89.3L83.5,89.3l-1.2-1.2l-0.3,0l1.4,1.4l0.4,0.4l0.3,0L83.5,89.3L83.5,89.3z M108.8,80.2L108.8,80.2L108.8,80.2
	L108.8,80.2z M103,84.1l0,0.2l1.7,1.7l0-0.3l-1.7-1.7L103,84.1L103,84.1L103,84.1z M109,80.8L109,80.8l1.7,1.7l-0.2-0.6l-1.7-1.7
	L109,80.8z M109.5,78.9l1.7,1.7c0.1-0.1,0.1-0.1,0.2-0.2l-1.7-1.7C109.7,78.8,109.6,78.9,109.5,78.9z M112.3,79l-1.7-1.7l0,0
	c0,0.1-0.1,0.2-0.1,0.3l1.7,1.7C112.3,79.2,112.3,79.1,112.3,79z M110.1,78.2L110.1,78.2l1.7,1.8c0,0,0,0,0.1-0.1
	c0,0,0.1-0.1,0.1-0.1l-1.7-1.7C110.2,78.1,110.2,78.2,110.1,78.2z M130,72l1.7,1.7v-0.3l-1.7-1.7V72z M153.4,85.6l-1.1-1.1l-0.7-0.7
	l0,0.3l1.7,1.7L153.4,85.6z M153.5,84.5l-1.7-1.7l0,0.3l1.7,1.7L153.5,84.5z M153.2,81l-0.1-0.4l-0.3,0L153.2,81z M153.5,83.4
	L153.5,83.4l-1.7-1.7l0,0.3l1.7,1.7L153.5,83.4z M153.1,88.9l-1.7-1.7l-0.4,0l1.7,1.7L153.1,88.9z M153.3,86.7l-1.6-1.6l-0.2-0.2
	l0,0.3l1.7,1.7L153.3,86.7z M87.4,79.4l1.7,1.7l0.3,0h0l-1.7-1.7L87.4,79.4z M147.2,86.8l1.7,1.7l0.4,0l-1.7-1.7L147.2,86.8z
	 M150.5,88.7l-1.7-1.7l-0.4,0l1.7,1.7L150.5,88.7z M153.2,87.8l-1.7-1.7l0,0.3l1.7,1.7L153.2,87.8z M86.7,79.4l-0.3,0l1.7,1.7l0.3,0
	L86.7,79.4L86.7,79.4z M151.8,88.8l-1.7-1.7l-0.2,0l0,0l0,0l-0.1,0h0l1.7,1.7L151.8,88.8z M94.1,85.7L94.1,85.7l-0.9-0.9l0,0.4
	l0.7,0.7l1,1l0-0.4L94.1,85.7z M154.3,73.4l-1.7-1.7l0,0.3l1.7,1.7L154.3,73.4z M154.2,74.5l-1.7-1.7l0,0.3l1.7,1.7L154.2,74.5z
	 M153.9,75.8l0.1,0.1l0-0.3l0,0l0,0l-1.7-1.7l0,0.3L153.9,75.8L153.9,75.8z M155.3,73.2l-1.7-1.7l-0.4,0l1.7,1.7L155.3,73.2z
	 M95,88.9l-1.7-1.7l-0.3,0l1.7,1.7L95,88.9z M88.5,79.3l1.7,1.7h0l0.3,0l-1.7-1.7L88.5,79.3z M153.6,76.3l-1.3-1.3l0,0.3l0.9,0.9
	L153.6,76.3z M95.1,87.9l-1.5-1.5l0,0l-0.2-0.2l0,0.4l1.7,1.7L95.1,87.9z M85.1,80.6L85.1,80.6L85.1,80.6L85.1,80.6l1.5,1.5l0-0.4
	l-1.3-1.3L84.8,80l0,0.4L85.1,80.6z M86.7,83.4l0-0.4l-1.7-1.7l0,0.4L86.7,83.4z M94.8,85.2L94.8,85.2L94.8,85.2l-1.6-1.6l0,0.4
	l1.4,1.4l0.3,0.3l0-0.4L94.8,85.2z M154.4,71.5l1.7,1.7l0-0.3l-1.3-1.3L154.4,71.5z M85.8,79.8l-0.3-0.3l-0.3,0h0l0.4,0.4l0,0l0,0
	l1.3,1.3l0.3,0L85.8,79.8L85.8,79.8z M156.2,71.8l-0.1-0.1l-0.4,0l0.5,0.5L156.2,71.8z M152.2,76.2L152.2,76.2L152.2,76.2
	L152.2,76.2z M130,79.2l1.7,1.7v-0.3l-1.7-1.7V79.2z M126.4,86.3l1.7,1.7h0.3l-0.5-0.5l-1.3-1.3H126.4z M130,86.3L130,86.3l1.7,1.7
	h0v-0.3l-1.7-1.7V86.3z M130,85.1l1.7,1.7v-0.3l-1.7-1.7V85.1z M127.9,86.3h-0.3l1.7,1.7h0.3l-1.1-1.1L127.9,86.3z M128.8,86.3
	l1.7,1.7h0.3l-1.7-1.7H128.8z M118.1,86.3l1.7,1.7h0.3l-1.7-1.7H118.1z M125.2,86.3l1.7,1.7h0.3l-1.7-1.7H125.2z M130,83.9l0.8,0.8
	l0.9,0.9v-0.3l-0.8-0.8h0l0,0l-1-1V83.9z M130,76.8l0.8,0.8l0.9,0.9v-0.3l-1.7-1.7V76.8z M130,75.6l1.4,1.4v0l0,0l0.3,0.3l0-0.3
	l-0.2-0.2h0l-1.6-1.6V75.6z M130,78l0.2,0.2l0,0l1.5,1.5v-0.3l-1.7-1.7V78z M130,74.4l1.7,1.7v-0.3l-1.7-1.7V74.4z M130,82.7
	l1.4,1.4l0.3,0.3v-0.3l-0.2-0.2h0l-1.6-1.6V82.7z M130,81.5l1.7,1.7v-0.3l-1.7-1.7V81.5z M89.6,79.2l1.7,1.7l0.3,0L90,79.2
	L89.6,79.2z M130,80.3l1.7,1.7v-0.3L130,80V80.3z M89.1,73.6l-1.7-1.7l-0.3,0l1.7,1.7L89.1,73.6z M86.3,72.3l1.4,1.4l0.3,0l-1.6-1.6
	l0,0l0,0l-0.2-0.2l-0.3,0L86.3,72.3L86.3,72.3z M90.2,73.5l-1.7-1.7l-0.3,0l1.7,1.7L90.2,73.5z M92.2,80.6L92.2,80.6L92.2,80.6
	l0.2,0.2l0-0.3l0,0l0,0l0-0.1l-1.7-1.7l0,0.4L92.2,80.6z M116.9,86.3l1.7,1.7h0.3l-1.7-1.7H116.9z M85.1,73.4L85.1,73.4L85.1,73.4
	l0.9,0.9l0-0.4l-0.7-0.7l0,0l-1-1l0,0.4L85.1,73.4z M85.7,72.9l0.9,0.9l0.3,0l-1.1-1.1l0,0l0,0L85.2,72l-0.3,0L85.7,72.9L85.7,72.9z
	 M121,79.7l0.3,0.3l0,0l1.5,1.5l0,0l0-0.3l-1.3-1.3l0,0l0,0l-0.4-0.4V79.7z M120.4,86.3l1.7,1.7h0.3l-1.7-1.7H120.4z M121,80.9
	L121,80.9l1.7,1.7v-0.3l-1.7-1.7L121,80.9z M119.3,86.3L121,88h0.3l-0.5-0.5l0,0l-1.3-1.3H119.3z M121,85.6l1.7,1.7V87l-0.7-0.7l0,0
	l-1-1L121,85.6z M121,82.1l1.7,1.7l0-0.3l-1.7-1.7V82.1z M121,84.4l1.7,1.7l0-0.3l-0.1-0.1l0,0l0,0l-1.6-1.6V84.4z M121,83.3
	l1.7,1.7v-0.3l-1.7-1.7L121,83.3z M195.9,84.5l1.7,1.7l0-0.3l-1.7-1.7L195.9,84.5z M243.1,93.7l1.7,1.7l0.1-0.2l-1.7-1.7L243.1,93.7
	z M242.8,94.6l1.7,1.7l0.1-0.2l-1.7-1.7L242.8,94.6z M243.8,92.9l-0.3-0.3l-0.1,0.2l0.2,0.2l0,0l1.5,1.5l0.1-0.2L243.8,92.9
	L243.8,92.9z M243.8,91.7l-0.1,0.2l0.5,0.5l1.3,1.3l0.1-0.2l-1.2-1.2L243.8,91.7z M242.5,95.5l1.7,1.7l0.1-0.2l-1.7-1.7L242.5,95.5z
	 M245,91.7l-0.8-0.8l-0.1,0.2l1.7,1.7l0.1-0.2L245,91.7L245,91.7z M236.5,104.6L236.5,104.6L236.5,104.6L236.5,104.6z M241.5,98.1
	l1.7,1.7l0.1-0.2l-1.7-1.7L241.5,98.1z M242.2,96.4l1.7,1.7l0.1-0.2l-1.7-1.7L242.2,96.4z M245.6,86.7l1.7,1.7l0.1-0.2l-1.7-1.7
	L245.6,86.7z M238.5,104.2l-0.5-0.2l1.7,1.7l0.5,0.2l-1.2-1.2L238.5,104.2z M236.1,103.3l1.7,1.7l0.5,0.2l-1.7-1.7L236.1,103.3z
	 M234.5,102.8l1.7,1.7l0.3,0.1l-1.7-1.7L234.5,102.8z M245.3,87.6l1.7,1.7l0.1-0.2l-1.7-1.7L245.3,87.6z M244.7,89.4l1.7,1.7
	l0.1-0.2l-1.7-1.7L244.7,89.4z M245,88.5l1.6,1.6l0.1,0.1l0.1-0.2l-1.7-1.7L245,88.5z M244.3,90.2l1,1l0,0l0.7,0.7l0.1-0.2l-1.7-1.7
	L244.3,90.2z M241.9,97.2l1.7,1.7l0.1-0.2l-1.7-1.7L241.9,97.2z M231.1,100.7l1.7,1.7l0.1-0.2l-1.7-1.7L231.1,100.7z M240,84.7
	l0-0.2l-1.7-1.7l0,0.2L240,84.7z M231.4,99.8l1.7,1.7l0.1-0.2l-1.7-1.7L231.4,99.8z M232,98.1l1.7,1.7l0.1-0.2l-1.7-1.7L232,98.1z
	 M231.7,99l1.7,1.7l0.1-0.2l-1.7-1.7L231.7,99z M238.4,86.3l0,0.3l1.7,1.7l0-0.3l0,0L238.4,86.3z M238.3,84.2l1.7,1.7l0-0.3
	l-1.7-1.7L238.3,84.2z M238.4,85.4l1.7,1.7l0-0.3l-1.7-1.7L238.4,85.4z M240.8,103L240.8,103l-0.7-0.7l-0.1,0.2l0.6,0.6l1.1,1.1
	l0.1-0.2L240.8,103L240.8,103z M240.6,100.7l1.2,1.2h0l0,0l0.5,0.5l0.1-0.2l-1.7-1.7L240.6,100.7z M241.4,102.4l-1-1l-0.1,0.2
	l0.9,0.9l0,0l0.8,0.8l0.1-0.2L241.4,102.4L241.4,102.4z M232.4,97l-0.1,0.2l1.7,1.7l0.1-0.2L232.4,97L232.4,97z M240.9,99.9l1.7,1.7
	l0.1-0.2l-1.7-1.7L240.9,99.9z M239.5,104l-0.1,0.2l1.7,1.7l0.1-0.2l-1.6-1.6L239.5,104z M241.2,99l1.7,1.7l0.1-0.2l-1.7-1.7
	L241.2,99z M240.2,103.6L240.2,103.6l-0.4-0.4l-0.1,0.2l0.3,0.3l1.4,1.4l0.1-0.2L240.2,103.6L240.2,103.6z M215.7,92.5l0.1,0.1
	l0.5,0.1l-0.4-0.4l0,0l-0.7-0.7l-0.1,0.3L215.7,92.5L215.7,92.5z M8.4,89.1l-1.6-1.6l0,0l0,0l-0.2-0.2l0.1,0.2l0,0l0,0L7,88h0
	l1.7,1.7L8.4,89.1z M13.4,102.4l-0.2-0.2l-0.3,0.1h0l0.3,0.3l1.5,1.5l0.3-0.1L13.4,102.4L13.4,102.4z M11.6,104.1l-1.1-1.1l-0.3,0.1
	l1.2,1.2l0.5,0.5l0.3-0.1L11.6,104.1L11.6,104.1z M12.3,102.5l-0.3,0.1l1.7,1.7l0.3-0.1l-1.3-1.3L12.3,102.5z M12.2,103.5l-0.8-0.8
	l-0.3,0.1l1.7,1.7l0.3-0.1L12.2,103.5L12.2,103.5z M7.3,87.1L7.3,87.1l0.5,0.5l-0.3-0.6l0,0l0,0h0l-1.7-1.7L6,85.8L7.3,87.1
	L7.3,87.1z M219.4,83.9l-1.1-1.1l0,0l-0.6-0.6l-0.1,0.3l1.7,1.7L219.4,83.9z M219.6,83L219.6,83L219.6,83l-0.8-0.8l0,0l-0.9-0.9l0,0
	l-0.1,0.2l1.7,1.7L219.6,83z M219,85.1l0.1-0.3l-1.5-1.5l-0.3-0.3l-0.1,0.3L219,85.1L219,85.1z M15.7,99.1l-0.1-0.4l-1.7-1.7
	l0.1,0.4L15.7,99.1z M13.7,95.9l1.7,1.7l-0.1-0.4l-1.7-1.7L13.7,95.9L13.7,95.9z M15.6,100.2l0.3,0.3l-0.1-0.4l-0.1-0.1h0l0,0l0,0
	l-1.6-1.6l0.1,0.4L15.6,100.2z M14.6,101.2l0.1,0.4l1.7,1.7l-0.1-0.4L14.6,101.2z M13.9,102l1.7,1.7l0.3-0.1l-1.7-1.7L13.9,102z
	 M13.8,94.8L13.8,94.8L13.8,94.8l1.4,1.4l-0.1-0.4L14,94.7l0,0L13.4,94l0,0l0.1,0.4l0,0L13.8,94.8z M15.4,97.6L15.4,97.6L15.4,97.6
	L15.4,97.6z M13.9,85l0.3,0.7l0.8,0.8l0,0l0.9,0.9l0,0l-0.3-0.7l-0.4-0.4l0,0L13.9,85L13.9,85z M5.7,85.2L5.7,85.2L5.7,85.2
	L5.7,85.2z M15,100.7L15,100.7l1.2,1.2l-0.1-0.4l-0.9-0.9l0,0l0,0l-0.8-0.8l0.1,0.4L15,100.7z M246,85.6l-0.1,0.2l1.7,1.7l0.1-0.2
	L246,85.6z M229.2,100.9l-0.5-0.2l0,0l0,0l1.7,1.7l0.5,0.2L229.2,100.9L229.2,100.9z M218.9,85.8l-1.7-1.7l-0.1,0.3l1.7,1.7
	L218.9,85.8z M226.9,100.1l1.3,1.3h0l0.5,0.5l0.5,0.2l-1.7-1.7L226.9,100.1z M13.9,84.2l0.9,0.9l-0.3-0.7l-1.7-1.7l0.3,0.7
	L13.9,84.2z M224.9,86.2l1.7,1.7l0.1-0.3l-1.7-1.7L224.9,86.2z M221.1,83.4l0-0.1l-1.6-1.6h0l-0.2,0l0,0l-0.3-0.1l1.7,1.7
	L221.1,83.4z M218.3,87.9l0.1-0.3l-1.7-1.7l-0.1,0.3L218.3,87.9L218.3,87.9z M218.6,86.7l-1.7-1.7l-0.1,0.3l1.7,1.7L218.6,86.7z
	 M218.1,88.6l-1.7-1.7l-0.1,0.3l1.7,1.7L218.1,88.6z M217.6,90.5L217.6,90.5L217.6,90.5l-1.7-1.8l-0.1,0.3l1.7,1.7L217.6,90.5z
	 M217.4,91.4l-1.7-1.7l-0.1,0.3l1.7,1.7L217.4,91.4z M217,92.6l0.1-0.3l-1.7-1.7l-0.1,0.3L217,92.6L217,92.6z M217.9,89.5l-1.7-1.7
	l-0.1,0.3l1.7,1.7L217.9,89.5z M221.4,82.4l-0.2-0.2l-0.5-0.1l0.6,0.6L221.4,82.4z M233.5,96l0.2-0.2v0l-0.6-0.6l-0.1,0.2L233.5,96
	L233.5,96z M233.1,96.4L233.1,96.4L233.1,96.4l-0.3-0.3l-0.1,0.2l0.3,0.3l0,0l1.5,1.5l0,0l0-0.3L233.1,96.4z M35,89.6l-0.8-0.8l0,0
	l-0.9-0.9L33,87.9l1,1l0.7,0.7L35,89.6z M33.4,89.5l0.9,0.9l-0.1-0.4l-0.6-0.6l0,0l0,0l-1.1-1.1l0.1,0.4L33.4,89.5z M41.4,91.2
	l0.1,0.4l1.7,1.7l-0.1-0.4l0,0L41.4,91.2z M38.5,78.8l-0.2,0.1l1.7,1.7l0.2-0.1l0-0.1L38.5,78.8L38.5,78.8z M42.9,91.8L42.9,91.8
	L41.1,90l0,0L42.9,91.8z M234.3,94.1l-0.6-0.6l-0.1,0.2l0.7,0.7L234.3,94.1z M37.9,88.9L37.9,88.9l-1.7-1.7h0l-0.3,0.1l1.7,1.7
	L37.9,88.9z M14.8,85.1L14.8,85.1L14.8,85.1L14.8,85.1z M234.3,95.6l0-0.3l0,0l0,0l-0.9-0.9l-0.1,0.2l0.8,0.8L234.3,95.6z
	 M43.1,94.1L43.1,94.1l-0.7-0.7l-0.7-0.7l0.1,0.4l1,1l0,0l0,0l0.7,0.7l-0.1-0.4L43.1,94.1L43.1,94.1z M38.9,88.7l-1.7-1.7L36.8,87
	l1.7,1.7L38.9,88.7z M233.5,96l0.8,0.8l0-0.3l-0.7-0.7L233.5,96L233.5,96z M36.9,89.1L36.9,89.1l-1.6-1.6l-0.2-0.2l-0.3,0.1l0.3,0.3
	l0,0l1.5,1.5L36.9,89.1z M36,89.3l-1.2-1.2l-0.5-0.5L34,87.7l0.6,0.6l0,0l1.1,1.1L36,89.3z M57.9,83.1l1.7,1.7h0l0.1,0.1
	c0,0,0-0.1,0-0.1c0,0,0,0,0,0c0,0,0,0,0,0c-0.1-0.1-0.1-0.3-0.2-0.4l-1.7-1.7C57.7,82.7,57.8,82.9,57.9,83.1z M58.5,85.7l-0.2-0.2
	l0,0.3l0,0l0,0l0,0.1l1.7,1.7l-0.1-0.4L58.5,85.7L58.5,85.7z M58.7,87.4l1.7,1.7l-0.1-0.4L58.6,87L58.7,87.4z M59.1,85.2L59.1,85.2
	l-1-1l0.1,0.4l1.7,1.7l-0.1-0.4L59.1,85.2L59.1,85.2z M234.2,91.9L234.2,91.9L234.2,91.9L234.2,91.9L234.2,91.9z M74.1,70.8l1.7,1.7
	l0-0.4l-1.7-1.7L74.1,70.8z M74.3,72.2l1.7,1.7l0-0.4l-1.7-1.7L74.3,72.2z M55.8,80.6l-1.7-1.7l-0.3,0l1.7,1.7L55.8,80.6z
	 M74.4,69.9L74.4,69.9l1.3,1.3l0-0.4l-1.1-1.1l-0.6-0.6l0,0.4L74.4,69.9z M56.6,80.5L56.6,80.5l0.2,0l-1.7-1.7l-0.3,0.1L56.6,80.5
	L56.6,80.5z M56.9,77.4l1.4,1.4h0l0.2,0.2l0.2,0.2l-0.1-0.4l-0.1-0.1l0,0l0,0L56.9,77L56.9,77.4z M56.9,77L56.9,77L56.9,77L56.9,77z
	 M56.7,75.9l1.7,1.7l-0.1-0.4l-1.7-1.7L56.7,75.9z M58.2,76.2l-0.1-0.4l-1.7-1.7l0.1,0.4L58.2,76.2z M57.9,79.2L57.9,79.2l-0.8-0.8
	l-0.3,0.1l1,1l0,0l0.8,0.8l0.3-0.1L57.9,79.2L57.9,79.2z M54.8,80.8L53,79.1l-0.2,0l1.7,1.7L54.8,80.8z M57.2,80l0.4,0.4l0.3,0
	l-0.5-0.5l0,0l-1.3-1.3l-0.3,0L57.2,80L57.2,80z M234.3,92.9l-0.3-0.3l-0.1,0.2l0.4,0.4L234.3,92.9z M21.4,91.7l1.4,1.4l0.4,0.4
	L23,93l-0.1-0.1l0,0l-1.6-1.6L21.4,91.7z M21.1,90.3l1.7,1.7l-0.1-0.4l-1.7-1.7L21.1,90.3z M73.2,85.3L73.2,85.3l0.2,0.2l0-0.4l0,0
	l0,0l0,0l-1.7-1.7l0,0.4L73.2,85.3z M239.2,91.8l-0.7-0.7l0,0.3l0.6,0.6L239.2,91.8z M22.3,93.5l-0.4-0.4l-0.4-0.4l0.1,0.4l0.5,0.5
	l0,0l0,0l1.2,1.2l-0.1-0.4L22.3,93.5L22.3,93.5z M20.9,88.8l1.7,1.7l-0.1-0.4l-1.7-1.7L20.9,88.8z M239.8,90.1l-1.3-1.3l0,0.3
	l1.3,1.3L239.8,90.1z M240.1,89.2l-1.7-1.7l0,0.3l1.6,1.6L240.1,89.2z M20,83.2l1.7,1.7l-0.1-0.4l-1.7-1.7L20,83.2z M19.9,81.6
	l-0.2-0.2l0.1,0.4l0,0l1.7,1.7l-0.1-0.4L19.9,81.6L19.9,81.6z M20.3,81.2L20.3,81.2l0.9,0.9l-0.1-0.4L20.5,81l-1-1l0.1,0.4
	L20.3,81.2z M21.8,94.5l0.9,0.9l0.9,0.9l-0.1-0.4l-1.7-1.7L21.8,94.5z M20.7,87.4l0.3,0.3l0,0l1.5,1.5l-0.1-0.4L20.6,87L20.7,87.4z
	 M238.8,93l0.1-0.2l-0.3-0.3l0,0.3L238.8,93z M21.7,86.9L21.7,86.9l-1.3-1.3l0.1,0.4l1.1,1.1l0,0l0.6,0.6l-0.1-0.4L21.7,86.9
	L21.7,86.9z M20.2,84.6l1.7,1.7l-0.1-0.4l-1.7-1.7L20.2,84.6z M22.3,97.3l1.6,1.6v0l0,0l0.1,0.1l0-0.1l0,0l0-0.2l-1.7-1.7L22.3,97.3
	z M36.4,79.4l1.7,1.7l0.3-0.1l-1.7-1.7L36.4,79.4L36.4,79.4L36.4,79.4L36.4,79.4L36.4,79.4L36.4,79.4z M34,81.8l0.2,0.2l0.3-0.1
	l-0.3-0.3l0,0l-1.4-1.4l-0.3,0.1L34,81.8L34,81.8z M34.6,81.2l0.6,0.6l0.3-0.1L34.8,81l-1-1L33.5,80L34.6,81.2L34.6,81.2z M35.8,80
	l1.3,1.3l0.3-0.1L36,79.8l0,0l-0.3-0.3l-0.3,0.1L35.8,80L35.8,80z M35.2,80.6l1,1l0.3-0.1l-1.1-1.1l-0.7-0.7l-0.3,0.1L35.2,80.6
	L35.2,80.6z M39.6,87.4l-0.1-0.4l-1.7-1.7l0.1,0.4l0,0L39.6,87.4z M33.6,82.2l-1.7-1.7l-0.3,0.1l1.7,1.7L33.6,82.2z M32.5,82.6
	l-0.1-0.2l0.1,0l-1.7-1.7l-0.1,0l0.1,0.2L32.5,82.6z M39.3,80.8l-1.7-1.7l-0.3,0.1l1.7,1.7L39.3,80.8z M230.8,101.5L230.8,101.5
	L230.8,101.5l-0.3-0.1l1.7,1.7l0.2,0.1l0-0.1l-1.7-1.7L230.8,101.5z M22,95.9l1.7,1.7l-0.1-0.4L22,95.5L22,95.9z M39.8,88.4
	l-1.7-1.7l-0.3,0.1l1.7,1.7L39.8,88.4z M38.7,77L38.7,77L38.7,77L38.7,77l0.9,0.9l-0.1-0.4l-0.6-0.6l-1.2-1.2l0.1,0.4L38.7,77z
	 M38.8,84.1L38.8,84.1l-1.6-1.6l0,0L38.8,84.1L38.8,84.1L38.8,84.1l0.1,0.2l0,0L38.8,84.1z M38.3,84.6L38.3,84.6l-0.9-0.9l0.1,0.4
	l0.6,0.6l0,0l1.1,1.1l-0.1-0.4L38.3,84.6z M38.1,77.2l0.1,0.3l0,0l0,0l0,0.1l1.7,1.7L39.9,79l-1.5-1.5L38.1,77.2z M239.5,91
	l-0.5-0.5l0,0l-0.5-0.5l0,0.3l0.9,0.9L239.5,91z M197.4,75.1C197.4,75.1,197.4,75.1,197.4,75.1C197.4,75.1,197.4,75.1,197.4,75.1
	c0,0.1,0,0.1,0,0.2l0,0.1l1.7,1.7l0,0c0-0.1,0-0.2,0-0.3L197.4,75.1C197.4,75,197.4,75.1,197.4,75.1z M193.1,79.4l1.4,1.4l0.4,0.1
	l-1.7-1.7h0l-0.4-0.1L193.1,79.4z M197.8,81.3l-1.7-1.7l-0.4-0.1l1.7,1.7L197.8,81.3z M205.2,95.8l-1.7-1.7l-0.4-0.1l1.7,1.7
	L205.2,95.8L205.2,95.8L205.2,95.8L205.2,95.8L205.2,95.8z M201.6,93.8l1.7,1.7l0.4,0.1l-1.7-1.7L201.6,93.8z M200.4,93.5
	L200.4,93.5L200.4,93.5l-0.3-0.1l0.2,0.2l1.6,1.6l0.4,0.1L200.4,93.5L200.4,93.5z M196.4,81.1l-1.7-1.7l-0.4-0.1L196,81L196.4,81.1z
	 M50.6,79.3l-0.1-0.4l-1.7-1.7l0.1,0.4L50.6,79.3z M51.2,78.5l-1.7-1.7l-0.3,0l1.7,1.7L51.2,78.5z M51.8,78.2l0.1,0.1l0.3-0.1L52,78
	l0,0l-1.5-1.5l-0.3,0L51.8,78.2L51.8,78.2z M52.3,76.2L52.3,76.2L52.3,76.2L52.3,76.2z M49.9,92.7c-0.1,0-0.1,0-0.2,0l0.9,0.9l0,0
	l0,0l0.8,0.8c0.1,0,0.1,0,0.2,0l0.1,0L50,92.6L49.9,92.7z M49.8,79.4L49,78.6l0.1,0.4l0.3,0.3L49.8,79.4z M54,85.9l-1.1-1.1
	l-0.5-0.2l0,0l0,0l1.6,1.6L54,85.9z M50.2,94l-1.4-1.4c0,0,0,0,0,0c-0.2,0-0.3-0.1-0.5-0.2l1.7,1.7c0,0,0,0,0,0c0,0,0,0,0,0
	c0,0,0,0,0,0c0.1,0.1,0.3,0.1,0.4,0.2L50.2,94L50.2,94z M205.1,90.2l1.7,1.7l0.1-0.3l-1.7-1.7L205.1,90.2z M206,86.3l0.8,0.8l0,0
	l0,0l0,0l0.9,0.9l0.1-0.3L206,86L206,86.3z M205.5,88.2L205.5,88.2L205.5,88.2l1.7,1.7l0.1-0.3l-1.7-1.7L205.5,88.2z M205.8,87
	l-0.1,0.3l0.4,0.4l0,0l1.3,1.3l0.1-0.3l-1.2-1.2L205.8,87z M206.2,85.3l1.7,1.7l0.1-0.3l-1.7-1.7L206.2,85.3z M206.4,84.3l1.6,1.6
	l0,0l0.1,0.1l0.1-0.3l-1.7-1.7L206.4,84.3z M208.1,76.2l-0.1,0.3l1.7,1.7l0.1-0.3l-0.5-0.5L208.1,76.2z M51.4,92.9L51.4,92.9
	L51,92.5l-0.3,0.1l1.7,1.7l0.3-0.1L51.4,92.9L51.4,92.9z M205.3,89.2l1.7,1.7l0.1-0.3l-1.7-1.7L205.3,89.2z M204.9,91.2l1.7,1.7
	l0.1-0.3l-1.7-1.7L204.9,91.2z M206.6,83.3l1.7,1.7l0.1-0.3l-1.7-1.7L206.6,83.3z M207.6,78.4l1.7,1.7l0.1-0.3l-1.7-1.7L207.6,78.4z
	 M207.8,77.5l1.7,1.7l0.1-0.3l-1.7-1.7L207.8,77.5z M207.4,79.4l1.7,1.7l0.1-0.3l-1.7-1.7L207.4,79.4z M206.8,82.4l1.7,1.7l0.1-0.3
	l-1.7-1.7L206.8,82.4z M207.2,80.4l1.7,1.7l0.1-0.3l-1.7-1.7L207.2,80.4z M207,81.4l1.7,1.7l0.1-0.3l-1.7-1.7L207,81.4z M52.7,92.2
	l1.7,1.7l0.3,0L53,92.1L52.7,92.2z M62.6,74.6L62.6,74.6L62.6,74.6L62.6,74.6L62.6,74.6l1.7,1.8l0.3,0l-1.7-1.7L62.6,74.6z
	 M64.9,74.3l-0.3,0l1.7,1.7l0,0l0-0.4L64.9,74.3z M72.3,76.1l0-0.4l-1.7-1.7l0,0.4L72.3,76.1z M66.2,74.4L66,74.2l-0.3,0l0.5,0.5
	L66.2,74.4z M63.5,74.5l1.7,1.7l0.3,0l-1.7-1.7L63.5,74.5z M58.8,88.4c0,0.1,0,0.2,0,0.4l1.7,1.7c0-0.1,0-0.2,0-0.4L58.8,88.4z
	 M58.8,89.5c0,0.1-0.1,0.2-0.1,0.2l1.5,1.5l0,0l0,0l0.3,0.3c0-0.1,0.1-0.2,0.1-0.2l-0.2-0.2L58.8,89.5z M187.9,86.9l-0.5-0.5l0,0.3
	l0.1,0.1L187.9,86.9z M73.1,82.8l0-0.4l-1.7-1.7l0,0.4L73.1,82.8z M73,75.3l-1.7-1.7l-0.3,0l1.7,1.7L73,75.3z M59.7,91.7l-1.3-1.3
	c0,0,0,0,0,0c0,0.1-0.1,0.1-0.1,0.2l1.3,1.3l0,0l0.4,0.4c0-0.1,0.1-0.1,0.1-0.2c0,0,0,0,0,0L59.7,91.7L59.7,91.7z M73.3,84.2l0-0.4
	l-1.7-1.7l0,0.4L73.3,84.2z M71.4,80L71.4,80L71.4,80l1.5,1.5l0-0.4l-1.3-1.3l0,0l-0.4-0.4l0,0.4L71.4,80z M70.6,75.3l0,0.4l0.9,0.9
	l0.9,0.9l0-0.4v0L70.6,75.3z M72,79.4L72,79.4L72,79.4l0.8,0.8l0-0.4l-0.5-0.5l0,0L71,78l0,0.4L72,79.4z M14.4,94.2L14.4,94.2
	L14.4,94.2l0.4,0.4c-0.1-0.2-0.2-0.4-0.3-0.6l-1.4-1.4l0.1,0.4L14.4,94.2z M54.8,91.8l1.7,1.7l0.3,0L55,91.8L54.8,91.8z M190,81.9
	l-1.6-1.6l0,0.3l1.6,1.6L190,81.9z M189.9,82.9l-1.6-1.6l0,0.3l1.6,1.6L189.9,82.9z M55.8,91.6l1.7,1.7l0.3-0.1l-1.7-1.7L55.8,91.6z
	 M190.2,80.9l-1.6-1.6l0,0.3l1.6,1.6L190.2,80.9z M204.7,92.2l1.7,1.7l0.1-0.3l-1.7-1.7L204.7,92.2z M59.1,92.3L59.1,92.3L57.8,91
	c-0.1,0.1-0.1,0.1-0.2,0.1l1.3,1.3h0l0.4,0.4c0.1,0,0.1-0.1,0.2-0.1L59.1,92.3L59.1,92.3z M53.7,92l1.7,1.7l0.3,0L54,91.9L53.7,92z
	 M189.7,83.9l-1.6-1.6l0,0.3l1.6,1.6L189.7,83.9z M58.5,92.9L58.5,92.9L58.5,92.9L57,91.4c-0.1,0-0.2,0.1-0.3,0.1l1.6,1.6h0l0.2,0.2
	c0.1,0,0.2,0,0.3-0.1L58.5,92.9L58.5,92.9z M52,92.3L52,92.3L52,92.3l-0.3,0l0.1,0.1l1.6,1.6l0.3,0L52,92.3L52,92.3z M189.6,85.4
	l0-0.3l-1.1-1.1l-0.6-0.6l0,0.3l0.5,0.5L189.6,85.4z M189.3,87.1L189.3,87.1l-1.7-1.7l0,0.3l1.4,1.4L189.3,87.1z M190.2,84.8l1,1
	l0-0.3l-0.6-0.6L190.2,84.8z M189.5,86.1l-1.5-1.5l0,0l-0.2-0.2l0,0.3l1.7,1.7L189.5,86.1z M72.6,78.8L72.6,78.8l0-0.4l-1.7-1.7
	l0,0.4L72.6,78.8z M226,82.2L226,82.2c-0.1,0-0.1,0.1-0.1,0.2l1.7,1.7c0-0.1,0-0.2,0-0.3L226,82.2L226,82.2z M23.5,99.4L23.5,99.4
	l-1.1-1.1l0.1,0.4l0.8,0.8l0.9,0.9l-0.1-0.4L23.5,99.4z M227.4,84.8l-1.7-1.7l-0.1,0.3l1.7,1.7L227.4,84.8z M32.2,83.6L32.2,83.6
	l0.3,0l-0.2-0.2l0,0L31,82l0.1,0.4L32.2,83.6L32.2,83.6z M227.2,85.8l-1.7-1.7l-0.1,0.3l1.7,1.7L227.2,85.8z M31.6,83.8l-0.2-0.2
	l0.1,0.3L31.6,83.8z M212.2,95.9C212.2,95.9,212.2,95.9,212.2,95.9C212.2,95.9,212.2,95.9,212.2,95.9c-0.1-0.1-0.2-0.1-0.3-0.2
	c0,0,0,0,0,0c-0.1-0.1-0.1-0.1-0.2-0.2L212.2,95.9L212.2,95.9L212.2,95.9L212.2,95.9l1.2,1.4c0.3,0.2,0.6,0.4,0.9,0.6l-1.7-1.7
	C212.5,96.1,212.3,96,212.2,95.9z M225.2,85l-0.1,0.3l1.7,1.7l0.1-0.3L225.2,85z M226.4,81.8l1.2,1.2c0-0.1-0.1-0.3-0.1-0.4
	l-0.9-0.9l0,0h0l-0.8-0.8c0,0.1,0.1,0.3,0.1,0.4L226.4,81.8z M223.4,91.5l-0.1,0.3l1.7,1.7l0.1-0.3l-1.6-1.6L223.4,91.5z
	 M223.6,90.9l1.7,1.7l0.1-0.3l-1.7-1.7L223.6,90.9z M223.1,92.7l1.7,1.7l0,0l0.1-0.3l-1.7-1.7L223.1,92.7z M222.6,94.6l1.7,1.7
	l0.1-0.3l-1.7-1.7L222.6,94.6z M222.9,93.7l1.7,1.7l0.1-0.3l-1.7-1.7L222.9,93.7z M222.3,95.5l1.7,1.7c0-0.1,0.1-0.2,0.1-0.2
	l-1.7-1.7C222.4,95.3,222.3,95.4,222.3,95.5z M222,96.1c0,0.1-0.1,0.1-0.1,0.2l1.7,1.7c0-0.1,0.1-0.1,0.1-0.2L222,96.1
	C222,96.1,222,96.1,222,96.1z M21.7,101.2L21.7,101.2l-1.3-1.3l-0.3,0.1l1.4,1.4l0,0l0.3,0.3l0.3-0.1L21.7,101.2L21.7,101.2z
	 M16.2,89.7l0.3,0.7l0.6,0.6l-0.1-0.4L16.2,89.7z M17.3,92L17.3,92L17.3,92L17.3,92z M7.7,89.5L7.7,89.5L7.7,89.5L7.7,89.5z
	 M16.2,89.7L16.2,89.7L16.2,89.7L16.2,89.7z M9.4,91.2l-1.7-1.7L8,90.1h0l1.5,1.5L9.4,91.2z M12.8,91.1l0.1,0.4l0.8,0.8
	c-0.1-0.2-0.2-0.4-0.3-0.6L12.8,91.1z M9.6,92.7l-0.4-0.4l0,0l0,0l-0.6-0.6l0.3,0.6l0.1,0.1h0l0,0l0.6,0.6L9.6,92.7z M9.6,93.9
	l0.3,0.6h0l0,0l-0.1-0.4L9.6,93.9z M19.5,100.2L19.5,100.2l-0.3,0.1l1.7,1.7h0l0,0l0,0l0,0l0.3-0.1l-0.1-0.1L19.5,100.2z M15.3,88
	l1.5,1.5l-0.1-0.4l0,0L15,87.4L15.3,88z M22.3,100.6L22.3,100.6l-1-1L21,99.7l1.1,1.1l0,0l0.6,0.6l0.3-0.1L22.3,100.6L22.3,100.6z
	 M220.8,97.2C220.8,97.3,220.7,97.3,220.8,97.2c-0.1,0.1-0.2,0.1-0.2,0.1l1.7,1.7c0.1,0,0.1-0.1,0.2-0.1c0,0,0,0,0,0L220.8,97.2
	C220.8,97.2,220.8,97.2,220.8,97.2z M223.9,89.9l0.7,0.7l1,1h0l0.1-0.3l-1.7-1.7L223.9,89.9z M22.9,100L22.9,100l-0.7-0.7l-0.3,0.1
	l0.8,0.8l0.9,1l0.3-0.1L22.9,100L22.9,100z M18.3,100.5l1.7,1.7l0.3-0.1l-1.7-1.7L18.3,100.5z M221.5,96.7c0,0-0.1,0.1-0.1,0.1
	l1.7,1.7c0.1-0.1,0.1-0.1,0.2-0.2L221.5,96.7C221.5,96.7,221.5,96.7,221.5,96.7z M217,98.2l-1.1-1.1l-0.5-0.1l1.4,1.4l0,0l0.3,0.3
	l0.5,0.1L217,98.2L217,98.2z M37.9,95.2l1.7,1.7l0.3-0.1l-1.7-1.7L37.9,95.2z M40.7,96.4l-1.5-1.5L38.9,95l1.6,1.6l0.1,0.1l0.3-0.1
	L40.7,96.4L40.7,96.4z M41.3,95.8l-1.2-1.2l-0.3,0.1l1.7,1.7l0.3-0.1L41.3,95.8L41.3,95.8z M41.9,95.2L41.9,95.2l-0.4-0.4l-0.4-0.4
	l-0.3,0.1l0.9,0.9l0,0h0l0,0l0.8,0.8l0.3-0.1L41.9,95.2L41.9,95.2z M35.1,95.9l1.7,1.7l0.3-0.1l-1.7-1.7L35.1,95.9z M42.1,94.2
	l-0.3,0.1l0.5,0.5l0,0h0l0,0l1.2,1.2l0.3-0.1l-1.3-1.3L42.1,94.2z M36,95.6l1.7,1.7l0.3-0.1l-1.7-1.7L36,95.6z M37,95.4l1.7,1.7
	l0.3-0.1l-1.7-1.7L37,95.4z M225.4,89.9l-1.2-1.2l-0.1,0.3l1.1,1.1l0,0l0.6,0.6l0.1-0.3L225.4,89.9L225.4,89.9z M34.1,96.1l1.7,1.7
	l0.3-0.1L34.4,96L34.1,96.1z M52.4,77.6l0.1,0.1l-0.1-0.4l-1-1l-0.3,0L52.4,77.6L52.4,77.6z M204.4,93.8l-0.1,0.3l1.3,1.3l0.4,0.4
	l0.1-0.3l-0.3-0.3L204.4,93.8z M52.9,86L52,85.2l0,0l-0.8-0.8l-0.5-0.2l1.2,1.2l0,0l0.5,0.5L52.9,86z M52.1,87.9L52,87.5l-1.2-1.2
	l0,0l-0.5-0.5l0.1,0.4l0.3,0.3l0,0L52.1,87.9L52.1,87.9z M50.6,87.6l0.4,0.4l0.3,0l-0.8-0.8L50.6,87.6z M50.7,85.3l0.5,0.2h0
	l-1.7-1.7l-0.5-0.2L50.7,85.3z M49.4,84.9l-1.7-1.7l-0.5-0.2l1.7,1.7L49.4,84.9z M217.5,97.5L217.5,97.5l-0.5-0.1h0l0.4,0.4l1.3,1.3
	l0.5,0.1l-1.6-1.6L217.5,97.5z M218.9,97.7c-0.1,0-0.2,0-0.3,0l1.7,1.7c0.1,0,0.2,0,0.3,0c0,0,0,0,0.1,0L218.9,97.7
	C218.9,97.7,218.9,97.7,218.9,97.7z M226,89.3l-1.5-1.5l-0.1,0.3l1.4,1.4h0l0.3,0.3l0.1-0.3L226,89.3L226,89.3z M219.7,97.6l1.7,1.7
	c0.1,0,0.2,0,0.3-0.1c0,0,0,0,0,0l-1.7-1.7C219.9,97.6,219.8,97.6,219.7,97.6z M204.5,93.1l1.7,1.7l0-0.1l0-0.1l0-0.1l-1.7-1.7
	L204.5,93.1z M224.6,87.1l1.7,1.7l0.1-0.3l-1.7-1.7L224.6,87.1z M208.3,75.5l1.5,1.5v0l0,0l0.2,0.2L210,77l-1.7-1.7L208.3,75.5z
	 M31.8,98.2l-1.3-1.3L30.2,97l1.4,1.4l0,0l0,0l0.3,0.3l0.3-0.1L31.8,98.2L31.8,98.2z M32.4,97.6l-0.9-0.9l-0.3,0.1l1,1l0,0l0,0
	l0.7,0.7l0.3-0.1L32.4,97.6L32.4,97.6z M33,97L33,97l-0.5-0.5l-0.3,0.1l0.7,0.7l0,0l1.1,1.1l0.3-0.1L33,97L33,97z M33.6,96.4
	L33.6,96.4l-0.2-0.2l-0.3,0.1l1.7,1.7l0.3-0.1L33.6,96.4L33.6,96.4z M34.6,91.5L34.6,91.5L33,89.9l0,0l-0.1-0.1l0.1,0.2l0,0l0,0
	l0,0.2l1.4,1.4L34.6,91.5z M213.8,96.5L213.8,96.5l1.7,1.7l0.5,0.1l-1.7-1.7L213.8,96.5z M33.4,91.8l0.3-0.1l-0.5-0.5L33.4,91.8
	L33.4,91.8z M103.7,115.9c-0.6,0-19.2,0.5-19.2,1.1c0,0.6,18.6,1.1,19.2,1.1c0.6,0,1.1-0.5,1.1-1.1
	C104.8,116.4,104.3,115.9,103.7,115.9z M144.5,115.9c-0.6,0-1.1,0.5-1.1,1.1c0,0.6,0.5,1.1,1.1,1.1c0.6,0,19.2-0.5,19.2-1.1
	C163.8,116.4,145.2,115.9,144.5,115.9z M130.8,120.7l3.6,3.6c0.5-0.4,0.7-0.9,0.8-1.4c0-0.4,0.1-0.7,0-1.1c-0.1-0.6-0.7-1.2-1.3-1.4
	c-0.5-0.2-1.2-0.1-1.6,0.3c-0.4,0.2-0.7-0.3-1-0.6c0.1-0.1,0.3-0.3,0.3-0.4c0-0.2,0-0.3-0.2-0.4c-0.4-0.1-0.6,0.2-0.9,0.4
	c0.1-0.1,0.1-0.3,0-0.5c-0.1-0.2-0.3-0.3-0.5-0.3c-0.3,0.1-0.6,0-0.8-0.2c0.1-0.2,0.2-0.4,0.5-0.5c0.6-0.2,1.3-0.1,1.9-0.4
	c0.1-0.2,0.3-0.4,0.4-0.6c-0.2-0.1,0.2-0.2,0-0.4c-0.1-0.4,0.4-0.4,0.4-0.7c0-0.1-0.1-0.2,0-0.3c0-0.2,0.1-0.4,0.3-0.5
	c0.2-0.2,0-0.4,0.1-0.7c0.5-0.4-0.3-0.8-0.5-1.1c-0.4-0.1-0.8-0.4-1.2-0.3c-0.1-0.2-0.4,0.1-0.5-0.2c0-0.2-0.1-0.3-0.3-0.5
	c-0.2,0-0.4-0.2-0.6-0.2c-0.3-0.3-0.7-0.5-1.1-0.7c0-0.4-0.4,0-0.5-0.4c-0.3-0.2-0.4-0.6-0.8-0.6c-0.3-0.2-0.6,0.1-0.9-0.2
	c-0.4,0-0.8-0.2-1.1-0.4c-0.4-0.1-0.9,0.1-1.1-0.4c-0.5-0.2-0.6-0.7-1-1c-0.1,0-0.2,0-0.3-0.1c-0.3,0-0.5-0.1-0.8,0
	c-0.3,0.4-0.9,0-1.3,0c-0.2-0.1-0.4-0.4-0.6-0.5c-0.2-0.2-0.4-0.1-0.6-0.2c0-0.1-0.1-0.1-0.1-0.1c-0.2-0.1-0.5-0.1-0.8,0
	c-0.2-0.1-0.4-0.3-0.6-0.4c-0.1-0.2-0.4-0.1-0.4-0.3c-0.2-0.2-0.5-0.4-0.8-0.4c-0.4-0.2-0.7,0.2-1.2,0.1c-0.1-0.1-0.3-0.2-0.5-0.3
	c-0.1,0-0.3-0.1-0.4-0.2c-0.4,0.2-0.7-0.2-1,0c-0.1,0.1-0.2,0.1-0.3,0c-0.1,0-0.1,0.1-0.1,0.2c0.1,0.4,0,0.9,0.1,1.3
	c0.2,0.2-0.1,0.6,0.1,0.8c0.3,0.2,0.1,0.6,0.2,0.8c0.3,0.2,0.3,0.5,0.5,0.8c0,0.2,0.2,0.3,0.1,0.4c0.3,0.1,0.1,0.4,0.1,0.6
	c0.1,0.2,0.2,0.3,0.2,0.5c0.2,0,0.1,0.3,0.2,0.4c0.2,0.1,0.2,0.4,0.4,0.5c-0.1,0.3,0.2,0.6,0.1,0.9c0.2,0.2,0.2,0.6,0.2,0.9
	c0,0.4,0.5,0.4,0.5,0.8c0.2,0.3,0.2,0.6,0.2,0.9c0.1,0.2,0,0.5,0.2,0.7c0.1,0.1-0.1,0.2,0.1,0.3c0,0.2,0.1,0.3,0.2,0.4
	c0.2,0.4,0.5,0.6,0.8,0.9c0.4,0.3,0.3,0.8,0.3,1.2c-0.2,0.6,0.5,0.8,0.6,1.3c0.1,0.1,0.2,0.2,0.2,0.3c0.3,0.1,0.2,0.5,0.5,0.6
	c0,0.1,0.1,0.2,0,0.3c0,0.1,0.1,0.2,0.2,0.4c0,0.2,0.3,0.4,0.4,0.6c0,0.1-0.1,0.3,0.1,0.3c0,0.4,0.6,0.6,0.6,1
	c-0.1,0.2,0.1,0.3,0.2,0.5c0,0.2,0.2,0.3,0.2,0.4c0,0.2,0.2,0.3,0.3,0.3c0.1,0.4,0.5,0.3,0.7,0.6c0.2,0.1,0.3,0,0.5-0.1
	c0.3,0,0.5-0.3,0.7-0.4c0.4-0.3,0.8-0.3,1.2-0.5c0.4-0.4,0.5-1,0.7-1.4c0-0.2-0.1-0.5-0.2-0.7c0-0.2-0.1-0.4,0-0.6
	c0.1-0.3,0.5-0.1,0.8-0.2c0.1,0,0.2,0.1,0.2,0.1c0.2,0,0,0.2,0.1,0.4c0.1,0.2,0.1,0.3,0.3,0.5c0.1,0.1,0.4,0.1,0.5,0
	c-0.2,0.2-0.6,0.4-0.5,0.8c0,0.1,0.1,0.2,0.2,0.3c0.3,0.1,0.5-0.1,0.7-0.3c0.2,0.3,0.7,0.5,0.6,0.9c-0.4,0.4-0.5,1.1-0.3,1.6
	c0.2,0.5,0.7,1.1,1.3,1.3c0.9,0.2,1.9-0.1,2.5-0.8c0,0,0,0,0,0l-3.5-3.6L130.8,120.7z M133.2,121.7c0.1-0.1,0.2-0.1,0.3-0.1
	c0.2,0.1,0.4,0.2,0.6,0.4c0.1,0.1,0.1,0.3,0,0.4c-0.1,0.2-0.3,0.2-0.5,0.2c-0.2-0.1-0.4-0.3-0.5-0.5
	C133.1,122,133.1,121.8,133.2,121.7z M130.3,115.5c0-0.2,0-0.3,0.1-0.4c0.2-0.2,0.4-0.1,0.6-0.1c0.1,0.2,0.4,0.2,0.4,0.5l0.2,0.5
	c-0.3,0.2-0.1,0.7-0.5,0.9c-0.3,0-0.5,0.5-0.8,0.4c-0.1-0.2-0.3-0.2-0.3-0.4l-0.1,0C129.9,116.2,130.2,115.9,130.3,115.5z
	 M115.9,108.5c0.1,0,0,0.2,0,0.3c-0.1,0.1-0.2,0.3-0.4,0.4c-0.2-0.1-0.4-0.2-0.6-0.3c0-0.2-0.1-0.3-0.1-0.4c0.3-0.1,0.4-0.5,0.7-0.5
	l0.3,0c0,0.2,0.2,0.2,0.1,0.4C116,108.4,116,108.5,115.9,108.5z M129.1,126.2c0.2,0.1,0.4,0.3,0.5,0.4c0,0.1,0.1,0.3,0,0.4
	c-0.1,0.1-0.3,0.2-0.5,0.1c-0.2-0.1-0.5-0.3-0.5-0.6C128.5,126.2,128.9,126,129.1,126.2z M129.1,119.3c-0.2,0.2-0.5,0.3-0.5,0.6
	l-0.2,0.1c-0.1-0.1,0-0.3-0.2-0.3c-0.1-0.2-0.1-0.5-0.3-0.6c-0.1-0.1-0.1-0.4-0.1-0.5c0.1-0.1,0.3-0.2,0.4,0
	c0.3-0.2,0.5,0.2,0.9,0.1C129.2,118.9,129.2,119.2,129.1,119.3z M128.4,114.7c0.2,0,0.3,0.3,0.3,0.4c0.1,0.1,0.1,0.3,0.2,0.4
	c0,0.1-0.1,0.2,0,0.3c0.2,0.1,0,0.3,0.1,0.5c-0.1,0.2-0.2,0.4-0.4,0.5c-0.1,0.2-0.4,0.3-0.5,0.5c-0.2,0-0.3,0.2-0.5,0.1
	c-0.1-0.1-0.2-0.2-0.2-0.4c0-0.4,0.4-0.5,0.5-0.9c0.1-0.1,0.2-0.2,0.2-0.4c-0.2-0.2,0.3-0.4-0.1-0.5c-0.1-0.2-0.4-0.2-0.4-0.5
	c0.1-0.1,0.2-0.5,0.5-0.4C128.1,114.5,128.4,114.4,128.4,114.7z M127,120.5c0.1-0.1,0.2-0.1,0.1-0.2c0.1-0.1,0.2-0.2,0.3-0.1
	c0,0.1,0.1,0.1,0.2,0.1c0.1,0.1,0.2,0.2,0.2,0.3c-0.2,0.2-0.4,0.5-0.6,0.6c-0.1,0-0.2,0-0.2-0.1C127,120.9,127.1,120.7,127,120.5z
	 M126.7,112.4L126.7,112.4c0.2-0.3,0.6-0.2,0.9-0.2c0.2,0.2,0.5-0.1,0.6,0.2c0,0.2,0.2,0.3,0,0.5c-0.1,0-0.2,0.2-0.3,0.3
	c-0.4-0.1-0.9,0.6-1.2,0.1C126.6,112.9,126.6,112.6,126.7,112.4z M125.9,119.4c0-0.2,0.2-0.3,0.2-0.4c0.3,0,0.4-0.5,0.7-0.4l0.3-0.1
	c0.1,0.2,0.1,0.3,0.1,0.5c-0.1,0.2-0.4,0.4-0.3,0.7c-0.2,0.2-0.5,0.1-0.8,0.1C126.1,119.6,125.7,119.7,125.9,119.4z M123,110.6
	c0.6,0,1.1,0.4,1.6,0.5c0.2-0.1,0.2,0.2,0.4,0c0.1,0.1,0,0.2,0.1,0.4c0,0.1-0.1,0.2-0.2,0.3c-0.4,0.2-1.1,0.5-1.5,0.1
	c-0.3,0-0.4-0.5-0.7-0.5c0-0.1-0.1-0.3-0.1-0.4L123,110.6z M122.4,117.1c-0.1,0.3,0.3,0.4,0.2,0.7c0.3,0.1,0.2,0.4,0.4,0.6
	c0,0.2-0.1,0.3-0.2,0.4c-0.1,0-0.3,0.1-0.5,0.1c-0.1-0.2-0.4-0.1-0.5-0.3c-0.1-0.2-0.4-0.4-0.4-0.6c0.1-0.3-0.2-0.6,0.1-0.9l0.4-0.3
	C122,116.8,122.4,116.7,122.4,117.1z M119.1,109.3c0.1,0.1,0.3,0,0.4,0c0.1-0.1,0.3,0.1,0.4,0c0.1,0.1,0.2,0.1,0.3,0.2l0,0
	c0.2-0.1,0.2,0.1,0.3,0.2c0.1,0.1-0.1,0.2,0,0.3l-0.3,0.2l0-0.1c-0.1,0-0.2,0.1-0.3,0c0-0.2-0.2,0-0.3-0.1c-0.1,0.1-0.2,0-0.3,0
	c-0.1-0.2-0.4-0.3-0.3-0.5C119.2,109.5,119,109.3,119.1,109.3z M118,110.7c0.2-0.2,0.4,0,0.6-0.2c0.2,0,0.3,0.2,0.5,0.2
	c0.1,0.1,0.2,0.1,0.2,0.2c-0.1,0.2,0.1,0.3,0.1,0.4c-0.2,0.3-0.6,0.4-0.7,0.8c-0.1,0-0.2,0.1-0.2,0c-0.2-0.1-0.2-0.3-0.4-0.5
	c0.1-0.2-0.2-0.4-0.1-0.7l-0.1,0C117.9,110.9,118,110.8,118,110.7z M117.9,114.4c-0.2-0.1-0.4-0.1-0.6-0.1c-0.1-0.2-0.4-0.1-0.5-0.4
	c-0.1,0-0.1-0.1-0.2-0.2c0-0.2,0.1-0.3-0.1-0.5c-0.2-0.4,0.3-0.6,0.6-0.4c0.2,0.1,0.3,0.4,0.3,0.6c0.2,0.3,0.6,0.2,0.9,0.5
	c0,0.1-0.1,0.3-0.1,0.4L117.9,114.4z M119.3,119.3c-0.1,0.1-0.2,0.2-0.4,0.1c-0.2-0.1-0.3-0.3-0.5-0.5l-0.1-0.1
	c0.1-0.1,0-0.3,0.1-0.4c0.2-0.1,0.2-0.4,0.4-0.3c0.1-0.1,0.2,0,0.3,0c0.1,0.2,0.3,0.4,0.1,0.7C119.7,118.9,119.2,119,119.3,119.3z
	 M120.5,116.6c-0.2,0.2-0.5,0.1-0.7-0.1c-0.2-0.1-0.5,0-0.6-0.3c-0.1-0.2,0-0.4,0.1-0.7h0.1c0-0.1,0-0.3,0-0.5
	c0.2-0.2,0.4,0.1,0.5-0.1c0.1,0.2,0.4,0.2,0.4,0.5c0.2,0.1,0.3,0.4,0.5,0.5C120.6,116.2,120.9,116.5,120.5,116.6z M120.6,112.9
	c-0.1,0-0.2,0-0.3-0.1c0.1-0.2-0.1-0.2-0.1-0.4c-0.3-0.1,0.2-0.3-0.1-0.5c0-0.2,0.3-0.3,0.4-0.4c0.1,0.1,0.3,0,0.5,0
	c0.2,0.2,0.4,0.3,0.6,0.4c0.2,0,0.1,0.3,0.3,0.2c0.1,0.1,0,0.3,0,0.4c-0.1,0.2,0,0.4-0.3,0.5c-0.2,0-0.3-0.1-0.5,0
	C121.1,112.9,120.8,113,120.6,112.9z M122.6,124.2c-0.2-0.1-0.4,0.1-0.7,0c-0.2-0.3-0.5-0.4-0.4-0.8c-0.2-0.1-0.1-0.4-0.3-0.4
	c0.1-0.1-0.1-0.3-0.1-0.4c-0.2-0.1,0-0.2-0.1-0.4c0-0.2,0-0.4,0.2-0.5c0.1-0.1,0.3-0.1,0.4,0c0.2,0.3,0.3,0.6,0.3,0.9
	c0.3,0,0,0.4,0.3,0.3c0,0.2,0.1,0.2,0.2,0.2c0.2,0.1,0.4,0.2,0.4,0.5C122.7,123.7,122.8,124,122.6,124.2z M123.8,121.1
	c-0.1,0.2,0.1,0.5-0.2,0.6c-0.2-0.1-0.6,0-0.6-0.3c0.1-0.2-0.2-0.3,0-0.5c-0.1-0.2,0.2-0.2,0.1-0.3c0.2,0,0.4-0.2,0.5,0
	c0.1,0,0.1,0.1,0.2,0.1c0,0.1-0.1,0.1,0,0.2C123.8,121,123.8,121.1,123.8,121.1z M124.7,115.4c0-0.1-0.1-0.2-0.2-0.2
	c0-0.2,0-0.4-0.2-0.6c-0.2,0-0.1-0.3-0.4-0.3c-0.1-0.2,0.1-0.4-0.1-0.6c0-0.2,0.2-0.2,0.2-0.4c0,0,0.1-0.1,0.1-0.1
	c0-0.1,0.2-0.1,0.3-0.2c0.2,0,0.1,0.3,0.3,0.3c0.1,0.1,0.1,0.2,0,0.2c0.1,0.2,0.2,0.3,0.2,0.5c0.3,0.1,0,0.4,0.3,0.5
	c0,0,0,0.1,0,0.1c0.1,0.2,0.1,0.4-0.1,0.5c0,0.1,0,0.2-0.1,0.3C124.9,115.5,124.7,115.7,124.7,115.4z M124.9,118.4
	c0-0.1,0-0.1,0-0.3c0.1-0.1,0.2-0.2,0.4-0.2c0.2,0.1,0.3,0.1,0.4,0.3c-0.1,0.2-0.3,0.4-0.4,0.4C125.1,118.7,125,118.6,124.9,118.4z
	 M125.3,120.4c-0.1-0.1-0.1-0.2-0.1-0.3c0.1-0.2,0.4-0.1,0.6-0.1c0.1,0.1,0.3,0.3,0.2,0.4c0.1,0.3-0.2,0.4-0.2,0.6
	c-0.2,0.1-0.3,0-0.4-0.1C125.2,120.8,125.1,120.6,125.3,120.4z M126,122.3c-0.2-0.2-0.2-0.6-0.4-0.8c0-0.2,0.2-0.3,0.4-0.4l0.6,0.1
	c0.1,0.1,0.2,0.1,0.3,0.2c-0.1,0.1,0,0.4-0.2,0.5C126.4,122.1,126.3,122.5,126,122.3z M127.1,123c-0.2,0.1-0.3-0.1-0.4-0.2
	c0-0.1,0.1-0.2,0.1-0.3l2.7-2.8c0.1,0,0.2-0.1,0.3,0c0.1,0.1,0.2,0.3,0.1,0.4L127.1,123z M128.6,123.9l5.9,6l2.3-2.3l-5.9-6
	L128.6,123.9z M135.7,35.6c0.1,0.1,0.1,0.1,0.2,0.1c0-0.2-0.2-0.3-0.3-0.5c0,0,0,0.1,0,0.1C135.6,35.5,135.7,35.6,135.7,35.6z
	 M106.9,50.5c0-0.2-0.3-0.4-0.5-0.6c-0.1,0-0.1-0.1-0.2-0.1C106.5,50.2,106.8,50.4,106.9,50.5z M141.2,15.1c0.1,0,0.1-0.1,0-0.3
	c-0.1-0.1-0.2-0.2-0.3-0.2C141.1,14.8,141.2,15.1,141.2,15.1z M143.7,48.8c-0.1-0.3-0.3-0.4-0.6-0.6
	C143.3,48.4,143.5,48.6,143.7,48.8z M155.8,50.3c-0.2,0.4-0.5,1.9-0.7,1.9c0,0-0.1-0.1-0.2-0.4c0-0.1,0-0.2,0-0.3l-0.3-0.3
	c0,0.1-0.1,0.2-0.1,0.2l0.4,0.4c0,0.3,0,0.6,0.1,0.8c0.1,0.3,0.3,0.4,0.6,0.5c-0.3-0.9,0.2-2,0.3-2.9
	C156.2,49.8,156,49.9,155.8,50.3z M154.5,50.7c-0.1,0.1,0,0.5,0.1,0.8c0-0.1,0.1-0.2,0.1-0.3C154.6,50.9,154.5,50.6,154.5,50.7z
	 M158.5,53.6c0.1,0.1,0.3,0.2,0.4,0.2c0-0.3,0-1.1-0.1-1.2C158.8,52.6,158.7,53.2,158.5,53.6z M107.9,48.4
	C107.9,48.4,107.9,48.4,107.9,48.4C107.9,48,107.9,48.2,107.9,48.4z M136.6,36.5C136.6,36.5,136.6,36.6,136.6,36.5
	c0,0.2,0.1,0.3,0.2,0.3C136.8,36.7,136.7,36.6,136.6,36.5z M160.6,56.4c0.4,0.1,2.4,0.4,2.6-0.2c0.1-0.3-0.3-0.5-0.7-0.7
	c0,0,0,0,0,0l0,0l-0.8-0.8c-0.2-0.1-0.4-0.2-0.5-0.2l1.2,1.2c-0.2,0.1-0.4,0.1-0.7,0.2l-1.3-1.3l0,0l0,0l-0.4-0.4
	c-0.2,0-0.3-0.1-0.5-0.2l0.7,0.7l0,0l0,0l1.1,1.1c-0.6,0-1.2-0.1-1.4-0.1c-0.3,0-0.6-0.1-0.9-0.2l-2.3-2.3c-0.1,0-0.2,0-0.3,0
	l2.2,2.2c-0.4-0.1-0.8-0.2-1.1-0.3l-2.5-2.5l0,0l-0.9-0.9c0,0.1,0,0.2,0,0.3l2.9,2.9c0.1,0,0.1,0,0.2,0.1c-0.1,0-0.2-0.1-0.4-0.1
	c0-0.1-9.5-1.3-14.3-1.5c-6-0.2-12.1-0.8-18.1-0.8c-6,0.1-11.9,0.6-17.9,1c-3.2,0.2-6.3,0.6-9.4,1.2c-0.1,0-0.3,0-0.4,0.1l-0.5-0.5
	l0,0l0,0L94.6,53c0,0.1-0.1,0.2-0.1,0.2l1.5,1.5l0,0l0.4,0.4c-0.2,0-0.5,0.1-0.7,0.1l-0.1-0.1l0,0l0,0L94,53.6c0,0,0,0,0,0
	c-0.1,0-0.1,0-0.3,0.1l1.6,1.6c-1.1,0.1-2.2,0.3-3.2,0.5c-0.1,0-0.3,0.1-0.5,0.1l-1.1-1.1c-0.1,0-0.1,0.1-0.2,0.1l1.1,1.1
	c-0.2,0-0.5,0.1-0.7,0.1l-0.9-0.9c-0.1,0.1-0.1,0.1-0.2,0.2l0.7,0.7c0,0-0.1,0-0.1,0c-0.1,0.1-0.1,0.3-0.1,0.4
	c0.2,0.6,2.3,0,2.7-0.1c1.6-0.4,3.3-0.5,5-0.8c3.1-0.5,6.3-0.9,9.4-1.2c6-0.4,11.9-0.9,17.9-1c6.1-0.1,12.1,0.5,18.1,0.8
	c4.8,0.2,14.3,1.4,14.3,1.5C158.5,56,159.5,56.3,160.6,56.4z M159.1,11.6c-1.2-1.2-2.9-3-3-3.1C156,8.3,156.1,8.2,156,8
	c0-0.1-0.2-0.2-0.6-0.4c0,0.1,0,0.1,0.1,0.2C155.6,7.9,158,10.5,159.1,11.6z M105.1,54l-0.6-0.6l0,0l0,0l-1.7-1.7c0,0-0.1,0-0.1,0
	c-0.1,0-0.2,0-0.2,0l2.3,2.3C104.9,54,105,54,105.1,54z M119.2,52.9L119.2,52.9L119.2,52.9c0.2,0.1,0.3,0.1,0.4,0.1l-2.1-2.1
	c-0.1,0-0.2,0-0.3,0.1L119.2,52.9L119.2,52.9z M151.9,54.4l-2.4-2.4c-0.1,0-0.3,0-0.4-0.1l2.4,2.4C151.6,54.4,151.8,54.4,151.9,54.4
	z M118.4,53.1l-1.9-1.9c-0.2,0-0.2-0.1-0.5-0.2c0,0-0.1,0-0.1,0l2.2,2.2C118.2,53.1,118.3,53.1,118.4,53.1z M150.5,54.3l-2.1-2.1
	l-0.4-0.4c-0.1,0-0.1,0-0.2,0c-0.1-0.6-0.4-1.2-0.9-1.6c-0.1-0.1-0.2-0.1-0.2-0.2c0.2,0.3,0.4,0.6,0.5,1l-2.3-2.3l0,0l-2.2-2.2
	c0,0.1,0,0.2-0.1,0.3l4.7,4.7c0,0.1,0,0.2,0,0.2c0,0,0.1,0.1,0.1,0.1c0.1,0,0.1,0,0.2,0l0.7,0.7l1.9,1.9
	C150.3,54.3,150.4,54.3,150.5,54.3z M110.6,53.6l-3.1-3.1l0,0l-1.9-1.9c0,0.1,0,0.2,0,0.3l4.7,4.7C110.4,53.6,110.5,53.6,110.6,53.6
	z M103.8,54.1c0.1,0,0.1,0,0.2,0l-0.1-0.1l0,0l0,0l-2.2-2.2c0,0,0,0,0,0c-0.1,0-0.1,0.1-0.2,0.1L103.8,54.1
	C103.7,54.1,103.7,54.1,103.8,54.1z M108.1,49.8L108.1,49.8l-2.3-2.3c0,0.1,0,0.2-0.1,0.3l2.2,2.2l0.3,0.3c0,0.1,0,0.1,0.1,0.2
	c0.1,0.2,0.4,0.4,0.6,0.6c-0.1-0.3-0.1-0.6-0.1-0.9c-0.1-0.3-0.1-0.7-0.2-1v0c0,0,0,0,0,0c0,0,0,0,0,0c0,0,0,0,0,0c0-0.1,0-0.4,0,0
	c-0.2-2.1-0.1-4.1,0.6-6.1c0.7-2,2.1-3.8,3.6-5.3c0.7-0.7,1.4-1.2,2.2-1.8c0.2-0.2,1-0.7,1.5-0.8c0-0.2-0.1-0.4-0.2-0.6
	c-0.2-0.2-0.6-0.1-0.9,0.1c0,0,0.1,0,0.1-0.1l-3.2-3.2l-3.6-3.6h0l0,0l-1.9-1.9c0,0.2,0.1,0.3,0.2,0.5l1.5,1.5l0,0l3.6,3.6l0,0l0,0
	l3.1,3.1c0,0,0,0,0,0c-0.2,0.1-0.4,0.3-0.6,0.4c0,0,0,0,0.1,0l-3-3l0,0l-3.6-3.6l0,0l0,0l-0.2-0.2c0.2,0.3,0.4,0.6,0.6,0.9l3,3l3,3
	c-0.1,0-0.1,0.1-0.1,0.1c-0.4,0.3-0.7,0.5-1.1,0.8c0,0,0,0,0,0l-2.9-2.8l0,0l-0.9-0.9c0,0,0,0.1,0,0.1c0,0.1,0,0.2,0,0.2l0.7,0.7
	l0,0l2.8,2.8c0,0,0,0,0.1,0c-0.4,0.3-0.7,0.6-1,0.9c0,0-0.1,0.1-0.1,0.1l-2.8-2.8l-0.1-0.1c0,0.1-0.1,0.2-0.1,0.2l0,0l2.8,2.8
	c0,0,0.1-0.1,0.1-0.1c-0.4,0.4-0.7,0.8-1.1,1.2l-2.5-2.5c0,0.1-0.1,0.1-0.1,0.2l2.5,2.5c0,0,0.1-0.1,0.1-0.1
	c-0.2,0.3-0.4,0.5-0.6,0.8c0-0.1,0.1-0.1,0.1-0.2l-2.5-2.5c0,0.1-0.1,0.1-0.1,0.2l2.5,2.5c-0.1,0.2-0.3,0.4-0.4,0.6
	c0,0,0-0.1,0.1-0.1l-2.5-2.5c-0.1,0.1-0.1,0.1-0.2,0.2l2.6,2.6c-0.1,0.2-0.3,0.4-0.4,0.6c0,0,0-0.1,0.1-0.1l-2.6-2.6
	c-0.1,0.1-0.1,0.1-0.2,0.2l2.7,2.7c-0.1,0.2-0.2,0.4-0.3,0.6l0-0.1l-2.7-2.7c0,0.1-0.1,0.1-0.1,0.2c0,0,0,0.1,0,0.1l2.7,2.7
	c-0.1,0.2-0.2,0.4-0.3,0.6l-2.4-2.4c0,0.1,0,0.2,0,0.4l2.2,2.2l0,0l0,0c-0.1,0.2-0.1,0.4-0.2,0.6l-0.3-0.3l0,0l-1.7-1.7
	c0,0.1,0,0.2,0,0.4l1.5,1.5l0.4,0.4c-0.1,0.2-0.1,0.5-0.2,0.7l-0.6-0.6l0,0l-1-1c0,0.1,0,0.2,0,0.3l0.8,0.8l0,0l0,0l0.7,0.7
	c0,0.2-0.1,0.5-0.1,0.7l-1-1l0,0l0,0l0,0l-0.4-0.4c0,0.1,0,0.2,0,0.3l0.3,0.3l0,0l0,0l0,0l1.2,1.2c0,0.3,0,0.5-0.1,0.8l-1.5-1.5
	c0,0.1,0,0.2,0,0.3l1.5,1.5c0,0.3,0,0.6,0,0.9l-1.6-1.6c0,0.1,0,0.2,0,0.3l1.7,1.7c0,0.3,0,0.6,0.1,0.8c0,0,0,0,0,0c0,0,0,0,0,0v0
	c0,0,0,0.1,0,0.1l-1.9-1.9c0,0.1,0,0.2-0.1,0.3l2,2c0,0.2,0.1,0.4,0.1,0.6C108.1,49.6,108.1,49.7,108.1,49.8L108.1,49.8L108.1,49.8z
	 M121.8,52.9l-1.3-1.3l0,0l-1-1c-0.1,0-0.2,0-0.3,0.1l1.1,1.1v0l0,0l1.2,1.2L121.8,52.9z M108.5,20.9L108.5,20.9l3.6,3.6l0,0
	l3.5,3.5l0,0l0,0l3.5,3.5l0,0l0,0l0.9,0.9c0,0.1,0,0.3-0.1,0.4c0,0.1,0,0.2-0.1,0.3l-1.2-1.2l0,0l-3.5-3.5l0,0l0,0l-3.5-3.5l0,0l0,0
	l-3.5-3.5l0,0l-0.4-0.4c0,0.1,0,0.2-0.1,0.3l0.3,0.3l0,0l3.6,3.6l1.8,1.8l1.8,1.8l0,0l3.6,3.6l0,0l1.3,1.3c-0.1,0.2-0.1,0.4-0.2,0.6
	l-1.5-1.5l0,0l0,0l-3.6-3.6l0,0l-1.8-1.8l-1.8-1.8l0,0l0,0l-3.6-3.6l0,0l-0.1-0.1c0,0.1-0.1,0.2-0.1,0.3l0,0l3.6,3.6l0,0l1.8,1.8
	l1.8,1.8l0,0l0,0l3.5,3.5l0,0l1.6,1.6c-0.1,0.2-0.2,0.4-0.2,0.6l-1.8-1.8l0,0l0,0l-3.6-3.6h0l0,0l-3.6-3.6l-3.4-3.4
	c0,0.1,0,0.2-0.1,0.3l3.3,3.3l0,0L112,28l1.8,1.8l0,0l0,0l3.6,3.6l0,0l1.8,1.8c-0.1,0.2-0.2,0.4-0.3,0.6l-2-2l0,0l-3.6-3.6l0,0
	l-3.6-3.6l0,0l-3-3c0,0.1,0,0.2-0.1,0.2c0,0,0,0,0,0l2.9,2.9l0,0l3.6,3.6l0,0l0,0l3.6,3.6l0,0l2.1,2.1c0,0,0,0,0,0
	c-0.1,0.2-0.2,0.4-0.2,0.6l-2.3-2.3l0,0l-3.6-3.6h0l0,0l-3.6-3.6l0,0l-2.6-2.6c0,0.1,0,0.2,0,0.3l2.4,2.4l0,0l3.6,3.6l0,0l3.5,3.5
	c0,0,0.1,0,0.1,0.1c0,0,0.1,0.1,0.1,0.1l2.3,2.3c0,0.3,0,0.5-0.1,0.8l-2.1-2.1c0,0.1,0,0.2,0,0.3l2.1,2.1c0,0.2-0.1,0.3-0.1,0.5
	c-0.1,0.4-0.1,0.8-0.2,1.1c0,0,0,0.1,0,0.1l-0.1-0.1l0,0l-2.1-2.1c0,0.1-0.1,0.2-0.1,0.3l2,2l0,0l0,0l0.3,0.3c0,0.2,0,0.3,0,0.5
	c0,0.1,0,0.2,0,0.4l-0.7-0.7l0,0l0,0l-1.9-1.9c0,0.1-0.1,0.2-0.1,0.2l1.8,1.8l0,0l0,0l1,1c0.2,0.3,0.3,0.5,0.4,0.8
	c0.1,0.3,0.2,0.5,0.3,0.8l-2.2-2.2l0,0l-1.6-1.6c0,0,0,0.1-0.1,0.1c0,0,0,0.1,0,0.1l1.6,1.6l0,0l2.5,2.5c0,0.1,0.1,0.2,0.1,0.4
	c0,0.2,0,0.4,0.1,0.5c0.2,0.2,0.3,0.4,0.4,0.6l-3.5-3.5l0,0l-1.4-1.4c0,0.1,0,0.2,0,0.3l1.2,1.2l0,0l0,0l3.6,3.6l0,0l0.2,0.2
	c0,0,0,0.1,0,0.1c0,0.1,0.1,0.3,0.2,0.3c0.2,0.1,0.4,0.3,0.5,0.5c0,0,0-0.1-0.1-0.1c-0.1-0.4-0.1-0.9-0.5-1.2
	c-0.1-0.1-0.1-0.3-0.1-0.5c-0.1-0.6-0.3-1.1-0.5-1.6c-0.2-0.4-0.4-0.7-0.6-1.1c-0.1-0.2,0-0.4,0-0.6c0-0.3,0-0.6,0-0.9
	c0-0.4,0.1-0.8,0.2-1.1c0.1-0.6,0.2-1.2,0.2-1.8c0-0.2,0.1-0.5,0.2-0.7c0.1-0.3,0.3-0.6,0.5-1c0.3-0.8,0.6-1.3,0.7-2.2
	c0.1-0.4,0.2-0.7,0-1.1c-0.1-0.2,0-0.3,0.3-0.2c0.3,0,0.5-0.1,0.7-0.3c0.2-0.2,0.4-0.5,0.6-0.7c0-0.1,0.2-0.1,0.2-0.1
	c0.7,0.1,1.4,0.2,2.1,0.4c2.1,0.4,6.1,0.8,8.5,0.9c0.4,0,1.1-0.1,1.6,0c0.1,0,0.2,0.1,0.2,0.2c0.1,0.1,0.2,0.2,0.3,0.3
	c0,0,0-0.1,0-0.1c0.1-0.4,0-0.5-0.3-0.5c-0.3,0-0.5-0.2-0.6-0.4c-0.1-0.1-0.1-0.2-0.2-0.2c-0.4-0.1-1.1,0-1.6,0
	c-2.4-0.1-6.4-0.5-8.5-0.9c-0.7-0.1-1.4-0.3-2.1-0.4c0,0,0,0-0.1,0c0,0,0,0,0.1,0c0.1,0,0.1,0,0.2,0l-0.9-0.9l0,0l-3.6-3.6l0,0
	l-3.6-3.6h0l0,0l-3.6-3.6l-2.4-2.4c-0.1,0-0.2,0-0.3,0.1l2.5,2.5l0,0l0,0l3.6,3.6l0,0l3.6,3.6l0,0l3.6,3.6l0.7,0.7c0,0,0,0,0,0
	c0,0-0.1,0-0.1,0.1c-0.1,0.1-0.2,0.3-0.3,0.4l-0.7-0.7l0,0l-3.6-3.6l0,0l-3.6-3.6l0,0l-3.6-3.6l0,0l-2.6-2.6c-0.1,0-0.1,0.1-0.2,0.1
	l2.7,2.7l0,0l0,0l3.6,3.6l0,0l3.6,3.6l0,0l3.6,3.6l0.8,0.8c0,0-0.1,0.1-0.1,0.1c-0.1,0.1-0.2,0.2-0.4,0.2l-0.7-0.7l0,0l-3.6-3.6l0,0
	l-3.6-3.6h0l0,0l-3.6-3.6l0,0l-2.8-2.8c-0.1,0-0.1,0.1-0.2,0.1l2.8,2.8l0,0l3.6,3.6l0,0l3.6,3.6l0,0l3.6,3.6l0,0l0.6,0.6
	c0,0,0,0,0,0c-0.3,0-0.3,0-0.3,0.2c0,0.1,0.1,0.2,0.1,0.3l-0.8-0.8l0,0l0,0l-3.6-3.6l-3.6-3.6l-3.6-3.6h0l0,0l-2.9-2.8
	c-0.1,0.1-0.1,0.1-0.2,0.2L108.5,20.9L108.5,20.9z M108.4,53.7L108.4,53.7l-2.1-2.1l0,0l-0.1-0.1c-0.1,0-0.2,0-0.3,0l0.2,0.2l0,0v0
	l0,0l2,2C108.2,53.7,108.3,53.7,108.4,53.7z M119.8,52.4L119.8,52.4l0.6,0.6c0.1,0,0.2,0,0.3,0l-0.8-0.8l0,0l0,0l-1.5-1.5
	c-0.1,0-0.2,0-0.3,0L119.8,52.4L119.8,52.4z M153.2,54.6C153.2,54.6,153.2,54.6,153.2,54.6l-2.3-2.3c-0.1,0-0.3,0-0.4-0.1l2.4,2.3
	C153,54.6,153.1,54.6,153.2,54.6z M130.2,52.9l-2-2c-0.2,0-0.3-0.1-0.5-0.2l0.4,0.4l0,0l1.8,1.8C130,52.9,130.1,52.9,130.2,52.9z
	 M155.9,54.9l-2.1-2.1c-0.1,0-0.2,0-0.3,0c0,0-0.1,0-0.1,0l2.1,2.1C155.7,54.9,155.8,54.9,155.9,54.9z M158.1,52.3
	c0,0.1,0,0.2-0.1,0.3l0.3,0.3c0-0.1,0-0.2,0-0.3L158.1,52.3z M157.5,53.3l2.5,2.5c0.1,0,0.2,0,0.4,0l-0.6-0.6l-2-2
	C157.7,53.2,157.6,53.3,157.5,53.3z M153.6,54.1l0.6,0.6c0.1,0,0.3,0,0.4,0l-0.8-0.8l0,0l0,0l-1.4-1.4c-0.1,0-0.3-0.1-0.4-0.1
	L153.6,54.1L153.6,54.1z M106.2,53.9l-1.1-1.1l-1.1-1.1c-0.1,0-0.2,0-0.3,0l1.3,1.3l0,0l0.9,0.9L106.2,53.9z M107.3,53.8l-1.6-1.6
	l0,0l0,0l-0.6-0.6c-0.1,0-0.2,0-0.3,0l0.7,0.7l0,0l0,0l1.4,1.4C107.1,53.8,107.2,53.8,107.3,53.8z M133.9,53.1l-0.3-0.3l0,0l0,0
	l-2-2c-0.1,0-0.2,0-0.4,0l2.4,2.4C133.7,53.1,133.8,53.1,133.9,53.1z M111.7,53.5L111.7,53.5L111.7,53.5l-0.1-0.1l-1.5-1.5
	c-0.1,0-0.2,0-0.3,0c-0.1,0-0.1,0-0.2-0.1l1.8,1.8C111.5,53.5,111.6,53.5,111.7,53.5z M125.3,52.8l-3-3l0,0l-3.6-3.6l0,0l0,0
	l-0.1-0.1l-0.1-0.1c0.1,0.2,0.2,0.4,0.3,0.6l6.2,6.2C125.1,52.8,125.2,52.8,125.3,52.8z M140,53.5c0.1,0,0.2,0,0.2,0l-0.1-0.1l0,0
	l0,0l-3.6-3.6l0,0l-1.3-1.3c0,0,0,0-0.1,0c0,0-0.1,0.1-0.1,0.1l1.3,1.3l0,0l0,0l3.5,3.5C139.9,53.5,140,53.5,140,53.5z M115.1,53.2
	l-1.7-1.7l0,0l-0.1-0.1c-0.1,0-0.2,0.1-0.2,0.1l0.2,0.2l0,0v0l0,0l1.5,1.5L115.1,53.2z M124.2,52.9l-2.4-2.4l0,0l-2.3-2.3
	c0.1,0.2,0.1,0.3,0.2,0.5l2,2l0,0l2.3,2.3C123.9,52.9,124.1,52.9,124.2,52.9z M136.5,53.3l-1.7-1.7v0l0,0l-1.4-1.4
	c0,0.1,0,0.1,0,0.2c0,0,0,0.1,0,0.1l1.2,1.2l0,0v0l1.5,1.5C136.2,53.3,136.4,53.3,136.5,53.3z M127.7,52.9l-0.7-0.7l-2.7-2.7
	c-0.1,0-0.2,0-0.3,0.1l3.3,3.3L127.7,52.9z M112.1,53l0.5,0.5c0.1,0,0.2,0,0.3,0l-0.6-0.6l-1.2-1.2c-0.1,0-0.1,0-0.2,0
	c0,0-0.1,0-0.1,0L112.1,53L112.1,53z M137.7,53.4l-2.4-2.4l0,0l0,0l-1.1-1.1c-0.1,0-0.2,0-0.3,0c0,0-0.1,0-0.1,0l1.3,1.3l0,0l0,0
	l2.2,2.2C137.5,53.3,137.6,53.4,137.7,53.4z M113.9,53.3l-1.1-1.1l0,0h0l0,0l-0.5-0.5c-0.1,0-0.1,0-0.2,0c0,0-0.1,0-0.1,0l0.6,0.6
	l0,0l1,1C113.7,53.3,113.8,53.3,113.9,53.3z M139,53.4l-4.1-4.1c0,0.1,0,0.2-0.1,0.2l3.8,3.8C138.8,53.4,138.9,53.4,139,53.4z
	 M111.4,37.8l-2.6-2.6c0,0.1-0.1,0.1-0.1,0.2c0,0,0,0,0,0l2.6,2.6C111.3,37.9,111.4,37.8,111.4,37.8z M131.4,53l-1.9-1.9
	c-0.1,0-0.3,0-0.4,0l1.9,1.9C131.2,53,131.3,53,131.4,53z M141.3,52.2L141.3,52.2l-1.5-1.5c-0.1,0-0.2,0-0.3,0l1.6,1.6l0,0l0,0
	l1.2,1.2c0,0,0.1,0,0.1,0c0.1,0,0.1,0,0.2,0L141.3,52.2L141.3,52.2z M132.7,53.1l-2-2c-0.1,0.1-0.1,0.1-0.2,0.1l1.9,1.9
	C132.5,53.1,132.6,53.1,132.7,53.1z M117.3,53.1l-2.4-2.4c-0.1,0-0.2,0-0.3,0.1l2.3,2.3C117.1,53.1,117.2,53.1,117.3,53.1z
	 M123,52.9l-1.9-1.9l0,0l-1.3-1.3c0,0.1,0,0.3,0,0.4l2.8,2.8C122.8,52.9,122.9,52.9,123,52.9z M129,52.9l-1.3-1.3l0,0l0,0l-1.5-1.5
	c-0.2-0.1-0.4-0.2-0.6-0.3l2,2l0,0v0l1.1,1.1C128.7,52.9,128.8,52.9,129,52.9z M146.6,53.9l-3.4-3.4c-0.1,0-0.2,0-0.4,0l0.1,0.1l0,0
	l3.3,3.3C146.3,53.9,146.5,53.9,146.6,53.9z M149.2,54.1l-1.4-1.4l-3.6-3.6l0,0l-0.6-0.6c0,0.1,0.1,0.1,0.1,0.2
	c0,0.1,0.1,0.2,0.1,0.3l0.2,0.2l0,0l0,0l0,0l3.6,3.6l0,0l1.1,1.1C149,54.1,149.1,54.1,149.2,54.1z M147.9,54l-0.6-0.6l0,0l-3.2-3.2
	c0,0.1,0,0.3,0,0.4l3.5,3.5C147.6,54,147.8,54,147.9,54z M145.3,53.8l-2.8-2.8l0,0l-0.5-0.5c-0.1,0-0.2,0-0.3,0c0,0,0,0,0,0l3.3,3.3
	C145,53.8,145.2,53.8,145.3,53.8z M134,52.4L134,52.4l0.8,0.8c0.1,0,0.2,0,0.4,0l-1-1l0,0l-0.9-0.9c-0.1,0.1-0.2,0.1-0.3,0L134,52.4
	L134,52.4z M110.9,32.8L110.9,32.8l2.9,2.9c0.1,0,0.1-0.1,0.2-0.1l-2.9-2.9l0,0l-1.6-1.7c0,0.1,0.1,0.3,0.1,0.5L110.9,32.8
	L110.9,32.8z M144,53.7l-2.1-2.1v0l-1.1-1.1c-0.1,0-0.2,0-0.3,0.1l1.2,1.2v0l0,0l1.9,1.9C143.8,53.7,143.9,53.7,144,53.7z
	 M109.7,33.9L109.7,33.9L109.7,33.9l2.8,2.8c0.1-0.1,0.1-0.1,0.2-0.2l-2.8-2.8l0,0l-0.4-0.4c0,0.1,0,0.2-0.1,0.3L109.7,33.9z
	 M109.5,53.6l-2.6-2.6l0,0l-0.2-0.2c0,0,0,0.1-0.1,0.1c0,0,0,0.1-0.1,0.1l0.1,0.1l0,0l0,0l2.5,2.5C109.3,53.6,109.4,53.6,109.5,53.6
	z M116.2,53.2l-2.1-2.1c-0.1,0-0.1,0.1-0.2,0.1l2,2C116,53.2,116.1,53.2,116.2,53.2z M126.5,52.9L126.5,52.9L126.5,52.9L126.5,52.9
	l-3.2-3.2c-0.1,0-0.2,0-0.3-0.1c-0.1-0.2-0.3-0.4-0.4-0.5c-0.2-0.2-0.3-0.5-0.4-0.7c-0.3-0.6-0.7-1.2-1.2-1.6
	c0.2,0.3,0.4,0.6,0.6,0.9c0.1,0.2,0.2,0.4,0.4,0.6c0,0,0,0,0,0l-2.5-2.5l-2.1-2.1c0.2,0.3,0.3,0.5,0.5,0.8l1.5,1.5l0,0l0,0l3.5,3.5
	l0,0l0,0l0,0l3.5,3.5C126.3,52.8,126.4,52.9,126.5,52.9z M155.4,49.7C155.4,49.7,155.4,49.7,155.4,49.7l-0.1-0.2c0,0,0,0.1-0.1,0.2
	c0,0,0,0,0,0.1l0.2,0.2C155.4,49.8,155.4,49.8,155.4,49.7z M154.2,50.8l-0.4-0.4c0,0.2,0.1,0.3,0.2,0.5l0.4,0.4
	C154.3,51.1,154.2,51,154.2,50.8z M154.9,50.6l0.2,0.2c0-0.1,0-0.2,0.1-0.3l-0.2-0.2C154.9,50.5,154.9,50.6,154.9,50.6z M153.4,2.5
	l-0.2-0.2c-0.1,0-0.2,0-0.3,0.1l0.3,0.3C153.3,2.6,153.4,2.6,153.4,2.5z M147.3,4.9c0,0-0.1,0-0.2,0l0.3,0.3
	C147.4,5,147.4,4.9,147.3,4.9z M137.5,11.6l-0.4-0.4c-0.1,0-0.1,0.1-0.2,0.1l0.5,0.5C137.5,11.8,137.5,11.7,137.5,11.6z M130.1,16
	l-0.4-0.4c-0.1,0-0.1,0.1-0.2,0.1l0.6,0.6C130.1,16.2,130.1,16.1,130.1,16z M132.1,15.7l-0.4-0.4c-0.1,0-0.1,0.1-0.2,0.2l0.5,0.5
	C132.1,15.8,132.1,15.7,132.1,15.7z M118.4,38.8l-2.1-2.1c0,0.1,0,0.2-0.1,0.3l2.2,2.2C118.4,39,118.4,38.9,118.4,38.8z M143.3,48.2
	l-0.8-0.8C142.6,47.8,143,48,143.3,48.2z M138.1,42.1c0-0.1,0.1-0.2,0.1-0.2l-1.5-1.5c0,0.1,0,0.2-0.1,0.3L138.1,42.1z M134.4,32.2
	l-0.3-0.3c0,0,0,0,0,0C134.2,32.1,134.3,32.2,134.4,32.2z M100.8,54.4l-1.9-1.9c0,0-0.1,0-0.1,0c-0.1,0-0.2,0-0.2,0l1.9,1.9
	C100.6,54.5,100.7,54.5,100.8,54.4z M99.7,52.4l1.9,1.9c0.1,0,0.2,0,0.3,0l-1.9-1.9C99.8,52.4,99.7,52.4,99.7,52.4z M97.8,53
	l1.7,1.7c0.1,0,0.2,0,0.3,0L98,52.8l-0.2-0.2c-0.1,0-0.2,0-0.3,0L97.8,53L97.8,53z M96.8,54l-2.3-2.3c0,0.1,0.1,0.3,0.1,0.4l2,2l0,0
	l0.8,0.8c0.1,0,0.2,0,0.3,0L96.8,54L96.8,54z M102.9,54.2l-2.1-2.1c-0.1,0-0.2,0.1-0.3,0.1l2,2C102.7,54.2,102.8,54.2,102.9,54.2z
	 M103.6,37.4l0.4,0.4c0-0.1,0.1-0.2,0.1-0.2l-0.4-0.4C103.6,37.2,103.6,37.3,103.6,37.4z M103.5,38.4L103.5,38.4
	c0.1,0,0.1,0,0.2-0.1l-0.2-0.2C103.4,38.3,103.4,38.4,103.5,38.4z M100.5,44.9c0,0,0.1-0.1,0.1-0.2l-0.3-0.3c0,0.1,0,0.3,0,0.4
	L100.5,44.9z M100.8,43.8l-0.5-0.5l0,0l0,0l-0.1-0.1h0c0,0.1,0,0.2,0,0.3l0.5,0.5C100.8,44,100.8,43.9,100.8,43.8z M93.6,55.5
	l-1.4-1.4c-0.1,0-0.2,0.1-0.3,0.1l1.4,1.4C93.4,55.6,93.5,55.5,93.6,55.5z M92.6,55.7l-1.3-1.3c-0.1,0-0.2,0.1-0.2,0.1l1.2,1.2
	C92.4,55.7,92.5,55.7,92.6,55.7z M95.8,48.3L95.8,48.3c-0.2-0.1-0.2,0-0.3,0.1l0.2,0.2C95.8,48.4,95.8,48.3,95.8,48.3z M94.6,55.4
	l-1.5-1.6c-0.1,0-0.2,0-0.3,0.1l1.5,1.5C94.4,55.4,94.5,55.4,94.6,55.4z M96.2,52.6C96.2,52.6,96.2,52.6,96.2,52.6
	c-0.1,0.3,0.1,0.3,0.3,0.3l0.7,0.7l1.3,1.3c0.1,0,0.2,0,0.3,0l-1.4-1.4l0,0l-0.6-0.6c0.1,0,0.1,0,0.2-0.1c0.1-0.3,0.1-0.6,0-0.6
	c-0.1,0-0.5,0.7-0.6,0.7c0,0-0.1-0.2-0.2-0.6c0,0,0,0.1,0,0.1L96,52c-0.1,0.1-0.1,0.1-0.1,0.2c0,0,0,0,0,0c0.1,0,0.3-0.4,0.4-0.6
	c0-0.5,0-1.1,0-1.6c0-0.2,0.3-1,0.2-1c-0.5,0-0.7,2.1-0.8,2.7c0,0,0,0.1,0,0.1L95,51c0,0.1,0,0.1,0,0.1c0,0,0,0,0,0c0,0,0,0,0-0.1
	c-0.1-0.1-0.2-0.2-0.3-0.2c0,0,0,0,0,0c-0.1-0.1-0.2-0.3-0.3-0.5l-0.2-0.2h0c0,0,0,0-0.1,0c0,0-0.1,0.1,0,0.2L96.2,52.6z M95.6,50.4
	L95.1,50c0,0.1,0,0.2,0,0.3l0.5,0.5C95.6,50.6,95.6,50.5,95.6,50.4z M95.6,49.2L95.3,49c0,0.1,0,0.2-0.1,0.3l0.3,0.3
	C95.6,49.4,95.6,49.3,95.6,49.2z M96.4,51.6c0-0.1,0-0.2,0-0.2c0,0-0.1,0-0.1,0L96.4,51.6z M100.2,36.3L100.2,36.3l2,1.9
	c-0.1,0.2-0.1,0.4-0.2,0.7l-2.2-2.2l0,0l-0.1-0.1c0,0.1,0,0.2,0,0.4l2.2,2.2c0,0.1-0.1,0.2-0.1,0.3c0,0.1-0.1,0.2-0.1,0.3l-2-2
	c0,0.1,0,0.3,0,0.4l1.9,1.9c-0.1,0.2-0.1,0.5-0.2,0.7l-1.6-1.6c0,0.1,0,0.3,0.1,0.4l1.5,1.5c-0.1,0.2-0.1,0.5-0.2,0.7l-1.2-1.2
	c0,0.1,0,0.3,0,0.4l1.1,1.1c-0.1,0.2-0.1,0.5-0.1,0.7l-0.1-0.1l0,0l-0.4-0.4l-0.4-0.4c0,0.1,0,0.2,0,0.4l0.5,0.5l0,0l0.2,0.2
	c0,0.1-0.1,0.3-0.1,0.4c0,1.2,0,2.1,0.1,2.2c0.4,0.1,0.6-2.4,1.4-5.4c0.6-2.1,1-3.5,1.3-4.2c0-0.7-0.2-1.3-0.3-1.2c0,0,0,0,0,0
	c0.1,0,0.2,0.1,0.2,0.3l0.9,0.9c0,0.2-0.1,0.4-0.1,0.5c0,0.2,0,0.5,0,0.7c-0.1,0.7-0.4,1.9-0.2,2c0.3,0.1,1.5-3,2.1-9
	c0.6-5.9,0.2-5.9,0.8-7.6c0.1-0.3,0.2-0.5,0.3-0.7c0.3-0.9,0.5-1.6,0.4-1.7c-0.1-0.1-0.3,0-0.6,0.3c0,0,0,0,0.1-0.1l-2-2
	c-0.1,0.1-0.1,0.1-0.2,0.2l2,2c-0.1,0.1-0.2,0.3-0.4,0.6c0,0,0,0,0-0.1l-2.1-2.1c-0.1,0.1-0.1,0.1-0.2,0.2l2.2,2.2
	c-0.1,0.2-0.2,0.4-0.2,0.6c0,0,0,0,0,0l-2.3-2.3c0,0.1-0.1,0.1-0.1,0.2l2.4,2.4c-0.1,0.3-0.1,0.5-0.2,0.7l-2.6-2.6
	c0,0.1-0.1,0.1-0.1,0.2l2.7,2.7c0,0.2,0,0.5-0.1,0.8l-0.3-0.3l0,0L103,21c0,0.1-0.1,0.1-0.1,0.2l2.6,2.6l0,0l0.5,0.5
	c0,0.2,0,0.5,0,0.8l-0.9-0.9l-2.5-2.5c0,0.1-0.1,0.1-0.1,0.2l2.4,2.4l0,0l0,0l1,1c0,0.2,0,0.5-0.1,0.8l-1.4-1.4l0,0l-2.3-2.3
	c0,0.1-0.1,0.1-0.1,0.2l2.3,2.3l0,0l1.5,1.5c0,0.2,0,0.5-0.1,0.8l-1.9-1.9l0,0l0,0l-2.1-2.1c0,0.1-0.1,0.2-0.1,0.2l2.1,2.1l0,0l2,2
	c0,0.2,0,0.5-0.1,0.8l-2.4-2.4l0,0l-1.9-1.9c0,0.1-0.1,0.2-0.1,0.2l1.8,1.8l0,0l0,0l2.5,2.5c0,0.2,0,0.5-0.1,0.8l0,0l-2.9-2.9l0,0
	l-1.6-1.6c0,0.1-0.1,0.2-0.1,0.3l1.5,1.5l0,0l3,3c0,0.3-0.1,0.5-0.1,0.8l-3.3-3.3l0,0l0,0l-1.3-1.3c0,0.1-0.1,0.2-0.1,0.3l1.2,1.2
	l3.5,3.5c0,0.3-0.1,0.5-0.1,0.8l-0.2-0.2l-3.6-3.6l-1-1c0,0.1,0,0.2-0.1,0.3l0.8,0.9l0,0l0,0l3.5,3.5l0,0h0l0,0l0.4,0.4
	c0,0.3-0.1,0.5-0.1,0.7l-0.7-0.7l0,0l-3.5-3.5l0,0l-0.6-0.6c0,0.1,0,0.2-0.1,0.3l0.5,0.5l0,0l3.6,3.6l0.8,0.8c0,0.2-0.1,0.5-0.1,0.7
	l-1.1-1.1l0,0l-3.5-3.5l0,0l-0.2-0.2c0,0.1,0,0.2,0,0.3l0.1,0.1l0,0l3.6,3.6l0,0L105,34c0,0.2-0.1,0.5-0.1,0.7l-1.5-1.5l0,0
	l-3.3-3.3c0,0.1,0,0.2,0,0.3l3.2,3.2l1.6,1.6c-0.1,0.2-0.1,0.5-0.2,0.7l-1.9-1.9l0,0l0,0l-2.9-2.9c0,0.1,0,0.2,0,0.3l2.7,2.7l0,0
	l0.8,0.8c0,0,0,0,0,0c-0.1,0-0.2,0.2-0.3,0.6l-0.9-0.9l0,0L99.7,32c0,0.1,0,0.2,0,0.3l2.2,2.2l1,1c-0.1,0.2-0.1,0.4-0.2,0.6
	l-1.2-1.2l-1.9-1.9c0,0.1,0,0.2,0,0.3l1.7,1.7l0,0l1.3,1.3c-0.1,0.2-0.1,0.4-0.2,0.7l-1.5-1.5l0,0l0,0l-1.3-1.3c0,0.1,0,0.2,0,0.3
	l1.1,1.1l0,0l1.6,1.6c-0.1,0.2-0.1,0.4-0.2,0.7l-1.9-1.9l0,0l-0.7-0.7c0,0,0,0,0,0c0,0.1,0,0.2,0,0.3L100.2,36.3L100.2,36.3z
	 M104.3,36.6l-0.6-0.6c0,0.1,0,0.2,0,0.3l0.5,0.5C104.3,36.8,104.3,36.7,104.3,36.6z M143.1,14.8l-2.1-2.1c0,0.1,0,0.2,0,0.4
	l1.9,1.9v0l4.5,4.5c0-0.1,0.1-0.2,0.1-0.2L143.1,14.8L143.1,14.8L143.1,14.8z M122.1,21.5L122.1,21.5l3.6,3.6l0,0l0,0l3.6,3.6h0
	l3.2,3.2c0.1,0,0.2,0,0.3,0l-14-14l0,0l0,0l-3.1-3.1c-0.1,0-0.3-0.1-0.4-0.1l3.4,3.4L122.1,21.5z M114.4,14.9l3.6,3.6l0,0l3.6,3.6
	l0,0l3.6,3.6l0,0l3.5,3.5l0,0l2.5,2.5c0.1,0,0.2,0,0.4,0l-2.7-2.7l0,0l-3.5-3.5l0,0l0,0l-3.6-3.6l0,0l-3.6-3.6h0l0,0l-3.6-3.6l0,0
	l-0.5-0.5c-0.2,0-0.3-0.1-0.4-0.1L114.4,14.9L114.4,14.9z M119.2,17.3L119.2,17.3l3.6,3.6l0,0l0,0l3.6,3.6l3.6,3.6l0,0l0,0l3.6,3.6
	l0,0l0.2,0.2c0.1,0,0.2,0,0.3,0c0,0,0.1,0,0.1,0.1l-0.4-0.4l0,0l0,0l-3.6-3.6l0,0l-3.6-3.6l0,0l-3.6-3.6l0,0l-3.6-3.6l-2.3-2.3
	c-0.1,0-0.3-0.1-0.4-0.1L119.2,17.3L119.2,17.3z M119.8,16.7L119.8,16.7l3.6,3.6l0,0l3.6,3.6l0,0l3.6,3.6l0,0L134,31l0,0l3.6,3.6
	l0,0l1.9,1.9c-0.1,0.2-0.1,0.5-0.1,0.7l-2.2-2.2h0l0,0l-2.1-2.1c0,0.1,0,0.2-0.1,0.3l4.4,4.4c0,0.2,0,0.3-0.1,0.3
	c0,0.1-0.1,0.3-0.1,0.4l-4.3-4.3c0,0.1,0,0.1,0,0.2c0,0.1,0,0.2,0,0.2l1.5,1.5l0,0l2.7,2.7c0,0.2-0.1,0.5-0.1,0.7l-2.1-2.1
	c0,0.1,0.1,0.3,0.1,0.4l1.9,1.9c-0.1,0.2-0.1,0.4-0.2,0.7l-1.8-1.8c0,0.1-0.1,0.1-0.1,0.2l1.8,1.8c0,0,0,0,0,0
	c-0.1,0.2-0.1,0.4-0.2,0.6l-0.1-0.1l0,0l0,0l-1.5-1.5c0,0,0,0.1,0,0.1c0,0.1,0,0.2,0,0.2l1.4,1.4v0l0,0l0.2,0.2
	c-0.2,0.5-0.4,1-0.5,1.5l-0.7-0.7l0,0h0l0,0l-0.6-0.6c0,0.1,0,0.2,0,0.3l0.4,0.4l0,0l0.8,0.8c-0.1,0.2-0.1,0.5-0.1,0.7l-1.1-1.1l0,0
	l0,0l0,0.3l1.1,1.1c0,0.3,0,0.5-0.1,0.8l-1.1-1.1c0,0.1,0,0.1,0,0.2c0,0,0,0.1,0,0.1l1.1,1.1c0,0.3,0,0.6,0,0.9l-1.2-1.2
	c0,0.1-0.1,0.1-0.1,0.2l1.4,1.4c0,0.3,0,0.6,0,0.9l-1.8-1.8c-0.1,0.1-0.1,0.1-0.1,0.2l2,2c0,0.1,0,0.3,0,0.4c0,0.1,0,0.3,0,0.4
	l-2.3-2.3c0,0.1,0,0.2,0,0.3v0l2.3,2.3l0,0l0.3,0.3c0.2,0.3,0.3,0.6,0.4,0.9c0,0.1,0.1,0.4,0.2,0.5l-1.3-1.3l0,0h0l-2-2
	c0,0.1,0,0.1,0,0.2c0,0,0,0.1,0,0.1l1.9,1.9l0,0l0,0l3.6,3.6l0,0l0.6,0.6c0.1,0,0.2,0,0.4,0l-2.8-2.8c0,0,0,0,0,0
	c0.1,0,0.2,0.1,0.3,0.1c0-0.1,0-0.1,0-0.1c-0.1-0.4-0.3-0.7-0.5-1c-0.2-0.3-0.2-0.6-0.2-0.9c0-1.7-0.2-3.5,0.2-5.2
	c0.2-0.8,0.6-1.6,0.9-2.5c0.3-0.9,0.4-1.7,0.6-2.6c0-0.2,0.2-1.1,0.3-1.7l0,0c0-0.2-0.1-0.8-0.3-1c0,0,0,0,0,0l3.1,3.1
	c0.1,0.4,0.2,0.8,0.2,1.1l-2-2l0,0l-1-1c0,0.1,0,0.3,0.1,0.4l0.8,0.8l0,0l2.3,2.3c0.1,0.3,0.1,0.5,0.1,0.7c0,0.1,0,0.2,0,0.3
	l-2.9-2.9l0,0l-0.2-0.2c0,0.1,0,0.3,0.1,0.4l3,3c0,0.3,0,0.6,0.1,0.9l-2.9-2.9c0,0.2,0.1,0.3,0.1,0.5l2.8,2.8c0,0.4,0.1,0.7,0.1,1
	l-0.7-0.7l0,0l0,0l-1.8-1.8c0.1,0.2,0.1,0.4,0.2,0.5l1.4,1.4l0,0l1,1c0,0,0,0,0,0c0.1,0.4,0.2,0.7,0.3,1.1l-1.7-1.7l0,0h0l0,0
	l-0.4-0.4c0.1,0.2,0.1,0.4,0.2,0.5l0,0l0,0l0,0l1.9,1.9c0.1,0.4,0.2,0.8,0.3,1.2l-2-2c0,0.1,0,0.3,0,0.4l2.1,2.1
	c0.1,0.2,0.1,0.4,0.2,0.6c0.1,0.2,0.3,0.3,0.5,0.5l0.1,0.1c-0.3-0.7-0.5-1.5-0.7-2.2c-0.1-0.5-0.2-1-0.3-1.5c-0.2-0.7-0.3-3-0.4-3.4
	c-0.1-0.7-0.5-2.2-0.8-4.1c-0.3-1.8-0.4-2.6-0.2-3.8c0.2-1.2,1.4-2,2.7-4.3c1.3-2.3,1.7-3.3,1.7-4.1c0.1-0.8-0.4-2.8,0.7-5.7
	c1.1-2.8,2.3-4.4,2.6-4.6c0.7-0.6,2.1-0.7,2.4-0.7c0.3,0,1.2,0.8,2.4,1c1.2,0.3,1.4,0.1,2.7,0.4c1.3,0.3,1.4,0.6,1.8,0.6
	c0.4-0.1,0.7-0.4,1.1-1.4c0.4-1-0.4-1.8-1.1-2.4c0.1,0.1,0.2,0.3,0.3,0.5l-0.8-0.8l0,0l-3.6-3.6l0,0l-2.5-2.5c0,0,0,0-0.1,0
	c-0.1-0.1-0.2-0.1-0.3-0.2c-0.2-0.4-0.1-0.8,0-1.3c0.2-0.9,0.9-1.5,0.8-1.7c-0.1-0.2-0.8,0.2-1.2,0.3c0,0,0-0.1,0-0.1l-0.6-0.6
	c0,0,0,0,0,0c0.1,0,0.2-0.1,0.3-0.1c0-0.2-0.1-0.3-0.1-0.3c-0.1,0-0.2,0.2-0.3,0.4c0,0,0,0,0,0c-0.1,0-0.1-0.2-0.1-0.4l-0.4-0.4
	c0,0.1-0.1,0.1-0.1,0.2l1.4,1.4c0,0,0,0,0,0c-0.1,0.2-0.2,0.4-0.2,0.6c0,0,0,0,0,0.1l-1.5-1.5c0,0.1-0.1,0.1-0.1,0.2l1.6,1.6
	c-0.1,0.4-0.1,0.7,0,1c0,0,0,0,0,0c0,0,0-0.1,0-0.1l-2-2c-0.1,0-0.1,0.1-0.2,0.1l2.1,2.1L156,9l0,0l3.6,3.6l0,0l1.2,1.2
	c0,0.2,0,0.5-0.1,0.7c0,0,0,0,0,0l-5.1-5.1l-0.2,0.2l0,0l3.6,3.6l0,0l1.6,1.6c-0.1,0.2-0.2,0.4-0.3,0.6l-1.7-1.7l0,0l0,0L155,10l0,0
	l-3.6-3.6l0,0l-2.5-2.5c-0.1,0-0.1,0.1-0.2,0.1l2.6,2.6l0,0l0,0l3.6,3.6l0,0l3.6,3.6h0l0,0l1.7,1.7c-0.2,0.2-0.3,0.3-0.5,0.4
	L150.8,7l0,0l0,0l-2.6-2.6c0,0-0.1,0.1-0.1,0.1c0,0,0,0.1,0,0.1l11.2,11.2c0.1,0,0.2,0,0.3,0c0,0,0,0,0.1,0c0,0,0,0-0.1,0
	c-0.4,0.1-0.5-0.3-1.8-0.6c-1.3-0.3-1.5-0.1-2.7-0.4c-1.2-0.3-2.1-1.1-2.4-1c-0.3,0-1.7,0.1-2.4,0.7c0,0-0.1,0.1-0.1,0.1L145,9.5
	c0,0.1-0.1,0.2-0.1,0.3l1.6,1.6l0,0l3.4,3.4c-0.1,0.1-0.2,0.3-0.4,0.5l-3.5-3.5l0,0l-1.4-1.4c0,0.1-0.1,0.2-0.1,0.2c0,0,0,0,0,0
	l1.3,1.3l0,0l0,0l3.5,3.5c-0.1,0.2-0.2,0.3-0.3,0.5l-4.8-4.8c0,0.1-0.1,0.2-0.1,0.2l4.7,4.7c-0.1,0.2-0.2,0.4-0.3,0.6c0,0,0,0,0,0
	l-0.2-0.2l0,0l-4.5-4.5c0,0,0,0,0,0c0.1-0.1,0.4-0.6,0.7-1.4c0,0,0,0,0,0c-0.1-0.7-0.2-1.5-0.2-1.7c0-0.3,0.3-0.8,0.2-0.9
	c-0.1-0.1-0.4,0.2-0.9,0.6c0-0.1,0-0.2,0-0.3l-0.5-0.5c-0.1,0.1-0.1,0.1-0.2,0.2l0.7,0.7c0,0.3,0.1,0.6,0.1,1l-1.3-1.3
	c0,0.1-0.1,0.1-0.2,0.2l1.5,1.5c0,0.2,0,0.3,0,0.5c0,0.1,0,0.2,0,0.4L142.1,9c0,0.1-0.1,0.1-0.1,0.2l1.9,1.9c0,0.3-0.1,0.6-0.1,0.7
	l-2.1-2.1c0,0.1-0.1,0.1-0.1,0.2l3.2,3.2l0,0l3.6,3.6l0,0l0.3,0.3c-0.1,0.2-0.2,0.4-0.3,0.6c0,0,0,0,0-0.1l-0.4-0.4l0,0l0,0
	l-3.6-3.6l0,0l-3-3c0,0.1-0.1,0.2-0.1,0.2l6.9,6.9c-0.1,0.2-0.2,0.4-0.3,0.6l-0.6-0.6l0,0l0,0l-3.6-3.6l0,0l-2.6-2.6
	c0,0.1,0,0.1,0,0.2c0,0,0,0.1,0,0.1l2.5,2.5l0,0l3.6,3.6l0,0l0.7,0.7c-0.1,0.1-0.1,0.3-0.2,0.4c-0.1,0.4-0.3,0.7-0.4,1.1l-6.1-6.1
	c0,0.2,0.1,0.3,0.1,0.4l1.1,1.1l0,0l3.6,3.6l0,0l1.3,1.3c0,0,0-0.1,0-0.1c-0.1,0.3-0.1,0.5-0.2,0.8l-1.5-1.5l0,0l0,0l-3.6-3.6l0,0
	l-1.7-1.7c0,0.1,0,0.2,0,0.3l1.6,1.6l0,0l0,0l3.6,3.6l0,0l1.7,1.7c0,0,0,0,0-0.1c0,0.3-0.1,0.6-0.1,0.8l-2-2v0l0,0l-4.8-4.8
	c0,0.1,0,0.2-0.1,0.3l1.1,1.1l0,0l3.6,3.6v0l0,0l2.2,2.2c0,0.3,0,0.6,0,0.8l-2.6-2.6l0,0l-3.6-3.6l0,0l-0.9-0.9
	c0,0.1-0.1,0.2-0.1,0.3l0.8,0.8l0,0l0,0l3.6,3.6l0,0l2.8,2.8c0,0.4,0,0.7,0,0.9l-7.4-7.4c0,0.1-0.1,0.2-0.1,0.2l7.5,7.5
	c0,0.2-0.1,0.4-0.1,0.7l-0.1-0.1l0,0l0,0l-3.6-3.6l0,0l-3.6-3.6l0,0l-0.4-0.4c0,0,0,0,0,0c0,0.1-0.1,0.1-0.1,0.2l0.3,0.3l0,0l0,0
	l3.6,3.6l0,0l3.6,3.6l0,0l0.2,0.2c-0.1,0.2-0.1,0.4-0.2,0.6l-0.4-0.4l0,0l0,0l-3.6-3.6l0,0l-3.8-3.8c0,0.1-0.1,0.1-0.1,0.2l7.8,7.8
	c-0.1,0.2-0.2,0.4-0.3,0.6l-0.6-0.6l0,0l-3.6-3.6l0,0l-3.6-3.6l0,0l-0.1-0.1c-0.1,0.1-0.1,0.1-0.2,0.2l0.1,0.1l0,0l3.6,3.6l0,0
	l3.6,3.6l0,0l0.6,0.6c-0.1,0.2-0.2,0.4-0.3,0.6l-0.8-0.8h0l0,0l-7.1-7.1l-0.1-0.1c-0.1,0.1-0.1,0.1-0.2,0.2l8.1,8.1
	c-0.1,0.2-0.2,0.4-0.3,0.6l-4.5-4.5l-3.6-3.6l0,0l-0.1-0.1c-0.1,0-0.1,0.1-0.2,0.1l0.2,0.2l0,0l0,0l3.6,3.6l0,0l3.6,3.6l0,0l1,1
	c-0.1,0.2-0.2,0.4-0.3,0.5l-1.1-1.1l-3.6-3.6l0,0l-3.6-3.6l0,0l-0.4-0.4c0,0,0,0,0,0c0.2,0,0.7-0.2,1.3-0.7c0.4-0.8,0.8-1.8,1-2.7
	c0.3-1.9-0.2-2.2-0.4-3.5c-0.3-1.3,0.5-2.3,0.3-2.4c-0.1,0-0.4,0.1-1,0.6c0,0.1,0,0.3,0,0.4c0,0,0-0.1,0-0.1l-0.8-0.8
	c-0.1,0-0.1,0.1-0.2,0.2l1,1c0,0,0,0,0,0c0,0.2,0,0.3,0,0.5c0,0.2,0.1,0.4,0.2,0.6l-0.4-0.4l0,0l-1.3-1.3c-0.1,0.1-0.1,0.1-0.2,0.2
	l1.3,1.3l0,0l0.7,0.7c0.1,0.3,0.2,0.6,0.2,1.1l-2.7-2.7c-0.1,0.1-0.1,0.1-0.2,0.2l2.8,2.8c0,0.2,0,0.5-0.1,0.8l-1.8-1.8l0,0l0,0
	l-1.3-1.3c0,0.1-0.1,0.1-0.1,0.2l1.3,1.3l0,0l2,2c0,0.2-0.1,0.5-0.2,0.7l-2.2-2.2l-1.2-1.2c0,0.1-0.1,0.1-0.1,0.2l3.5,3.5
	c-0.1,0.2-0.1,0.4-0.2,0.6l-3.5-3.5c0,0.1-0.1,0.2-0.1,0.2l0.9,0.9l0,0l2.6,2.6c-0.1,0.2-0.2,0.4-0.3,0.6l-2.7-2.7l0,0l-0.7-0.7
	c0,0,0,0,0,0c0,0.1,0,0.2-0.1,0.2l3.4,3.4c-0.1,0.2-0.2,0.4-0.3,0.6l-2.9-2.9l0,0l-0.3-0.3c0,0.1,0,0.2,0,0.3l0.2,0.2l0,0l3,3
	c-0.2,0.3-0.3,0.5-0.3,0.6c0,0,0,0,0,0l-2.9-2.9c0,0.1,0,0.2,0,0.4l3.2,3.2L140,25l0,0l3.6,3.6l0,0l1.1,1.1
	c-0.1,0.2-0.2,0.3-0.3,0.5l-1.2-1.2l0,0l0,0l-3.6-3.6l0,0l-3.6-3.6l0,0l-2.6-2.6c0,0.2,0.1,0.3,0.1,0.4l2.3,2.3l0,0l0,0l3.6,3.6l0,0
	l3.6,3.6l0,0l1.3,1.2c-0.1,0.2-0.2,0.3-0.4,0.5l-1.3-1.3h0l0,0l-3.6-3.6l0,0l-3.6-3.6l0,0l-3.6-3.6l0,0l-1.5-1.5
	c-0.1,0.1-0.1,0.1-0.1,0.2l1.5,1.5l0,0l3.6,3.6l0,0l3.6,3.6l0,0l3.6,3.6l0,0l1.3,1.3c-0.1,0.2-0.3,0.3-0.4,0.5L129.7,18c0,0,0,0,0,0
	c0.1,0.1,0.6-0.4,1-1.2c0-0.3-0.1-0.5-0.2-0.6c-0.1-0.1-0.3,0.1-0.5,0.2c0,0.1,0,0.2,0,0.3c0,0.1,0,0.2-0.1,0.3l-0.9-0.9
	c-0.1,0.1-0.1,0.1-0.2,0.1l1,1c-0.1,0.3-0.3,0.6-0.2,0.7l-1.4-1.4c-0.1,0-0.1,0-0.1,0c-0.1,0-0.1,0-0.2,0l15.2,15.2
	c-0.1,0.2-0.2,0.3-0.3,0.5l-1.5-1.5l0,0l0,0l-3.6-3.6l0,0l-3.6-3.6l0,0l-3.6-3.6v0l0,0l-3.5-3.5h0c-0.1,0-0.2,0-0.3,0l0.1,0.1l0,0
	l0,0l3.6,3.6v0l0,0l3.6,3.6l0,0l3.6,3.6l0,0l3.6,3.6l0,0l1.6,1.6c0,0,0-0.1,0-0.1c-0.1,0.2-0.2,0.5-0.3,0.7l-1.8-1.8l0,0l0,0
	l-3.6-3.6h0l-11.4-11.4c-0.1,0-0.3,0-0.4-0.1l17.1,17.1c0,0.3-0.1,0.5-0.1,0.8l-2.3-2.3l0,0l0,0l-3.6-3.6l0,0l-3.6-3.6l0,0l-3.6-3.6
	l0,0l-3.6-3.6l0,0l-1.5-1.5c-0.1,0-0.3,0-0.4-0.1l1.7,1.7l0,0l3.6,3.6h0l0,0l3.6,3.6l0,0l3.6,3.6l0,0l3.6,3.6l0,0l2.4,2.4
	c0,0.3,0,0.6,0.1,0.9L122.9,16c-0.1,0-0.3,0-0.4-0.1l16.8,16.8l3.2,3.2c0,0.3,0.1,0.6,0.2,1l-3.8-3.8l0,0l-3.6-3.6l0,0l-3.6-3.6l0,0
	l-3.6-3.6l0,0l-3.6-3.6l-3.2-3.2c-0.1,0-0.3-0.1-0.4-0.1l3.4,3.4l0,0l3.6,3.6l0,0l3.6,3.6l0,0l3.6,3.6l0,0l3.6,3.6l0,0l0,0l3.6,3.6
	l0,0l0.4,0.4c0.1,0.4,0.1,0.7,0.2,1.1l-1.1-1.1l0,0l-1.8-1.8l-1.8-1.8l0,0l0,0l-3.6-3.6l0,0l-3.6-3.6l0,0l-3.6-3.6l0,0l-3.6-3.6l0,0
	l-3.6-3.6l0,0l-0.5-0.5c-0.1,0-0.3-0.1-0.4-0.1l0.8,0.8l3.6,3.6l0,0l7.1,7.1l3.6,3.6l0,0l3.6,3.6l0,0l1.7,1.7c0,0,0,0,0,0
	c0,0,0,0,0.1,0.1c0,0,0-0.1-0.1-0.1c-0.1-0.1-0.2,0.2-0.3,0.5l-1.8-1.8l0,0l0,0l-3.6-3.6l0,0l-3.6-3.6l0,0l-3.6-3.6l0,0l-3.6-3.6
	l0,0l-3.6-3.6l0,0l-1.4-1.4c-0.1,0-0.3-0.1-0.4-0.1L119.8,16.7L119.8,16.7z M115,21.5l3.6,3.6l3.6,3.6l2.4,2.4c0.1,0,0.3,0,0.4,0.1
	l-2.6-2.6l0,0l-3.6-3.6l0,0l0,0l-3.6-3.6l0,0l-3.5-3.5l0,0l-1.6-1.6c0,0.1-0.1,0.1-0.1,0.2l1.5,1.5L115,21.5z M113.2,16.1l3.6,3.6
	l0,0l3.6,3.6l0,0l3.6,3.6l0,0l3.5,3.5l0,0l0,0h0l1.1,1.1c0.1,0,0.2,0,0.4,0l-1.3-1.3l0,0l-3.6-3.6l0,0l-3.6-3.6l0,0l-3.6-3.6l0,0
	l-3.6-3.6l0,0l-1.6-1.6c-0.1,0-0.1,0.1-0.2,0.1L113.2,16.1L113.2,16.1z M110.9,18.5l3.6,3.6l0,0l3.6,3.6l0,0l3.6,3.6l0,0l1.5,1.5
	c0.1,0,0.3,0.1,0.4,0.1l-5.3-5.3l0,0h0l0,0l-3.6-3.6l0,0l-3.5-3.5h0l0,0l0,0l-1.7-1.7c-0.1,0-0.2,0-0.4-0.1L110.9,18.5L110.9,18.5z
	 M116.2,20.3L116.2,20.3l3.6,3.6l0,0l3.6,3.6l3.9,3.9c0.1,0,0.3,0,0.4,0l-7.7-7.7l0,0l-3.6-3.6l0,0l-3.6-3.6l0,0l-1.7-1.7
	c-0.1,0.1-0.1,0.1-0.2,0.2l1.7,1.7L116.2,20.3z M112,17.3L112,17.3l3.6,3.6l0,0l3.5,3.5l0,0l0,0l3.5,3.5l0,0l3.2,3.2
	c0.1,0,0.3,0,0.4,0.1l-3.4-3.4l0,0l-3.6-3.6l-3.6-3.6l0,0l-3.6-3.6l-1.7-1.7c-0.1,0.1-0.1,0.1-0.1,0.2L112,17.3L112,17.3z
	 M113.8,15.5l3.6,3.6l0,0l3.6,3.6l7.1,7.1l1.8,1.8c0.1,0,0.2,0,0.4,0l-12.7-12.7l0,0l-3.6-3.6h0l0,0l-1.3-1.3c-0.1,0-0.2,0-0.3,0
	L113.8,15.5L113.8,15.5z M130.7,16.9l1.6,1.6l0,0l0.2,0.2c0.4,0.6,0.8,1.1,0.9,1.1c-0.3-0.5-0.7-1.1-0.8-1.6c-0.2-1,0.4-2.3,0.2-2.4
	c-0.1-0.1-0.5,0.2-0.9,0.7c0,0.1,0,0.3,0,0.4c0-0.1,0-0.2,0-0.3l-0.7-0.7c0,0.1-0.1,0.1-0.1,0.2l0.8,0.8c0,0.2,0,0.4,0,0.6
	c0,0.2,0.1,0.3,0.2,0.5l-1.3-1.3C130.8,16.8,130.7,16.9,130.7,16.9z M144,7.3L144,7.3c0,0-0.1,0-0.3,0.1l0.2,0.2
	C144,7.5,144,7.4,144,7.3z M156.5,15.1l-3.3-3.3l0,0l-3.6-3.6l0,0l-2.9-2.9c0,0.1-0.1,0.1-0.1,0.2l9.5,9.5
	C156.3,15.1,156.4,15.1,156.5,15.1z M150.1,7.8l3.6,3.6l0,0l3.6,3.6v0l0,0l0.3,0.3c0.1,0,0.2,0,0.3,0.1c0.1,0,0.1,0,0.2,0l-0.6-0.6
	l0,0v0l-9.5-9.5c0,0.1-0.1,0.2-0.1,0.2L150.1,7.8L150.1,7.8z M152.4,12.6L152.4,12.6l2.2,2.2c0.1,0,0.2,0.1,0.4,0.1c0,0,0.1,0,0.1,0
	l-2.5-2.5l0,0L149,8.8l0,0l-2.7-2.7c0,0.1-0.1,0.1-0.1,0.2l2.7,2.7L152.4,12.6z M155.6,9.4L155.6,9.4L152,5.9l0,0l-2.3-2.3
	c-0.1,0-0.2,0.1-0.2,0.1l6,6L155.6,9.4z M147.7,10.2L147.7,10.2l3.6,3.6l0,0l0.2,0.2c0.1,0,0.2,0,0.3-0.1l-6.2-6.2
	c0,0.1-0.1,0.2-0.1,0.2L147.7,10.2L147.7,10.2z M148.4,9.4L148.4,9.4l-2.5-2.5c0,0.1-0.1,0.2-0.1,0.2l2.5,2.5L148.4,9.4z M152,13
	l-3.6-3.6l-0.2,0.2l4.2,4.2c0,0,0.1,0,0.1,0c0.1,0,0.2,0.1,0.4,0.2L152,13L152,13z M150.8,14.2l-3.5-3.5l0,0l-2-2
	c0,0.1-0.1,0.2-0.1,0.3l5.4,5.4C150.6,14.2,150.7,14.2,150.8,14.2z"/>
</svg>
