<?xml version="1.0" encoding="utf-8"?>
<!-- Generator: Adobe Illustrator 18.1.1, SVG Export Plug-In . SVG Version: 6.00 Build 0)  -->
<svg version="1.1" id="Layer_1" xmlns="http://www.w3.org/2000/svg" xmlns:xlink="http://www.w3.org/1999/xlink" x="0px" y="0px"
	 viewBox="0 0 157.3 157.3" enable-background="new 0 0 157.3 157.3" xml:space="preserve">
<path fill="#2D2A30" d="M91.1,93.7C91.2,94,91.1,93.2,91.1,93.7L91.1,93.7z M116.3,100.6c-0.4-0.1-3.1-0.7-3-1.3
	c0-0.2,0-1.2-0.1-1.4c-0.1-0.1-0.2,1.4-0.8,1.4c-0.8,0-2.1,0.2-2.5-0.6c-0.4-0.9,0.1-2.3,0.3-3.3c0.1-0.6-0.1-0.5-0.2,0
	c-0.2,0.4-0.5,2-0.7,2.1c-0.1,0-0.6-1.9-0.7-1.7c-0.2,0.2,0.1,0.8,0.2,1.1c0.1,0.5,0.1,1.1,0.1,1.6c-0.1,0.4-0.3,0.3-0.5,0.3
	c-2.2-0.5-4.4-0.8-6.6-1.2c0,0-0.1-0.1-0.1-0.1c0-0.2-0.1-0.3-0.1-0.5c-0.1-0.7-0.5-1.3-1-1.8c-0.3-0.3-0.6-0.5-0.8-0.7
	c-0.2-0.2-0.5-0.3-0.5-0.5c-0.3-0.8-0.5-1.7-0.8-2.5c-0.1-0.5-0.2-1.1-0.4-1.6c-0.3-0.8-0.3-3.2-0.4-3.6c-0.1-0.7-0.5-2.4-0.9-4.4
	c-0.3-2-0.4-2.8-0.2-4.1c0.2-1.3,1.5-2.2,2.9-4.6c1.4-2.5,1.8-3.5,1.8-4.4c0.1-0.9-0.5-3,0.7-6.1c1.2-3,2.5-4.7,2.7-4.9
	c0.8-0.6,2.2-0.7,2.6-0.7c0.3,0,1.3,0.8,2.6,1.1c1.3,0.3,1.5,0.1,2.9,0.5c1.4,0.3,1.5,0.7,1.9,0.6c0.4-0.1,0.7-0.4,1.2-1.5
	c0.5-1.1-0.6-2-1.3-2.7c-0.7-0.7-4.2-4.3-4.3-4.5c-0.1-0.2-0.1-0.3-0.1-0.5c0-0.2-0.4-0.3-1.9-1.1c-1.5-0.8-1.2-1.4-1-2.4
	c0.2-1,0.9-1.6,0.8-1.8c-0.1-0.2-1.2,0.4-1.4,0.4c-0.2-0.1-0.1-1.3-0.3-1.2c-0.2,0.1-0.8,1.6-1.6,1.9c-0.8,0.2-2,0.8-2.3,1.3
	c-0.3,0.5-0.4,1.3-0.6,1.3c-0.2-0.1-0.1-0.8-0.3-0.9c-0.2-0.1-0.9,0.7-1.6,2.4c-0.7,1.7-0.8,2.6-1.3,3.8c-0.5,1.2-0.8,1.6-0.9,1.5
	c-0.1-0.1,0.2-0.9,0.2-1.7c0-0.9-0.3-2-0.2-2.4c0-0.4,0.4-0.9,0.2-1c-0.1-0.1-0.6,0.3-1.2,0.9c-0.6,0.6-1.8,2-2,3.8
	c-0.2,1.8,0.5,3.4,0.2,3.6c-0.1,0.1-0.2-0.5-0.4-0.8c-0.2-0.3-0.6-0.5-0.7-0.4c-0.1,0.1,0.2,1.6-1.2,4.3c-1.4,2.7-3.2,3.3-3.2,3.1
	c-0.1-0.1,1.5-2.3,1.8-4.4c0.4-2-0.2-2.3-0.5-3.7c-0.3-1.4,0.5-2.5,0.3-2.5c-0.2-0.1-0.7,0.3-1.7,1.1c-1,0.8-2.2,1.8-2.8,4
	c-0.7,2.2,0.2,4.1,0,4.3c-0.2,0.1-1.3-1.3-1.6-2.4c-0.3-1.1,0.4-2.5,0.2-2.6c-0.2-0.1-0.7,0.3-1.3,1.4c-0.5,1.1-1.2,1.8-1.3,1.7
	c-0.1-0.1,0.2-0.6,0.4-1.3c0.1-0.7,0.1-1.2-0.1-1.3c-0.2-0.1-0.5,0.2-0.9,0.6c-0.4,0.4-1,0.5-1,0.5c-0.3,0.1-0.5,0-1.1,0
	c-1.9,0-13.4-2.4-14.5-2.6c-1.1-0.2-1.7-0.1-2.5,0.7c-0.9,0.8-1.4,2-1.7,2c0,0-0.8-0.2-1.5-0.1c-0.7,0-3.3,1.2-5.8,5.2
	c-2.5,4-3.4,9.2-3.4,15c0,2.8,0.5,4.7,0.6,6.5c0.2,2,0,3.6,0.2,3.7c0.4,0.1,0.6-2.5,1.5-5.8c0.9-3.3,1.5-5.1,1.7-5.1
	c0.2-0.1,0.5,0.9,0.3,1.9c-0.1,0.8-0.4,2-0.2,2.1c0.4,0.1,1.6-3.2,2.2-9.6c0.6-6.4,0.2-6.3,0.8-8.1c0.6-1.8,1.4-2,1.5-1.9
	c0.1,0.1-0.7,2.4-1,4C57.8,69.4,58,70.1,59,72c1.1,1.9,2.1,2.9,2.1,4.9c0,0.8-0.3,2-0.9,3.1c-1,1.7-2.6,3.2-2.7,3.6
	c-0.1,0.7,0.4,2.8,0.2,6c-0.3,3.2-1.1,4.5-0.8,5.2c0.3,0.6,0.7,0.7,0.9,0.9c0.2,0.2,0.5,0.4,0.5,0.6c0,0.2-0.2,0.1-0.4,0.5
	c-0.2,0.3-0.3,0.5-0.3,0.5l0,0c-0.3,0-0.6,0-0.9,0.1c-0.5,0-0.9,0.1-1.4,0.1c-0.5,0-1.1,0-1.6,0.1c-0.4,0-0.8-0.1-1.2,0.1
	c-1,0.4-1.9,0.7-3,0.8c-0.6,0-1.2,0-1.8,0.1c-0.2,0-1.1,0.5-1,0c0.1-0.4,0.3-1.3,0.2-1.3c-0.1,0-0.5,0.7-0.6,0.8
	c-0.1,0-0.4-1.7-0.2-3.1c0-0.2,0.3-1.1,0.2-1.1c-0.6,0.1-0.8,3.1-0.9,3.1c-0.1,0-0.8-1.2-1-1c-0.2,0.1,0.3,1.1,0.4,1.4
	c0.2,0.7,0.6,2.1-0.5,2.3c-0.6,0.1-5.3,1.3-4.9,2.5c0.2,0.6,2.4,0,2.8-0.1c1.8-0.4,3.6-0.5,5.3-0.8c3.3-0.6,6.7-1,10.1-1.3
	c6.4-0.5,12.7-1,19.1-1.1c6.5-0.1,12.9,0.5,19.4,0.8c5.2,0.2,15.3,1.5,15.3,1.6c1.1,0.3,2.2,0.6,3.3,0.7c0.5,0.1,2.5,0.4,2.7-0.3
	C117.9,101.2,116.6,100.7,116.3,100.6z M70.2,96.6c-0.5,0.1-0.9,0.2-1.4,0.3C68.4,97,68.4,97,68,96.8c-0.3-0.2-0.5,0.2-0.7,0
	c-0.3-0.3-0.6-0.2-0.9,0c-0.9,0.4-1.6,0.9-2.6,0.9c-0.4,0-0.9-0.1-1.3-0.1c-0.4,0-0.8,0.3-1.2,0.2c-0.4-0.1-0.7-0.6-1-0.8
	c-0.2-0.2-0.5-0.4-0.7-0.6c-0.2-0.3-0.1-0.7-0.2-1.1c-0.1-0.4-0.1-0.7-0.2-1.1c0,0,0,0,0,0c0,0,0,0,0,0c0,0,0,0,0,0c0,0,0,0,0,0
	c0-0.2,0-0.4,0,0c-0.2-2.2-0.1-4.4,0.7-6.5c0.8-2.1,2.3-4.1,3.8-5.6c0.7-0.7,1.5-1.3,2.3-1.9c0.4-0.3,1.6-1.2,2.1-0.8
	c0.5,0.5,0,2.1-0.1,2.7c-0.2,0.9-0.6,1.7-0.9,2.5c-0.1,0.3-0.5,0.9-0.3,1.3c0.1,0.3,0.4,0.5,0.6,0.7c0.6,0.6,1,1.3,1.5,2
	c1.1,1.6,1.8,3.4,2.6,5.2c0.3,0.8,0.5,1.7,0.5,2.6C72.1,96.4,70.5,96.5,70.2,96.6z M90.5,83.3c0,0.1-0.2,0.2-0.2,0.3
	c0,0.3,0,0.6,0,0.9c0,0.3,0,0.5-0.1,0.8C90,86,90,86.8,90,87.5c0,0.6,0,1.2-0.1,1.8c0,0.2-0.1,0.5-0.1,0.7c0,0.2-0.2,0.3-0.3,0.4
	c-0.4,0.5-0.9,0.9-0.8,1.6c0,0.3-0.1,0.6-0.2,1c-0.1,0.3-0.1,0.7,0.1,0.9c0.1,0.1,0.1,0.2,0,0.3c-0.2,0.2-0.3,0.4-0.3,0.6
	c0,0.6-0.4,0.8-1,0.7c-0.4,0-0.7,0.2-0.7,0.6c0,0.3-0.1,0.5-0.1,0.8c0,0.2-0.2,0.2-0.3,0.1c-0.2-0.1-0.4-0.3-0.6-0.4
	c-0.3-0.1-0.5-0.1-0.8-0.2c-0.1,0-0.3,0-0.4,0c-0.2,0-0.4,0-0.4,0.3c-0.1,0.3-0.2,0.3-0.5,0.3c-0.8-0.1-1.5-0.2-2.3-0.3
	c-0.3,0-0.6-0.2-0.8-0.3c-0.7-0.3-1.4-0.6-2.1-1c-0.2-0.1-0.3-0.2-0.5-0.3c-0.1,0-0.3,0-0.5,0c-0.2,0-0.4,0.1-0.6,0.1
	c-0.2,0-0.5,0-0.7,0.1c-0.3,0-0.5-0.1-0.7-0.3c-0.3-0.3-0.5-0.7-0.8-1c-0.2-0.2-0.3-0.5-0.5-0.8c-0.3-0.7-0.7-1.3-1.4-1.8
	c-0.1-0.1-0.2-0.2-0.2-0.4c-0.1-0.4-0.2-0.9-0.6-1.2c-0.1-0.1-0.1-0.4-0.2-0.5c-0.1-0.6-0.3-1.1-0.5-1.7c-0.2-0.4-0.4-0.8-0.6-1.2
	c-0.1-0.2,0-0.4,0-0.6c0-0.3,0-0.6,0-1c0-0.4,0.1-0.8,0.2-1.2c0.1-0.6,0.2-1.3,0.2-2c0-0.2,0.2-0.5,0.3-0.7c0.2-0.4,0.3-0.7,0.5-1
	c0.4-0.9,0.6-1.4,0.8-2.3c0.1-0.4,0.2-0.8,0-1.2c-0.1-0.2,0-0.3,0.3-0.3c0.3,0,0.6-0.1,0.7-0.3c0.2-0.2,0.4-0.5,0.6-0.8
	c0.1-0.1,0.2-0.1,0.2-0.1c0.7,0.1,1.5,0.3,2.2,0.4c2.2,0.5,6.6,0.9,9.1,1c0.5,0,1.2-0.1,1.7,0c0.1,0,0.2,0.1,0.2,0.2
	c0.2,0.2,0.3,0.4,0.7,0.4c0.3,0,0.4,0.1,0.3,0.5c-0.1,0.4-0.3,0.9-0.2,1.3c0,0.3,0.1,0.5,0.1,0.8c0,0.1,0.1,0.1,0.1,0.2
	c0.1,0.1,0.2,0.2,0.4,0.3c0.3,0.2,0.6,0.4,0.6,0.8c0,0.2,0.1,0.3,0.3,0.3c0.1,0,0.2,0.1,0.3,0.2C90.5,81.8,90.6,82.5,90.5,83.3z
	 M97.8,96.5c-0.7-0.3-1.6-0.2-2.4-0.2c-0.8-0.1-1.6,0.4-2.4,0.4c-0.2,0-0.6,0-0.8-0.1c-0.2-0.1-0.2-0.6-0.3-0.8
	c-0.1-0.4-0.3-0.8-0.5-1.1c-0.2-0.3-0.2-0.6-0.2-1c0-1.8-0.3-3.8,0.2-5.5c0.3-0.9,0.6-1.7,0.9-2.6c0.3-0.9,0.5-1.9,0.6-2.8
	c0.1-0.3,0.3-2.5,0.7-2.3c0.2,0.1,0.4,0.9,0.4,1.2c0.1,0.4,0.1,0.9,0.2,1.3c0.3,1.7,0.8,3.5,1.4,5.1c0.3,0.8,0.7,1.6,0.9,2.5
	c0.1,0.4,0.1,0.9,0.1,1.3c0,0.4-0.3,0.9-0.2,1.2c0.2,0.6,1.1,0.8,1.4,1.5c0.2,0.4,0.2,0.9,0.2,1.3C98,96,98.2,96.6,97.8,96.5z
	 M62.5,15.8l1.1,4.6l1.3-0.3l-1.1-4.6l1.8-0.4l-0.3-1.2L60.4,15l0.3,1.2L62.5,15.8z M56.8,22.7c1.5-0.6,2.1-1.8,1.5-3.5L57,16.1
	l-1.2,0.5l1.2,3.2c0.3,0.9,0.1,1.5-0.7,1.8c-0.7,0.3-1.4,0-1.7-0.9l-1.2-3.2L52.2,18l1.2,3.2C54.1,22.8,55.3,23.3,56.8,22.7z
	 M68.7,15c0.1,1.2,1,1.4,2.2,1.6c1,0.1,1.3,0.3,1.3,0.6l0,0c0,0.4-0.3,0.6-0.8,0.7c-0.7,0.1-1.3-0.1-1.9-0.5l-0.7,1
	c0.8,0.6,1.7,0.8,2.6,0.7c1.3-0.2,2.1-0.9,2-2.1l0,0c-0.1-1-0.9-1.4-2.1-1.6c-1.1-0.1-1.3-0.2-1.4-0.6v0c0-0.3,0.2-0.5,0.7-0.6
	c0.5-0.1,1.1,0.1,1.6,0.4l0.6-1.1c-0.7-0.4-1.4-0.6-2.3-0.5C69.4,13.1,68.6,13.9,68.7,15L68.7,15z M28.1,46.1l0.7-1.1l-2-1.3
	l-1.7-3.9L24.3,41l1.2,2.5l-2.8-0.1l-0.9,1.3l4.3,0.1L28.1,46.1z M20.4,54.2L20.4,54.2c1.5,0.7,3.4,0.2,4.2-1.5
	c0.8-1.7,0.1-3.5-1.4-4.2l0,0c-1.5-0.7-3.3-0.1-4.2,1.5C18.2,51.6,18.8,53.4,20.4,54.2z M20.1,50.5c0.5-1,1.6-1.3,2.5-0.8l0,0
	c0.9,0.4,1.4,1.5,0.9,2.4c-0.5,1-1.6,1.3-2.5,0.8l0,0C20,52.5,19.6,51.4,20.1,50.5z M31.5,34.8c0.8,0.8,1.6,0.5,2.7-0.1
	c0.9-0.5,1.2-0.6,1.4-0.3l0,0c0.3,0.2,0.2,0.6-0.2,1c-0.5,0.5-1.1,0.7-1.8,0.8l0.1,1.2c1-0.1,1.8-0.5,2.5-1.1c0.9-0.9,1.1-2,0.2-2.9
	l0,0c-0.7-0.7-1.5-0.6-2.6,0.1c-0.9,0.5-1.2,0.6-1.5,0.4l0,0c-0.2-0.2-0.2-0.6,0.2-0.9c0.4-0.4,0.9-0.6,1.5-0.7L33.8,31
	c-0.8,0.1-1.5,0.4-2.1,1C30.9,32.9,30.7,34,31.5,34.8L31.5,34.8z M129.5,110l3.8,5.3l0.7-1.2l-0.9-1.2l1.3-2.2l1.4,0.2l0.7-1.2
	l-6.5-0.9L129.5,110z M133.3,110.6l-0.8,1.4l-1.3-1.7L133.3,110.6z M37.9,30.4c1.1,1.4,2.9,1.6,4.3,0.6c0.9-0.7,1.2-1.5,1.3-2.3
	l-1.2-0.2c-0.1,0.6-0.3,1.1-0.8,1.5c-0.8,0.6-1.9,0.4-2.5-0.4l0,0c-0.6-0.8-0.6-1.9,0.2-2.5c0.5-0.4,1-0.5,1.6-0.4l0.1-1.3
	c-0.8-0.1-1.5,0-2.4,0.7C37,27.1,36.9,29,37.9,30.4L37.9,30.4z M44.7,25.4c0.8,1.5,2.7,2,4.3,1.1c1.6-0.9,2.1-2.8,1.2-4.3l0,0
	c-0.8-1.5-2.7-2-4.3-1.1C44.3,22,43.8,23.9,44.7,25.4L44.7,25.4z M46.5,22.2c0.9-0.5,2-0.2,2.5,0.7l0,0c0.5,0.9,0.3,2-0.6,2.5
	c-0.9,0.5-2,0.2-2.5-0.7l0,0C45.4,23.8,45.6,22.7,46.5,22.2z M84,18.9c1.8,0.2,3.3-1.1,3.4-2.8l0,0c0.2-1.7-1.1-3.2-2.9-3.3
	c-1.8-0.2-3.3,1.1-3.4,2.8l0,0C81,17.2,82.2,18.7,84,18.9z M82.5,15.6c0.1-1,0.9-1.8,2-1.7c1.1,0.1,1.7,1,1.6,2v0
	c-0.1,1-0.9,1.8-2,1.7C83.1,17.6,82.4,16.6,82.5,15.6L82.5,15.6z M120.3,35.2l0.8-0.9l-2.4-2.2l0.8-0.9l2.1,1.9l0.8-0.9l-2.1-1.9
	l0.8-0.9l2.4,2.1l0.8-0.9l-3.4-3l-4,4.5L120.3,35.2z M78.7,5.2c-40.5,0-73.5,33-73.5,73.5c0,40.5,33,73.5,73.5,73.5
	c40.5,0,73.5-33,73.5-73.5C152.2,38.1,119.2,5.2,78.7,5.2z M78.7,150.5c-39.6,0-71.8-32.2-71.8-71.8c0-39.6,32.2-71.8,71.8-71.8
	c39.6,0,71.8,32.2,71.8,71.8C150.5,118.3,118.3,150.5,78.7,150.5z M128.4,44.8l4.9-3.4l-0.8-1.1l-4.9,3.4L128.4,44.8z M134.2,55.6
	l1.5,0l0.9,2.4l-1.1,1l0.5,1.3l4.7-4.5l-0.4-1.1l-6.6-0.3L134.2,55.6z M139.1,55.7l-1.5,1.4l-0.6-1.5L139.1,55.7z M132.7,45.9
	c-1.5,0.8-2.1,2.6-1.2,4.2c0.6,1,1.2,1.4,2.1,1.6l0.3-1.1c-0.6-0.2-1-0.4-1.4-1c-0.5-0.9-0.1-1.9,0.8-2.4l0,0c0.9-0.5,2-0.3,2.5,0.6
	c0.3,0.5,0.3,1.1,0.1,1.7l1.3,0.3c0.2-0.8,0.2-1.5-0.3-2.5C136,45.5,134.2,45,132.7,45.9L132.7,45.9z M123.3,38.4l1.4-1.3l0.7,0.8
	l0,0l-0.6,2.2l1,1.2l0.7-2.5c0.7,0.4,1.5,0.4,2.2-0.2l0,0c0.4-0.4,0.7-0.8,0.7-1.3c0-0.6-0.2-1.1-0.7-1.7l-1.8-2.1l-4.5,3.9
	L123.3,38.4z M126.9,35.2l0.9,1c0.4,0.5,0.5,1,0,1.3l0,0c-0.4,0.3-0.9,0.3-1.3-0.2l-0.9-1L126.9,35.2z M15.7,82.5c-1.1,0-2,0.9-2,2
	c0,1.1,0.9,2,2,2c1.1,0,2-0.9,2-2C17.7,83.5,16.8,82.5,15.7,82.5z M103.5,22.4l2.3,1.1l-0.1,1.5l1.3,0.6l0.2-6.6l-1.1-0.5l-4.9,4.4
	l1.2,0.6L103.5,22.4z M106,20.1l-0.1,2.1l-1.4-0.7L106,20.1z M92,17.6l2.8,0.6l0.3-1.2l-2.8-0.6l0.3-1.2l3.2,0.7l0.3-1.2l-4.4-1
	l-1.3,5.8l1.3,0.3L92,17.6z M142.4,82.5c-1.1,0-2,0.9-2,2c0,1.1,0.9,2,2,2c1.1,0,2-0.9,2-2C144.4,83.5,143.5,82.5,142.4,82.5z
	 M112.6,24.3l0,3l0,0l2.8-1.2l-2.2,3.3l1.1,0.7l3.3-5l-1.2-0.8l-2.7,1.2l0.1-3l-1.2-0.8l-3.3,5l1.1,0.7L112.6,24.3z M98,135.2l2,5.7
	l1.2-0.4l-2-5.7L98,135.2z M78.7,22.8c-30.8,0-55.9,25.1-55.9,55.9c0,30.8,25.1,55.9,55.9,55.9c30.8,0,55.9-25.1,55.9-55.9
	C134.5,47.9,109.5,22.8,78.7,22.8z M78.7,133.4c-30.2,0-54.8-24.6-54.8-54.8c0-30.2,24.6-54.8,54.8-54.8s54.8,24.6,54.8,54.8
	C133.4,108.9,108.9,133.4,78.7,133.4z M65,140.7l-1.9-4.2l-1.2-0.3l-1.4,5.8l1.3,0.3l0.9-3.7l1.9,4.4l1.1,0.3l1.4-5.8l-1.3-0.3
	L65,140.7z M79.5,140.5L79.5,140.5c0-0.6-0.2-1.1-0.5-1.4c-0.4-0.4-1-0.6-1.7-0.7l-2.7-0.1l-0.2,6l1.3,0l0.1-1.9l1,0h0l1.2,2l1.5,0
	l-1.4-2.2C78.9,142.1,79.5,141.5,79.5,140.5z M77.1,141.4l-1.3,0l0-1.7l1.3,0c0.6,0,1,0.3,1,0.9v0C78.1,141,77.8,141.4,77.1,141.4z
	 M57.1,134.4l-2.6-1l-2.2,5.6l1.2,0.5l0.7-1.8l0.9,0.4l0,0l0.5,2.3l1.4,0.6l-0.6-2.5c0.8,0,1.5-0.4,1.9-1.3l0,0c0.2-0.5,0.2-1,0-1.5
	C58.3,135.1,57.8,134.7,57.1,134.4z M57.2,136.7L57.2,136.7c-0.2,0.5-0.7,0.7-1.3,0.4l-1.2-0.5l0.6-1.6l1.2,0.5
	C57.1,135.7,57.4,136.2,57.2,136.7z M129.5,115.7L129.5,115.7c-1.3-1.1-3.2-0.9-4.4,0.5c-1.2,1.4-0.9,3.4,0.4,4.4l0,0
	c1.3,1.1,3.2,0.9,4.4-0.5C131,118.7,130.8,116.8,129.5,115.7z M128.9,119.4c-0.7,0.8-1.8,0.9-2.6,0.2l0,0c-0.8-0.6-1-1.7-0.3-2.6
	c0.7-0.8,1.8-0.9,2.6-0.2l0,0C129.4,117.5,129.6,118.6,128.9,119.4z M113.5,127.3l2.1,3l-4.4-1.5l-1,0.7l3.4,4.9l1.1-0.7l-2.2-3.1
	l4.5,1.5l0.9-0.6l-3.4-4.9L113.5,127.3z M93.2,139.3l0.3,1.1l1.3-0.3l0.2,0.8c-0.3,0.3-0.7,0.5-1.1,0.6c-1,0.2-2-0.4-2.2-1.4l0,0
	c-0.2-1,0.3-2,1.2-2.2c0.7-0.2,1.1,0,1.7,0.2l0.6-1.2c-0.7-0.4-1.4-0.5-2.5-0.3c-1.8,0.4-2.7,2.1-2.4,3.7l0,0c0.4,1.7,2,2.7,3.8,2.3
	c1.1-0.3,1.8-0.9,2.3-1.5l-0.6-2.5L93.2,139.3z M109.1,133.7c-0.7-1.5-2.5-2.2-4.2-1.4c-1.7,0.8-2.3,2.7-1.5,4.2l0,0
	c0.7,1.5,2.5,2.2,4.2,1.4C109.3,137.1,109.8,135.2,109.1,133.7L109.1,133.7z M107.1,136.8c-1,0.5-2,0-2.5-0.9l0,0
	c-0.5-0.9-0.2-2,0.8-2.5c1-0.5,2,0,2.5,0.9l0,0C108.3,135.2,108,136.3,107.1,136.8z M84.2,143l-0.1-1.3l2.8-0.3l-0.1-1.2l-2.8,0.3
	l-0.1-1.2l3.2-0.3l-0.1-1.2l-4.5,0.4l0.6,6l4.5-0.5l-0.1-1.2L84.2,143z M20.6,57.4L20.6,57.4c-0.8-0.2-1.3,0-1.8,0.6
	c-0.1-0.5-0.4-0.9-1-1.1l0,0c-0.4-0.1-0.8-0.1-1.1,0.1c-0.4,0.2-0.8,0.7-1,1.3L14.9,61l5.7,1.8l0.9-2.7
	C21.9,58.8,21.6,57.7,20.6,57.4z M17.9,59.3l-0.4,1.2l-1.2-0.4l0.4-1.2c0.2-0.5,0.5-0.8,0.8-0.6l0,0C18,58.4,18.1,58.8,17.9,59.3z
	 M20.4,59.7l-0.5,1.5l-1.3-0.4l0.5-1.5c0.2-0.6,0.5-0.9,0.9-0.7l0,0C20.4,58.8,20.5,59.2,20.4,59.7z M121,127.2l-1.1,0.9l0.9,1
	l0.4-0.3c0.3,0.3,0.3,0.8-0.1,1.2l0.4,0.3c0.8-0.7,0.9-1.4,0.2-2.2L121,127.2z M29.3,112.5l-4.1,1.1l2.8-3.3l-0.6-1l-4.2,1l2.8-3.2
	l-0.7-1.2l-4.1,4.9l0.6,1l4-0.9l-2.6,3.2l0.6,1l6.2-1.4L29.3,112.5z M35.4,122.4L35.4,122.4c-0.8,0.9-0.5,1.7,0.2,2.7
	c0.6,0.9,0.6,1.1,0.4,1.4l0,0c-0.2,0.3-0.6,0.2-1-0.2c-0.5-0.5-0.7-1.1-0.8-1.7l-1.2,0.2c0.1,1,0.6,1.8,1.2,2.4
	c0.9,0.9,2.1,1,2.9,0.1l0,0c0.7-0.8,0.5-1.6-0.2-2.6c-0.6-0.9-0.7-1.2-0.4-1.5l0,0c0.2-0.2,0.6-0.2,0.9,0.1c0.4,0.3,0.6,0.9,0.7,1.5
	l1.2-0.3c-0.1-0.8-0.5-1.5-1.1-2.1C37.2,121.7,36.1,121.6,35.4,122.4z M41.7,125.7l-0.7,1l1.5,1.1l-2.8,3.9l1.1,0.8l2.8-3.9l1.5,1.1
	l0.7-1L41.7,125.7z M31.7,117.5l2.1,2.4l0.9-0.8l-2.9-3.4l-4.6,3.9l3,3.5l0.9-0.8l-2.1-2.5l1-0.8l1.8,2.2l0.9-0.8l-1.8-2.1
	L31.7,117.5z M45.1,135.3l4,2.2l0.6-1l-2.9-1.6l0.6-1.1l2.5,1.4l0.6-1l-2.5-1.4l0.6-1.1l2.8,1.5l0.6-1l-4-2.2L45.1,135.3z
	 M60.5,117.3h3.9V116h-2.5v-1.3h1.8v-1.3h-1.8V112h2.5v-1.4h-3.9V117.3z M69.1,110.6H67c-0.2,0-0.4,0.1-0.6,0.3
	c-0.2,0.2-0.3,0.4-0.3,0.6v1.7c0,0.1,0,0.3,0.1,0.4c0,0.1,0.1,0.2,0.3,0.3l2.2,1.1v1h-1.2v-0.9h-1.3v1.4c0,0.2,0.1,0.4,0.3,0.6
	c0.2,0.2,0.4,0.3,0.6,0.3h2.1c0.2,0,0.4-0.1,0.6-0.3c0.2-0.2,0.3-0.4,0.3-0.6v-1.8c0-0.1,0-0.3-0.1-0.4c0-0.1-0.1-0.2-0.3-0.3
	l-2.2-1.1v-1h1.2v0.9H70v-1.4c0-0.2-0.1-0.4-0.3-0.6C69.5,110.7,69.3,110.6,69.1,110.6z M71.6,112h1.3v5.4h1.3V112h1.3v-1.4h-3.9
	V112z M80.8,117.3h1.3v-6.7h-1.3V117.3z M87,110.6h-2.1c-0.2,0-0.4,0.1-0.6,0.3c-0.2,0.2-0.3,0.4-0.3,0.6v2.3c0,0.2,0.1,0.4,0.3,0.6
	c0.2,0.2,0.4,0.3,0.6,0.3h1.6v1.3h-1.2v-0.9H84v1.4c0,0.2,0.1,0.4,0.3,0.6c0.2,0.2,0.4,0.3,0.6,0.3H87c0.2,0,0.4-0.1,0.6-0.3
	c0.2-0.2,0.3-0.4,0.3-0.6v-5c0-0.2-0.1-0.4-0.3-0.6C87.5,110.7,87.3,110.6,87,110.6z M86.5,113.3h-1.2V112h1.2V113.3z M89.8,117.3
	h1.3v-6.7h-1.3V117.3z M93,114.1h2.5v1.9h-1.2v-0.9H93v1.4c0,0.2,0.1,0.4,0.3,0.6c0.2,0.2,0.4,0.3,0.6,0.3H96c0.2,0,0.4-0.1,0.6-0.3
	c0.2-0.2,0.3-0.4,0.3-0.6v-2.8c0-0.2-0.1-0.4-0.3-0.6c-0.2-0.2-0.4-0.3-0.6-0.3h-1.6V112h2.5v-1.4H93V114.1z"/>
</svg>
