<?xml version="1.0" encoding="utf-8"?>
<!-- Generator: Adobe Illustrator 18.1.1, SVG Export Plug-In . SVG Version: 6.00 Build 0)  -->
<svg version="1.1" id="Layer_1" xmlns="http://www.w3.org/2000/svg" xmlns:xlink="http://www.w3.org/1999/xlink" x="0px" y="0px"
	 viewBox="0 0 248.5 152.5" enable-background="new 0 0 248.5 152.5" xml:space="preserve">
<path fill="#2D2A30" d="M57.9,116.9c-0.1-0.5-0.3-0.9-0.6-1.3c-0.3-0.4-0.6-0.7-1-0.9c-0.4-0.2-0.8-0.4-1.3-0.5
	c-0.5-0.1-1-0.1-1.5,0.1c-0.5,0.1-1,0.3-1.3,0.6c-0.4,0.3-0.7,0.6-0.9,1c-0.2,0.4-0.4,0.8-0.5,1.3c-0.1,0.5-0.1,0.9,0,1.4l0,0
	c0.1,0.5,0.3,0.9,0.6,1.3c0.3,0.4,0.6,0.7,1,0.9c0.4,0.2,0.8,0.4,1.3,0.5c0.5,0.1,1,0.1,1.5-0.1c0.5-0.1,1-0.3,1.3-0.6
	c0.4-0.3,0.7-0.6,0.9-1c0.2-0.4,0.4-0.8,0.5-1.3C58,117.9,58,117.4,57.9,116.9L57.9,116.9z M56.7,118.2c0,0.3-0.1,0.6-0.3,0.9
	c-0.1,0.3-0.3,0.5-0.6,0.7c-0.2,0.2-0.5,0.3-0.9,0.4c-0.3,0.1-0.6,0.1-1,0c-0.3-0.1-0.6-0.2-0.8-0.3c-0.2-0.2-0.5-0.4-0.6-0.6
	c-0.2-0.3-0.3-0.6-0.4-0.9l0,0c-0.1-0.3-0.1-0.6,0-1c0-0.3,0.1-0.6,0.3-0.9c0.1-0.3,0.3-0.5,0.6-0.7c0.2-0.2,0.5-0.3,0.9-0.4
	c0.3-0.1,0.6-0.1,1,0c0.3,0.1,0.6,0.2,0.8,0.3c0.2,0.2,0.5,0.4,0.6,0.6c0.2,0.3,0.3,0.6,0.4,0.9l0,0
	C56.8,117.6,56.8,117.9,56.7,118.2z M65.8,116c0.2-0.2,0.3-0.3,0.4-0.5c0.1-0.2,0.2-0.4,0.2-0.6c0-0.2,0-0.5,0-0.8l0,0
	c-0.1-0.3-0.2-0.6-0.3-0.8c-0.1-0.2-0.3-0.4-0.5-0.6c-0.3-0.2-0.6-0.3-0.9-0.3c-0.3-0.1-0.7,0-1.2,0l-3,0.6l1.3,6.7l1.2-0.2
	l-0.5-2.3l1.5-0.3l0,0l2.1,2l1.4-0.3l-2.3-2.2C65.4,116.3,65.6,116.1,65.8,116z M64.1,115.7l-1.7,0.3l-0.4-2.3l1.7-0.3
	c0.4-0.1,0.8-0.1,1.1,0.1c0.3,0.1,0.5,0.4,0.5,0.8l0,0c0.1,0.3,0,0.6-0.2,0.9C64.8,115.5,64.5,115.6,64.1,115.7z M76,113.7
	c-0.1-0.5-0.2-0.9-0.5-1.3c-0.2-0.4-0.5-0.7-0.9-1c-0.4-0.3-0.8-0.4-1.3-0.5c-0.5-0.1-1-0.1-1.5,0l-2.5,0.4l1.1,6.8l2.5-0.4
	c0.5-0.1,1-0.2,1.4-0.5c0.4-0.2,0.8-0.5,1-0.9c0.3-0.4,0.5-0.8,0.6-1.2C76.1,114.6,76.1,114.2,76,113.7L76,113.7z M74.8,114.9
	c-0.1,0.3-0.2,0.6-0.4,0.8c-0.2,0.2-0.4,0.4-0.7,0.6c-0.3,0.2-0.6,0.3-0.9,0.3l-1.3,0.2l-0.7-4.6l1.3-0.2c0.4-0.1,0.7-0.1,1,0
	s0.6,0.2,0.8,0.4c0.2,0.2,0.4,0.4,0.6,0.7c0.2,0.3,0.3,0.6,0.3,0.9l0,0C74.8,114.2,74.8,114.6,74.8,114.9z M84.7,114.9l-3.9,0.5
	l-0.2-1.8l3.4-0.4l-0.1-1.1l-3.4,0.4l-0.2-1.7l3.8-0.5l-0.1-1.1l-5,0.6l0.9,6.8l5.1-0.6L84.7,114.9z M90.4,113l1.9,2.2l1.4-0.1
	l-2.1-2.4c0.2-0.1,0.4-0.2,0.6-0.3c0.2-0.1,0.3-0.3,0.5-0.5c0.1-0.2,0.2-0.4,0.3-0.6c0.1-0.2,0.1-0.5,0-0.8l0,0
	c0-0.3-0.1-0.6-0.2-0.8c-0.1-0.2-0.3-0.4-0.5-0.6c-0.2-0.2-0.5-0.3-0.9-0.4c-0.3-0.1-0.7-0.1-1.2-0.1l-3,0.3l0.7,6.8l1.2-0.1
	l-0.2-2.4L90.4,113L90.4,113z M88.8,112.1l-0.2-2.3l1.7-0.2c0.5,0,0.8,0,1.1,0.2c0.3,0.2,0.4,0.4,0.5,0.8l0,0c0,0.4-0.1,0.6-0.3,0.9
	c-0.2,0.2-0.6,0.4-1,0.4L88.8,112.1z M101.5,111.6c0.2,0.2,0.5,0.4,0.8,0.5c0.3,0.1,0.7,0.2,1,0.1c0.4,0,0.7-0.1,1-0.3
	c0.3-0.1,0.6-0.3,0.8-0.6c0.2-0.2,0.4-0.5,0.5-0.8c0.1-0.3,0.2-0.6,0.1-1l0,0c0-0.3-0.1-0.7-0.2-0.9c-0.1-0.3-0.3-0.5-0.6-0.7
	c-0.2-0.2-0.5-0.4-0.8-0.5c-0.3-0.1-0.7-0.2-1-0.1c-0.4,0-0.7,0.1-1,0.3c-0.3,0.1-0.6,0.3-0.8,0.6c-0.2,0.2-0.4,0.5-0.5,0.8
	c-0.1,0.3-0.2,0.6-0.1,1l0,0c0,0.3,0.1,0.7,0.2,0.9C101,111.1,101.2,111.4,101.5,111.6z M101.8,109.2c0.1-0.2,0.1-0.3,0.3-0.5
	c0.1-0.1,0.3-0.3,0.4-0.3c0.2-0.1,0.4-0.1,0.6-0.1c0.2,0,0.4,0,0.6,0.1c0.2,0.1,0.3,0.2,0.5,0.3c0.1,0.1,0.2,0.3,0.3,0.5
	c0.1,0.2,0.1,0.4,0.1,0.6l0,0c0,0.2,0,0.4-0.1,0.6c-0.1,0.2-0.1,0.3-0.3,0.5c-0.1,0.1-0.3,0.3-0.4,0.3c-0.2,0.1-0.4,0.1-0.6,0.1
	c-0.2,0-0.4,0-0.6-0.1c-0.2-0.1-0.3-0.2-0.5-0.3c-0.1-0.1-0.2-0.3-0.3-0.5c-0.1-0.2-0.1-0.4-0.1-0.6l0,0
	C101.7,109.6,101.7,109.4,101.8,109.2z M111.4,106.9l-3.6,0.1l0.2,4.7l1,0L109,110l2.3-0.1l0-0.9l-2.3,0.1l0-1l2.6-0.1L111.4,106.9z
	 M123.8,106.9l-5.6,0l0,1.1l2.2,0l0,5.7l1.2,0l0-5.7l2.2,0L123.8,106.9z M132.5,113.8l0.1-6.9l-1.2,0l0,2.8l-3.3-0.1l0-2.8l-1.2,0
	l-0.1,6.9l1.2,0l0-2.9l3.3,0.1l0,2.9L132.5,113.8z M136,113.9l5.1,0.2l0-1.1l-3.9-0.2l0.1-1.8l3.4,0.1l0-1.1l-3.4-0.1l0.1-1.8
	l3.9,0.2l0-1.1l-5.1-0.2L136,113.9z M152,108l-3.6,6.6l1.2,0.1l0.8-1.6l3.2,0.3l0.6,1.7l1.3,0.1l-2.4-7.1L152,108z M151,112.1
	l1.4-2.6l1,2.8L151,112.1z M164.1,109.9c-0.2-0.2-0.5-0.4-0.8-0.6c-0.3-0.2-0.7-0.3-1.1-0.3l-3-0.3l-0.8,6.8l1.2,0.1l0.3-2.4
	l1.5,0.2l0,0l1.4,2.6l1.4,0.2l-1.5-2.8c0.2,0,0.5-0.1,0.7-0.2c0.2-0.1,0.4-0.2,0.6-0.4c0.2-0.2,0.3-0.3,0.4-0.6
	c0.1-0.2,0.2-0.5,0.2-0.7l0,0c0-0.3,0-0.6-0.1-0.8C164.4,110.4,164.3,110.1,164.1,109.9z M163.3,111.4c0,0.4-0.2,0.6-0.5,0.8
	c-0.3,0.2-0.6,0.2-1.1,0.2l-1.8-0.2l0.3-2.3l1.7,0.2c0.4,0.1,0.8,0.2,1,0.4C163.3,110.7,163.3,111,163.3,111.4L163.3,111.4z
	 M173,111.1c-0.2-0.2-0.4-0.5-0.8-0.6c-0.3-0.2-0.7-0.3-1.1-0.3l-3-0.4l-1,6.8l1.2,0.2l0.3-2.4l1.5,0.2l0,0l1.3,2.6l1.4,0.2
	l-1.5-2.8c0.2,0,0.5-0.1,0.7-0.2c0.2-0.1,0.4-0.2,0.6-0.4c0.2-0.2,0.3-0.3,0.4-0.5c0.1-0.2,0.2-0.5,0.2-0.7l0,0c0-0.3,0-0.6,0-0.8
	C173.3,111.6,173.2,111.4,173,111.1z M172.2,112.6c0,0.4-0.2,0.6-0.5,0.8c-0.3,0.2-0.6,0.2-1.1,0.2l-1.8-0.2l0.3-2.3l1.7,0.2
	c0.4,0.1,0.8,0.2,1,0.4C172.1,111.9,172.2,112.2,172.2,112.6L172.2,112.6z M182.7,113c-0.3-0.4-0.6-0.7-1-0.9
	c-0.4-0.3-0.9-0.4-1.4-0.5c-0.5-0.1-1-0.1-1.5,0c-0.5,0.1-0.9,0.3-1.3,0.6c-0.4,0.3-0.7,0.6-0.9,1c-0.2,0.4-0.4,0.8-0.5,1.3l0,0
	c-0.1,0.5-0.1,0.9,0,1.4c0.1,0.5,0.3,0.9,0.5,1.2c0.3,0.4,0.6,0.7,1,0.9c0.4,0.3,0.9,0.4,1.4,0.5c0.5,0.1,1,0.1,1.5,0
	c0.5-0.1,0.9-0.3,1.3-0.6c0.4-0.3,0.7-0.6,0.9-1c0.2-0.4,0.4-0.8,0.5-1.3l0,0c0.1-0.5,0.1-0.9,0-1.4
	C183.1,113.8,183,113.4,182.7,113z M182,115.4L182,115.4c-0.1,0.3-0.2,0.6-0.3,0.9c-0.2,0.3-0.4,0.5-0.6,0.7
	c-0.2,0.2-0.5,0.3-0.8,0.4c-0.3,0.1-0.6,0.1-1,0c-0.3-0.1-0.6-0.2-0.9-0.4c-0.3-0.2-0.5-0.4-0.6-0.6c-0.2-0.3-0.3-0.5-0.3-0.8
	c-0.1-0.3-0.1-0.6,0-1l0,0c0.1-0.3,0.2-0.6,0.3-0.9c0.2-0.3,0.4-0.5,0.6-0.7c0.2-0.2,0.5-0.3,0.8-0.4c0.3-0.1,0.6-0.1,1,0
	c0.3,0.1,0.6,0.2,0.9,0.4c0.3,0.2,0.5,0.4,0.6,0.6c0.2,0.2,0.3,0.5,0.3,0.8C182.1,114.8,182.1,115.1,182,115.4z M192.8,119.4
	l-0.5-5.3l-1-0.2l-2.7,4.6l-0.5-5.3l-1.3-0.3l0.8,7.3l1,0.2l2.7-4.4l0.6,5.2l1,0.2l3.8-6.2l-1.2-0.3L192.8,119.4z M101.1,113.6
	l0,0.8l10.6-0.6l0-0.8L101.1,113.6z M15.8,83.2l2.3,11.9l-5.3-10.9l-4.1,1.3l2,12l-5-11l-4.2,1.4l9.1,18.2l4.8-1.6
	c0,0-2.1-11.8-2.1-11.8c0.3,0.8,5.1,10.8,5.1,10.8l4.8-1.6L20,81.9L15.8,83.2z M34,94.6l-0.9-3.9l5.7-1.3l-1-4.2l-5.7,1.3l-0.7-3.2
	l7.8-1.8l-1-4.2l-12,2.8l4.6,19.6l12-2.8l-1-4.2L34,94.6z M58.6,86.3c-0.1-0.4-0.2-0.8-0.4-1.2c-0.2-0.3-0.5-0.6-1-0.8L49.8,82
	l-0.4-2.4L53,79l0.5,2.9l4.3-0.7L57,76.7c-0.1-0.8-0.5-1.3-1.1-1.8c-0.6-0.4-1.3-0.6-2.1-0.5l-6.7,1.2c-0.7,0.1-1.3,0.5-1.8,1.1
	c-0.4,0.6-0.6,1.3-0.5,2.1l0.8,4.8c0.1,0.4,0.2,0.8,0.4,1.2c0.2,0.3,0.5,0.6,1,0.8l7.4,2.3l0.4,2.4l-3.6,0.6L50.8,88l-4.2,0.7
	l0.8,4.4c0.1,0.7,0.5,1.3,1.1,1.8c0.6,0.4,1.3,0.6,2,0.5l6.7-1.2c0.8-0.1,1.3-0.5,1.8-1.1c0.4-0.6,0.6-1.3,0.5-2L58.6,86.3z
	 M71.1,76.4l4-0.5l-0.5-4.3l-12.2,1.5l0.5,4.3l4-0.5l1.9,15.7l4.3-0.5L71.1,76.4z M92.5,69.9l-12.3,1l1.6,20l12.3-1l-0.3-4.3l-8,0.6
	l-0.3-3.9l5.8-0.5l-0.3-4.3l-5.8,0.5l-0.3-3.2l8-0.6L92.5,69.9z M110.8,81c0.4-0.6,0.6-1.3,0.6-2.1l-0.2-6.1c0-0.5-0.1-1-0.3-1.4
	c-0.2-0.4-0.5-0.8-0.8-1.1c-0.3-0.3-0.7-0.6-1.2-0.8c-0.4-0.2-0.9-0.3-1.4-0.2l-4.3,0.2l-4.3,0.2l0.7,20.1l4.3-0.2l-0.2-6.7l1.2,0
	l2.6,6.6l4.6-0.2l-2.7-6.9C109.9,82.1,110.4,81.6,110.8,81z M103.4,78.5l-0.2-4.8l3.7-0.1l0.2,4.8L103.4,78.5z M160,82.2
	c0.5-0.6,0.7-1.3,0.8-2l0.4-6c0-0.5,0-1-0.2-1.4c-0.2-0.5-0.4-0.9-0.7-1.2c-0.3-0.4-0.7-0.7-1.1-0.9c-0.4-0.2-0.9-0.4-1.4-0.4
	l-4.3-0.3l-4.3-0.3l-1.4,20l4.3,0.3l0.5-6.7l1.2,0.1l1.9,6.8l4.6,0.3l-2-7.1C159,83.2,159.6,82.8,160,82.2z M156.6,79.2l-3.7-0.3
	l0.3-4.8l3.7,0.3L156.6,79.2z M178.4,88.2l-8-0.9l0.5-3.9l5.8,0.7l0.5-4.3l-5.8-0.7l0.4-3.2l8,0.9l0.5-4.3L168,71l-2.3,20l12.2,1.4
	L178.4,88.2z M195.8,74.9l-6.7-1.1c-0.7-0.1-1.4,0-2,0.5c-0.6,0.4-1,1-1.1,1.8l-2.4,14.4c-0.1,0.7,0,1.4,0.5,2c0.4,0.6,1,1,1.8,1.1
	l6.7,1.1c0.8,0.1,1.4,0,2.1-0.5c0.6-0.4,1-1,1.1-1.8l1.4-8.2l-6.1-1l-0.7,4.2l1.8,0.3l-0.4,2.4l-3.6-0.6l1.9-11.3l3.6,0.6l-0.5,2.9
	l4.3,0.7l0.7-4.4c0.1-0.8,0-1.4-0.5-2.1C197.2,75.4,196.6,75,195.8,74.9z M200.8,96.2l4.2,0.9l4.2-19.7l-4.2-0.9L200.8,96.2z
	 M226.1,82.7c-0.2-0.4-0.5-0.8-0.9-1.1c-0.4-0.3-0.8-0.5-1.3-0.6l-4.8-1.3c-0.5-0.1-1-0.2-1.5-0.1c-0.5,0.1-0.9,0.2-1.3,0.5
	c-0.4,0.2-0.8,0.5-1.1,0.9c-0.3,0.4-0.5,0.8-0.6,1.3l-3.3,12.3c-0.3,1-0.2,1.9,0.4,2.8c0.5,0.9,1.3,1.4,2.3,1.7l4.8,1.3
	c0.5,0.1,1,0.2,1.4,0.1c0.5-0.1,0.9-0.2,1.3-0.5c0.4-0.2,0.8-0.5,1.1-0.9c0.3-0.4,0.5-0.8,0.7-1.3l3.3-12.3c0.1-0.5,0.2-1,0.1-1.4
	C226.5,83.6,226.3,83.1,226.1,82.7z M219.2,96.1l-3.5-0.9l3-11.1l3.5,0.9L219.2,96.1z M242.7,86.9l-3.4,9.5L239,85.6l-4.8-1.7
	l-6.7,18.9l4,1.4l3.4-9.6l0.2,10.9l4.8,1.7l6.7-18.9L242.7,86.9z M126.3,79l-3.8-10h-5.1V89h4.3l0-10.2l3.9,10.2h5.1V68.9h-4.3V79z
	 M103.5,136.6c-0.6,0-19.2,0.5-19.2,1.1c0,0.6,18.6,1.1,19.2,1.1c0.6,0,1.1-0.5,1.1-1.1C104.7,137.1,104.2,136.6,103.5,136.6z
	 M144.4,136.6c-0.6,0-1.1,0.5-1.1,1.1c0,0.6,0.5,1.1,1.1,1.1c0.6,0,19.2-0.5,19.2-1.1C163.6,137.1,145,136.6,144.4,136.6z
	 M130.7,141.5l3.6,3.6c0.5-0.4,0.7-0.9,0.8-1.4c0-0.4,0.1-0.7,0-1.1c-0.1-0.6-0.7-1.2-1.3-1.4c-0.5-0.2-1.2-0.1-1.6,0.3
	c-0.4,0.2-0.7-0.3-1-0.6c0.1-0.1,0.3-0.3,0.3-0.4c0-0.2,0-0.3-0.2-0.4c-0.4-0.1-0.6,0.2-0.9,0.4c0.1-0.1,0.1-0.3,0-0.5
	c-0.1-0.2-0.3-0.3-0.5-0.3c-0.3,0.1-0.6,0-0.8-0.2c0.1-0.2,0.2-0.4,0.5-0.5c0.6-0.2,1.3-0.1,1.9-0.4c0.1-0.2,0.3-0.4,0.4-0.6
	c-0.2-0.1,0.2-0.2,0-0.4c-0.1-0.4,0.4-0.4,0.4-0.7c0-0.1-0.1-0.2,0-0.3c0-0.2,0.1-0.4,0.3-0.5c0.2-0.2,0-0.4,0.1-0.7
	c0.5-0.4-0.3-0.8-0.5-1.1c-0.4-0.1-0.8-0.4-1.2-0.3c-0.1-0.2-0.4,0.1-0.5-0.2c0-0.2-0.1-0.3-0.3-0.5c-0.2,0-0.4-0.2-0.6-0.2
	c-0.3-0.3-0.7-0.5-1.1-0.7c0-0.4-0.4,0-0.5-0.4c-0.3-0.2-0.4-0.6-0.8-0.6c-0.3-0.2-0.6,0.1-0.9-0.2c-0.4,0-0.8-0.3-1.1-0.4
	c-0.4-0.1-0.9,0.1-1.1-0.4c-0.5-0.2-0.6-0.7-1-1c-0.1,0-0.2,0-0.3-0.1c-0.3,0-0.5-0.1-0.8,0c-0.3,0.4-0.9,0-1.3,0
	c-0.2-0.1-0.4-0.4-0.6-0.5c-0.2-0.2-0.4-0.1-0.6-0.2c0-0.1-0.1-0.1-0.1-0.1c-0.2-0.1-0.5-0.1-0.8,0c-0.2-0.1-0.4-0.3-0.6-0.4
	c-0.1-0.2-0.4-0.1-0.4-0.3c-0.2-0.2-0.5-0.4-0.8-0.4c-0.4-0.2-0.7,0.2-1.2,0.1c-0.1-0.1-0.3-0.2-0.5-0.3c-0.1,0-0.3-0.1-0.4-0.2
	c-0.4,0.2-0.7-0.2-1,0c-0.1,0.1-0.2,0.1-0.3,0c-0.1,0-0.1,0.1-0.1,0.2c0.1,0.4,0,0.9,0.1,1.3c0.2,0.2-0.1,0.6,0.1,0.8
	c0.3,0.2,0.1,0.6,0.2,0.8c0.3,0.2,0.3,0.5,0.5,0.8c0,0.2,0.2,0.3,0.1,0.4c0.3,0.1,0.1,0.4,0.1,0.6c0.1,0.2,0.2,0.3,0.2,0.5
	c0.2,0,0.1,0.3,0.2,0.4c0.2,0.1,0.2,0.4,0.4,0.5c-0.1,0.3,0.2,0.6,0.1,1c0.2,0.2,0.2,0.6,0.2,0.9c0,0.4,0.5,0.4,0.5,0.8
	c0.2,0.3,0.2,0.6,0.2,0.9c0.1,0.2,0,0.5,0.2,0.7c0.1,0.1-0.1,0.2,0.1,0.3c0,0.2,0.1,0.3,0.2,0.4c0.2,0.4,0.5,0.6,0.8,0.9
	c0.4,0.3,0.3,0.8,0.3,1.2c-0.2,0.6,0.5,0.8,0.6,1.3c0.1,0.1,0.2,0.2,0.2,0.3c0.3,0.1,0.2,0.5,0.5,0.6c0,0.1,0.1,0.2,0,0.3
	c0,0.1,0.1,0.2,0.2,0.4c0,0.2,0.3,0.4,0.4,0.6c0,0.1-0.1,0.3,0.1,0.3c0,0.4,0.6,0.6,0.6,1c-0.1,0.2,0.1,0.3,0.2,0.5
	c0,0.2,0.2,0.3,0.2,0.4c0,0.2,0.2,0.3,0.3,0.3c0.1,0.4,0.5,0.3,0.7,0.6c0.2,0.1,0.3,0,0.5-0.1c0.3,0,0.5-0.3,0.7-0.4
	c0.4-0.3,0.8-0.3,1.2-0.5c0.4-0.4,0.5-1,0.7-1.4c0-0.2-0.1-0.5-0.2-0.7c0-0.2-0.1-0.4,0-0.6c0.1-0.3,0.5-0.1,0.8-0.2
	c0.1,0,0.2,0.1,0.2,0.1c0.2,0,0,0.2,0.1,0.4c0.1,0.2,0.1,0.3,0.3,0.5c0.1,0.1,0.4,0.1,0.5,0c-0.2,0.2-0.6,0.4-0.5,0.8
	c0,0.1,0.1,0.2,0.2,0.3c0.3,0.1,0.5-0.1,0.7-0.3c0.2,0.3,0.7,0.5,0.6,0.9c-0.4,0.4-0.5,1.1-0.3,1.6c0.2,0.5,0.7,1.1,1.3,1.3
	c0.9,0.2,1.9-0.1,2.5-0.8c0,0,0,0,0,0l-3.5-3.6L130.7,141.5z M133,142.5c0.1-0.1,0.2-0.1,0.3-0.1c0.2,0.1,0.4,0.2,0.6,0.4
	c0.1,0.1,0.1,0.3,0,0.4c-0.1,0.2-0.3,0.2-0.5,0.2c-0.2-0.1-0.4-0.3-0.5-0.5C133,142.7,133,142.6,133,142.5z M130.1,136.3
	c0-0.2,0-0.3,0.1-0.4c0.2-0.2,0.4-0.1,0.6-0.1c0.1,0.2,0.4,0.2,0.4,0.5l0.2,0.5c-0.3,0.2-0.1,0.7-0.5,0.9c-0.3,0-0.5,0.5-0.8,0.4
	c-0.1-0.2-0.3-0.2-0.3-0.4l-0.1,0C129.7,137,130,136.7,130.1,136.3z M115.8,129.3c0.1,0,0,0.2,0,0.3c-0.1,0.1-0.2,0.3-0.4,0.4
	c-0.2-0.1-0.4-0.2-0.6-0.3c0-0.2-0.1-0.3-0.1-0.4c0.3-0.1,0.4-0.5,0.7-0.5l0.3,0c0,0.2,0.2,0.2,0.1,0.4
	C115.8,129.2,115.9,129.3,115.8,129.3z M129,146.9c0.2,0.1,0.4,0.3,0.5,0.4c0,0.1,0.1,0.3,0,0.4c-0.1,0.1-0.3,0.2-0.5,0.1
	c-0.2-0.1-0.5-0.3-0.5-0.6C128.4,147,128.7,146.8,129,146.9z M128.9,140.1c-0.2,0.2-0.5,0.3-0.5,0.6l-0.2,0.1
	c-0.1-0.1,0-0.3-0.2-0.3c-0.1-0.2-0.1-0.5-0.3-0.6c-0.1-0.1-0.1-0.4-0.1-0.5c0.1-0.1,0.3-0.2,0.4,0c0.3-0.2,0.5,0.2,0.9,0.1
	C129,139.7,129,139.9,128.9,140.1z M128.3,135.4c0.2,0,0.3,0.3,0.3,0.4c0.1,0.1,0.1,0.3,0.2,0.4c0,0.1-0.1,0.1,0,0.3
	c0.2,0.1,0,0.3,0.1,0.5c-0.1,0.2-0.2,0.4-0.4,0.5c-0.1,0.2-0.4,0.3-0.5,0.5c-0.2,0-0.3,0.2-0.5,0.1c-0.1-0.1-0.2-0.2-0.2-0.4
	c0-0.4,0.4-0.5,0.5-0.9c0.1-0.1,0.2-0.2,0.2-0.4c-0.2-0.2,0.3-0.5-0.1-0.5c-0.1-0.2-0.4-0.2-0.4-0.5c0.1-0.1,0.2-0.5,0.5-0.4
	C128,135.3,128.2,135.2,128.3,135.4z M126.9,141.3c0.1-0.1,0.2-0.1,0.1-0.2c0.1-0.1,0.2-0.2,0.3-0.1c0,0.1,0.1,0.1,0.2,0.1
	c0.1,0.1,0.2,0.2,0.2,0.3c-0.2,0.2-0.4,0.5-0.6,0.6c-0.1,0-0.2,0-0.2-0.1C126.8,141.6,127,141.5,126.9,141.3z M126.6,133.1
	L126.6,133.1c0.2-0.3,0.6-0.1,0.9-0.2c0.2,0.2,0.5-0.1,0.6,0.2c0,0.2,0.2,0.3,0,0.5c-0.1,0-0.2,0.2-0.3,0.3
	c-0.4-0.1-0.9,0.6-1.2,0.1C126.5,133.7,126.4,133.4,126.6,133.1z M125.8,140.2c0-0.2,0.2-0.3,0.2-0.4c0.3,0,0.4-0.5,0.7-0.4l0.3-0.1
	c0.1,0.2,0.1,0.3,0.1,0.5c-0.1,0.2-0.4,0.4-0.3,0.7c-0.2,0.2-0.5,0.1-0.8,0.1C126,140.4,125.5,140.4,125.8,140.2z M122.9,131.4
	c0.6,0,1.1,0.4,1.6,0.5c0.2-0.1,0.2,0.2,0.4,0c0.1,0.1,0,0.2,0.1,0.4c0,0.1-0.1,0.2-0.2,0.3c-0.4,0.2-1.1,0.5-1.5,0.1
	c-0.3,0-0.4-0.5-0.7-0.5c0-0.1-0.1-0.3-0.1-0.4L122.9,131.4z M122.2,137.9c-0.1,0.3,0.3,0.4,0.2,0.7c0.3,0.1,0.2,0.4,0.4,0.6
	c0,0.2-0.1,0.3-0.2,0.4c-0.1,0-0.3,0.1-0.5,0.1c-0.1-0.2-0.4-0.1-0.5-0.3c-0.1-0.2-0.4-0.4-0.4-0.6c0.1-0.3-0.2-0.6,0.1-0.9l0.4-0.3
	C121.9,137.6,122.3,137.5,122.2,137.9z M119,130.1c0.1,0.1,0.3,0,0.4,0c0.1-0.1,0.3,0.1,0.4,0c0.1,0.1,0.2,0.1,0.3,0.2l0,0
	c0.2-0.1,0.2,0.1,0.3,0.2c0.1,0.1-0.1,0.2,0,0.3l-0.3,0.1l0-0.1c-0.1,0-0.2,0.1-0.3,0c0-0.2-0.2,0-0.3-0.1c-0.1,0.1-0.2,0-0.3,0
	c-0.1-0.2-0.4-0.3-0.3-0.5C119,130.2,118.8,130.1,119,130.1z M117.9,131.5c0.2-0.2,0.4,0,0.6-0.2c0.2,0,0.3,0.2,0.5,0.2
	c0.1,0.1,0.2,0.1,0.2,0.2c-0.1,0.2,0.1,0.3,0.1,0.4c-0.2,0.3-0.6,0.4-0.7,0.8c-0.1,0-0.2,0.1-0.2,0c-0.2-0.1-0.2-0.3-0.4-0.5
	c0.1-0.2-0.2-0.4-0.1-0.7l-0.1,0C117.8,131.7,117.8,131.6,117.9,131.5z M117.7,135.2c-0.2-0.1-0.4-0.1-0.6-0.1
	c-0.1-0.2-0.4-0.1-0.5-0.4c-0.1,0-0.1-0.1-0.2-0.2c0-0.2,0.1-0.3-0.1-0.5c-0.2-0.4,0.3-0.6,0.6-0.4c0.2,0.1,0.3,0.4,0.3,0.6
	c0.2,0.3,0.6,0.2,0.9,0.5c0,0.1-0.1,0.3-0.1,0.4L117.7,135.2z M119.1,140.1c-0.1,0.1-0.2,0.2-0.4,0.1c-0.2-0.1-0.3-0.3-0.5-0.5
	l-0.1-0.1c0.1-0.1,0-0.3,0.1-0.4c0.2-0.1,0.2-0.4,0.4-0.3c0.1-0.1,0.2,0,0.3,0c0.1,0.2,0.3,0.4,0.1,0.7
	C119.6,139.6,119,139.8,119.1,140.1z M120.3,137.4c-0.2,0.2-0.5,0.1-0.7-0.1c-0.2-0.1-0.5,0-0.6-0.3c-0.1-0.2,0-0.4,0.1-0.7h0.1
	c0-0.1,0-0.3,0-0.5c0.2-0.2,0.4,0.1,0.5-0.1c0.1,0.2,0.4,0.2,0.4,0.5c0.2,0.1,0.3,0.4,0.5,0.5C120.5,137,120.7,137.3,120.3,137.4z
	 M120.5,133.7c-0.1,0-0.2,0-0.3-0.1c0.1-0.2-0.1-0.2-0.1-0.4c-0.3-0.1,0.2-0.3-0.1-0.5c0-0.2,0.3-0.3,0.4-0.4c0.1,0.1,0.3,0,0.5,0
	c0.2,0.2,0.4,0.3,0.6,0.4c0.2,0,0.1,0.3,0.3,0.2c0.1,0.1,0,0.3,0,0.4c-0.1,0.2,0,0.4-0.3,0.5c-0.2,0-0.3-0.1-0.5,0
	C120.9,133.7,120.7,133.8,120.5,133.7z M122.5,144.9c-0.2-0.1-0.4,0.1-0.6,0c-0.2-0.3-0.5-0.4-0.4-0.8c-0.2-0.1-0.1-0.4-0.3-0.4
	c0.1-0.1-0.1-0.3-0.1-0.4c-0.2-0.1,0-0.2-0.1-0.4c0-0.2,0-0.4,0.2-0.5c0.1-0.1,0.3-0.1,0.4,0c0.2,0.3,0.3,0.6,0.3,0.9
	c0.3,0,0,0.4,0.3,0.3c0,0.2,0.1,0.2,0.2,0.2c0.2,0.1,0.4,0.2,0.4,0.5C122.6,144.5,122.7,144.8,122.5,144.9z M123.6,141.9
	c-0.1,0.2,0.1,0.5-0.2,0.6c-0.2-0.1-0.6,0-0.6-0.3c0.1-0.2-0.2-0.3,0-0.5c-0.1-0.2,0.2-0.2,0.1-0.3c0.2,0,0.4-0.2,0.5,0
	c0.1,0,0.1,0.1,0.2,0.1c0,0.1-0.1,0.1,0,0.2C123.7,141.8,123.7,141.9,123.6,141.9z M124.5,136.2c0-0.1-0.1-0.2-0.2-0.2
	c0-0.2,0-0.4-0.2-0.6c-0.2,0-0.1-0.3-0.4-0.3c-0.1-0.2,0.1-0.4-0.1-0.6c0-0.2,0.2-0.2,0.2-0.4c0,0,0.1-0.1,0.1-0.1
	c0-0.1,0.2-0.1,0.3-0.2c0.2,0,0.1,0.3,0.3,0.3c0.1,0.1,0.1,0.2,0,0.2c0.1,0.2,0.2,0.3,0.2,0.5c0.3,0.1,0,0.4,0.3,0.5
	c0,0,0,0.1,0,0.1c0.1,0.2,0.1,0.4-0.1,0.5c0,0.1,0,0.2-0.1,0.3C124.7,136.3,124.5,136.5,124.5,136.2z M124.8,139.2
	c0-0.1,0-0.1,0-0.3c0.1-0.1,0.2-0.2,0.4-0.2c0.2,0.1,0.3,0.1,0.4,0.3c-0.1,0.1-0.3,0.4-0.4,0.4C124.9,139.5,124.9,139.4,124.8,139.2
	z M125.1,141.2c-0.1-0.1-0.1-0.2-0.1-0.3c0.1-0.2,0.4-0.1,0.6-0.1c0.1,0.1,0.3,0.3,0.2,0.4c0.1,0.3-0.2,0.4-0.2,0.6
	c-0.2,0.1-0.3,0-0.4-0.1C125.1,141.6,125,141.4,125.1,141.2z M125.8,143.1c-0.2-0.2-0.2-0.6-0.4-0.8c0-0.2,0.2-0.3,0.4-0.4l0.6,0.1
	c0.1,0.1,0.2,0.1,0.3,0.2c-0.1,0.1,0,0.4-0.2,0.5C126.3,142.9,126.1,143.3,125.8,143.1z M127,143.8c-0.2,0.1-0.3-0.1-0.4-0.2
	c0-0.1,0.1-0.2,0.1-0.3l2.7-2.8c0.1,0,0.2-0.1,0.3,0c0.1,0.1,0.2,0.3,0.1,0.4L127,143.8z M128.5,144.7l5.9,6l2.3-2.3l-5.9-6
	L128.5,144.7z M136.6,48C136.6,48.4,136.6,47.6,136.6,48L136.6,48z M158.9,55.7c0.4,0.1,2.4,0.4,2.6-0.2c0.2-0.5-1.1-0.9-1.4-1
	c-0.4-0.1-2.9-0.7-2.8-1.2c0-0.2,0-1.2-0.1-1.3c-0.1-0.1-0.2,1.3-0.7,1.3c-0.7,0-2,0.2-2.3-0.6c-0.4-0.9,0.1-2.2,0.3-3
	c0.1-0.5-0.1-0.4-0.2,0c-0.2,0.4-0.5,1.9-0.7,1.9c-0.1,0-0.6-1.7-0.7-1.6c-0.2,0.2,0.1,0.7,0.2,1c0.1,0.4,0.1,1,0.1,1.5
	c-0.1,0.4-0.3,0.3-0.5,0.3c-2-0.4-4.1-0.7-6.1-1.1c0,0-0.1-0.1-0.1-0.1c0-0.1,0-0.3-0.1-0.4c-0.1-0.7-0.4-1.3-1-1.7
	c-0.3-0.2-0.5-0.4-0.8-0.7c-0.2-0.1-0.4-0.3-0.5-0.5c-0.3-0.8-0.5-1.5-0.7-2.3c-0.1-0.5-0.2-1-0.3-1.5c-0.2-0.7-0.3-3-0.4-3.4
	c-0.1-0.7-0.5-2.2-0.8-4.1c-0.3-1.8-0.4-2.6-0.2-3.8c0.2-1.2,1.4-2,2.7-4.3c1.3-2.3,1.7-3.3,1.7-4.1c0.1-0.8-0.4-2.8,0.7-5.7
	c1.1-2.8,2.3-4.4,2.6-4.6c0.7-0.6,2.1-0.7,2.4-0.7c0.3,0,1.2,0.8,2.4,1.1c1.2,0.3,1.4,0.1,2.7,0.4c1.3,0.3,1.4,0.6,1.8,0.6
	c0.4-0.1,0.7-0.4,1.1-1.4c0.4-1-0.5-1.9-1.2-2.5c-0.7-0.6-3.9-4-4-4.2c-0.1-0.1-0.1-0.3-0.1-0.4c0-0.1-0.4-0.3-1.8-1.1
	c-1.4-0.8-1.1-1.3-1-2.2c0.2-0.9,0.9-1.5,0.8-1.7c-0.1-0.2-1.1,0.4-1.3,0.3c-0.2-0.1-0.1-1.2-0.3-1.1c-0.2,0.1-0.8,1.5-1.5,1.8
	c-0.7,0.2-1.9,0.7-2.1,1.2c-0.2,0.5-0.4,1.2-0.5,1.2c-0.1-0.1-0.1-0.8-0.3-0.9c-0.2-0.1-0.8,0.7-1.5,2.3c-0.7,1.6-0.7,2.4-1.2,3.5
	c-0.5,1.1-0.7,1.5-0.8,1.4c-0.1-0.1,0.2-0.8,0.2-1.6c0-0.8-0.2-1.9-0.2-2.2c0-0.3,0.3-0.8,0.2-0.9c-0.1-0.1-0.5,0.2-1.1,0.8
	c-0.6,0.6-1.6,1.9-1.9,3.6c-0.2,1.7,0.5,3.2,0.2,3.3c-0.1,0.1-0.2-0.5-0.4-0.7c-0.2-0.3-0.5-0.5-0.6-0.4c-0.1,0.1,0.2,1.5-1.1,4
	c-1.3,2.5-2.9,3.1-3,2.9c-0.1-0.1,1.4-2.2,1.7-4.1c0.3-1.9-0.2-2.2-0.4-3.5c-0.3-1.3,0.5-2.3,0.3-2.4c-0.2-0.1-0.7,0.3-1.6,1.1
	c-0.9,0.8-2,1.7-2.7,3.8c-0.6,2.1,0.1,3.9,0,4c-0.2,0.1-1.2-1.2-1.5-2.3c-0.2-1,0.4-2.3,0.2-2.4c-0.2-0.1-0.7,0.3-1.2,1.3
	c-0.5,1-1.1,1.7-1.3,1.6c-0.1-0.1,0.2-0.6,0.3-1.2c0.1-0.6,0.1-1.1-0.1-1.2c-0.2-0.1-0.4,0.2-0.9,0.5c-0.4,0.3-0.9,0.5-0.9,0.5
	c-0.3,0.1-0.5,0-1,0c-1.8,0-12.6-2.2-13.6-2.5c-1-0.2-1.5-0.1-2.4,0.6c-0.8,0.7-1.3,1.8-1.6,1.9c0,0-0.8-0.2-1.4-0.1
	c-0.6,0-3.1,1.1-5.4,4.9c-2.3,3.7-3.1,8.6-3.2,14c0,2.6,0.4,4.4,0.6,6.1c0.2,1.8,0,3.4,0.2,3.4c0.4,0.1,0.6-2.4,1.4-5.4
	c0.8-3.1,1.4-4.8,1.6-4.8c0.2,0,0.4,0.8,0.3,1.8c-0.1,0.7-0.4,1.9-0.2,2c0.3,0.1,1.5-3,2.1-9c0.6-5.9,0.2-5.9,0.8-7.6
	c0.6-1.7,1.3-1.9,1.4-1.7c0.1,0.1-0.7,2.2-1,3.7c-0.3,1.5-0.1,2.2,0.8,3.9c1,1.8,2,2.7,1.9,4.6c0,0.7-0.3,1.9-0.9,2.9
	c-0.9,1.6-2.4,3-2.5,3.4c-0.1,0.6,0.4,2.6,0.2,5.6c-0.3,3-1.1,4.2-0.7,4.8c0.3,0.6,0.6,0.7,0.9,0.8c0.2,0.2,0.5,0.4,0.5,0.6
	c0,0.1-0.1,0.1-0.3,0.5c-0.2,0.3-0.3,0.5-0.3,0.5l0,0c-0.3,0-0.5,0-0.8,0.1c-0.4,0-0.9,0.1-1.3,0.1c-0.5,0-1,0-1.5,0
	c-0.4,0-0.7-0.1-1.1,0.1c-0.9,0.4-1.8,0.7-2.8,0.8c-0.6,0-1.1,0-1.7,0.1c-0.2,0-1,0.5-0.9,0c0.1-0.4,0.2-1.2,0.2-1.2
	c-0.1,0-0.5,0.7-0.6,0.7c-0.1,0-0.4-1.6-0.2-2.9c0-0.2,0.3-1,0.2-1c-0.6,0.1-0.7,2.9-0.9,2.9c-0.1,0-0.7-1.1-0.9-1
	c-0.2,0.1,0.3,1,0.4,1.3c0.2,0.7,0.6,2-0.4,2.1c-0.6,0.1-4.9,1.2-4.5,2.3c0.2,0.6,2.3,0,2.7-0.1c1.7-0.4,3.3-0.5,5-0.8
	c3.1-0.5,6.3-0.9,9.4-1.2c6-0.4,11.9-0.9,17.9-1c6.1-0.1,12.1,0.5,18.1,0.8c4.8,0.2,14.3,1.4,14.3,1.5
	C156.8,55.4,157.9,55.6,158.9,55.7z M117.1,50.7c-0.5,0.1-0.9,0.2-1.3,0.3c-0.4,0.1-0.4,0.1-0.7-0.1c-0.2-0.2-0.5,0.2-0.6,0
	c-0.3-0.3-0.5-0.2-0.8,0c-0.8,0.4-1.5,0.8-2.4,0.8c-0.4,0-0.8-0.1-1.2-0.1c-0.3,0-0.8,0.3-1.1,0.2c-0.3-0.1-0.6-0.6-0.9-0.8
	c-0.2-0.2-0.5-0.3-0.6-0.6c-0.2-0.3-0.1-0.7-0.2-1c-0.1-0.3-0.1-0.7-0.2-1c0,0,0,0,0,0c0,0,0,0,0,0c0,0,0,0,0,0c0,0,0,0,0,0
	c0,0,0,0,0,0c0-0.1,0-0.4,0,0c-0.2-2.1-0.1-4.1,0.6-6.1c0.7-2,2.1-3.8,3.6-5.3c0.7-0.7,1.4-1.2,2.2-1.8c0.3-0.2,1.5-1.1,1.9-0.7
	c0.5,0.5,0,2-0.1,2.5c-0.2,0.8-0.5,1.6-0.8,2.3c-0.1,0.3-0.4,0.8-0.3,1.2c0.1,0.2,0.4,0.5,0.6,0.7c0.5,0.6,1,1.2,1.4,1.9
	c1,1.5,1.7,3.2,2.4,4.8c0.3,0.7,0.5,1.6,0.5,2.4C118.9,50.6,117.3,50.7,117.1,50.7z M136,38.3c0,0.1-0.1,0.2-0.2,0.3
	c0,0.3,0,0.6,0,0.9c0,0.2,0,0.5,0,0.7c-0.2,0.7-0.2,1.4-0.2,2.1c0,0.6,0,1.1-0.1,1.7c0,0.2-0.1,0.4-0.1,0.7c0,0.1-0.2,0.3-0.3,0.4
	c-0.3,0.4-0.8,0.8-0.8,1.5c0,0.3-0.1,0.6-0.2,0.9c-0.1,0.3-0.1,0.6,0.1,0.9c0.1,0.1,0.1,0.2,0,0.3c-0.2,0.2-0.3,0.4-0.3,0.6
	c0,0.6-0.4,0.8-0.9,0.7c-0.3,0-0.6,0.2-0.6,0.6c0,0.2,0,0.5-0.1,0.7c0,0.2-0.2,0.2-0.3,0.1c-0.2-0.1-0.4-0.3-0.6-0.4
	c-0.2-0.1-0.5-0.1-0.8-0.2c-0.1,0-0.3,0-0.4,0c-0.2,0-0.3,0-0.4,0.2c-0.1,0.3-0.2,0.3-0.5,0.2c-0.7-0.1-1.4-0.2-2.1-0.3
	c-0.3,0-0.5-0.2-0.8-0.3c-0.7-0.3-1.3-0.6-2-0.9c-0.2-0.1-0.3-0.2-0.4-0.3c-0.1,0-0.3,0-0.4,0c-0.2,0-0.4,0.1-0.5,0.1
	c-0.2,0-0.4,0-0.6,0.1c-0.3,0-0.5-0.1-0.7-0.3c-0.2-0.3-0.5-0.6-0.7-1c-0.2-0.2-0.3-0.5-0.4-0.7c-0.3-0.7-0.7-1.3-1.3-1.7
	c-0.1-0.1-0.1-0.2-0.2-0.3c-0.1-0.4-0.1-0.9-0.5-1.2c-0.1-0.1-0.1-0.3-0.1-0.5c-0.1-0.6-0.3-1.1-0.5-1.6c-0.2-0.4-0.4-0.7-0.6-1.1
	c-0.1-0.2,0-0.4,0-0.6c0-0.3,0-0.6,0-0.9c0-0.4,0.1-0.8,0.2-1.1c0.1-0.6,0.2-1.2,0.2-1.8c0-0.2,0.1-0.5,0.2-0.7
	c0.1-0.3,0.3-0.6,0.5-1c0.3-0.8,0.6-1.3,0.7-2.2c0.1-0.4,0.2-0.7,0-1.1c-0.1-0.2,0-0.3,0.3-0.2c0.3,0,0.5-0.1,0.7-0.3
	c0.2-0.2,0.4-0.5,0.6-0.7c0-0.1,0.2-0.1,0.2-0.1c0.7,0.1,1.4,0.2,2.1,0.4c2.1,0.4,6.1,0.8,8.5,0.9c0.4,0,1.1-0.1,1.6,0
	c0.1,0,0.2,0.1,0.2,0.2c0.2,0.2,0.3,0.4,0.6,0.4c0.3,0,0.4,0.1,0.3,0.5c-0.1,0.4-0.3,0.8-0.2,1.2c0,0.2,0.1,0.5,0.1,0.7
	c0,0.1,0.1,0.1,0.1,0.2c0.1,0.1,0.2,0.2,0.3,0.2c0.3,0.2,0.5,0.4,0.5,0.7c0,0.2,0.1,0.3,0.3,0.3c0.1,0,0.2,0.1,0.3,0.2
	C136,36.9,136.1,37.6,136,38.3z M142.8,50.6c-0.7-0.3-1.5-0.1-2.2-0.2c-0.7-0.1-1.5,0.4-2.2,0.4c-0.2,0-0.6,0-0.8-0.1
	c-0.2-0.1-0.2-0.5-0.3-0.7c-0.1-0.4-0.3-0.7-0.5-1c-0.2-0.3-0.2-0.6-0.2-0.9c0-1.7-0.2-3.5,0.2-5.2c0.2-0.8,0.6-1.6,0.9-2.5
	c0.3-0.9,0.4-1.7,0.6-2.6c0-0.3,0.3-2.3,0.6-2.2c0.2,0.1,0.3,0.9,0.4,1.1c0.1,0.4,0.1,0.8,0.2,1.2c0.2,1.6,0.7,3.2,1.3,4.8
	c0.3,0.8,0.7,1.5,0.8,2.3c0.1,0.4,0.1,0.8,0.1,1.2c0,0.3-0.3,0.8-0.1,1.1c0.2,0.6,1,0.7,1.3,1.4c0.2,0.4,0.2,0.8,0.2,1.3
	C143,50.2,143.2,50.8,142.8,50.6z"/>
</svg>
